<svg width="24" height="24" viewBox="0 0 24 24" fill="none" xmlns="http://www.w3.org/2000/svg">
<path d="M4.4546 7.86061C4.4546 10.0612 6.11466 11.7212 8.3152 11.7212C10.5157 11.7212 12.1758 10.0612 12.1758 7.86061C12.1758 5.66006 10.5157 4 8.3152 4C6.11466 4 4.4546 5.66006 4.4546 7.86061ZM20.4485 7.25173H18.2425V10.5608H14.9334V12.7669H18.2425V16.076H20.4485V12.7669H23.7576V10.5608H20.4485V7.25173ZM3.90308 19.3851H14.9334V18.282C14.9334 15.241 12.4593 12.7669 9.41823 12.7669H7.21217C4.17112 12.7669 1.69702 15.241 1.69702 18.282V19.3851H3.90308Z" fill="white"/>
</svg>
