<svg width="36" height="36" viewBox="0 0 36 36" fill="none" xmlns="http://www.w3.org/2000/svg">
<path d="M21.2918 11.4579C20.4206 11.5262 19.4145 11.5928 18.4101 11.7278C16.8694 11.9276 15.3287 12.1976 14.0543 12.8005C11.5776 13.8085 9.90015 15.954 9.90015 19.1111C9.90015 23.0709 12.4471 25.0814 15.6635 25.0814C16.7362 25.0814 17.6073 24.95 18.4101 24.7485C19.6845 24.3452 20.7554 23.6073 22.028 22.2645C22.7659 23.2725 22.964 23.7423 24.2401 24.815C24.5749 24.95 24.9096 24.95 25.1761 24.7485C26.1738 23.9143 27.1579 23.0641 28.1279 22.198C28.4609 21.9279 28.3925 21.5266 28.1927 21.19C27.4547 20.2505 26.7186 19.4441 26.7186 17.6351V11.5928C26.7186 9.04053 26.9166 6.69343 25.0447 4.95111C23.5021 3.53638 21.0884 3 19.2147 3H18.4101C14.9921 3.20339 11.3742 4.67932 10.5697 8.90734C10.4365 9.44371 10.8397 9.6453 11.1079 9.7155L14.8589 10.1835C15.2603 10.1151 15.4601 9.7803 15.5266 9.44551C15.8632 7.96958 17.0692 7.23161 18.4101 7.09661H18.6802C19.4811 7.09661 20.3523 7.4332 20.8221 8.10097C21.3566 8.90734 21.2901 9.98189 21.2901 10.9214V11.4579H21.2918ZM21.2918 15.3528C21.2918 16.8972 21.3566 18.1049 20.5538 19.4441C20.0858 20.3836 19.2813 20.9884 18.4101 21.19C18.2769 21.19 18.0772 21.2583 17.8738 21.2583C16.4014 21.2583 15.5285 20.1191 15.5285 18.4397C15.5285 16.2924 16.8029 15.2845 18.4083 14.8147C19.2813 14.6131 20.2874 14.5447 21.2918 14.5447V15.3547V15.3528ZM33.6339 31.3001C35.2718 29.9142 35.9629 27.3997 35.999 26.0858V25.8662C36.0081 25.6505 35.9583 25.4365 35.8549 25.247C35.5273 24.8474 33.1227 24.4802 31.0491 25.1012C30.4913 25.275 29.9632 25.533 29.4833 25.8662C29.1197 26.1235 29.1916 26.4475 29.5553 26.4134C29.9566 26.3396 30.466 26.3053 31.0491 26.2298C32.3235 26.1217 33.8157 26.0858 34.181 26.5591C34.6868 27.1765 33.5978 29.8764 33.1227 31.0445C32.9787 31.4099 33.3044 31.5575 33.6339 31.3001Z" fill="white"/>
<path d="M0.180538 26.0858C4.87653 30.3515 11.0647 32.9057 17.9817 32.9057C22.2763 32.9057 27.2262 31.6997 31.0491 29.4048C31.5603 29.1115 32.0679 28.782 32.5394 28.4185C33.1947 27.9468 32.6133 27.2143 31.9581 27.5059C31.6683 27.6139 31.339 27.7633 31.0491 27.8713C27.0116 29.45 22.7164 30.2666 18.3813 30.2796C11.9016 30.2796 5.6415 28.4923 0.58012 25.5386C0.106742 25.2848 -0.220844 25.7582 0.180538 26.0858Z" fill="white"/>
</svg>
