<svg width="15" height="15" viewBox="0 0 15 15" fill="none" xmlns="http://www.w3.org/2000/svg">
<path d="M5.74336 0.108032C4.09704 0.108032 2.77594 1.23868 2.77594 3.39958C2.77594 4.81071 3.338 6.24804 4.19144 7.13368C4.52431 8.01932 3.92406 8.34891 3.79964 8.39584C2.07693 9.02774 0.0644531 10.1737 0.0644531 11.312V11.7376C0.0644531 13.289 3.01877 13.6475 5.75973 13.6475C6.35714 13.6465 6.95433 13.6239 7.55011 13.5798C6.80408 12.7924 6.38915 11.7484 6.39108 10.6637C6.39108 9.68638 6.72395 8.79091 7.27727 8.0717C7.19542 7.87963 7.16268 7.57677 7.31165 7.11676C8.16018 6.23003 8.71023 4.80526 8.71023 3.39904C8.71023 1.23868 7.3875 0.108578 5.74281 0.108578L5.74336 0.108032ZM10.6545 7.21881C9.74092 7.21881 8.86477 7.58172 8.21878 8.22771C7.57279 8.8737 7.20988 9.74985 7.20988 10.6634C7.20988 11.577 7.57279 12.4531 8.21878 13.0991C8.86477 13.7451 9.74092 14.108 10.6545 14.108C11.5681 14.108 12.4442 13.7451 13.0902 13.0991C13.7362 12.4531 14.0991 11.577 14.0991 10.6634C14.0991 9.74985 13.7362 8.8737 13.0902 8.22771C12.4442 7.58172 11.5681 7.21881 10.6545 7.21881ZM10.177 8.75381H11.132V10.1693H12.5475V11.1581H11.132V12.5736H10.177V11.1581H8.74461V10.1693H10.177V8.75381Z" fill="white"/>
</svg>
