<svg width="36" height="31" viewBox="0 0 36 31" fill="none" xmlns="http://www.w3.org/2000/svg">
<path d="M33.75 13.6444H7.065L15.2325 4.45715C15.6144 4.02684 15.7982 3.47206 15.7433 2.91488C15.6884 2.35769 15.3995 1.84373 14.94 1.48606C14.4805 1.1284 13.8881 0.956324 13.2932 1.0077C12.6982 1.05907 12.1494 1.32968 11.7675 1.75999L0.5175 14.4029C0.441812 14.5035 0.374128 14.6091 0.315 14.719C0.315 14.8244 0.315 14.8876 0.1575 14.9929C0.0555157 15.2345 0.00211752 15.4917 0 15.7515C0.00211752 16.0113 0.0555157 16.2685 0.1575 16.5101C0.1575 16.6154 0.1575 16.6787 0.315 16.784C0.374128 16.8939 0.441812 16.9995 0.5175 17.1001L11.7675 29.743C11.979 29.9809 12.244 30.1722 12.5434 30.3033C12.8428 30.4344 13.1695 30.5021 13.5 30.5016C14.0257 30.5026 14.5352 30.3311 14.94 30.017C15.1678 29.8401 15.3562 29.6228 15.4942 29.3776C15.6322 29.1325 15.7173 28.8642 15.7445 28.5882C15.7716 28.3123 15.7404 28.034 15.6525 27.7693C15.5647 27.5046 15.422 27.2588 15.2325 27.0459L7.065 17.8587H33.75C34.3467 17.8587 34.919 17.6367 35.341 17.2415C35.7629 16.8463 36 16.3104 36 15.7515C36 15.1927 35.7629 14.6567 35.341 14.2615C34.919 13.8664 34.3467 13.6444 33.75 13.6444Z" fill="black"/>
</svg>
