<svg width="16" height="16" viewBox="0 0 16 16" fill="none" xmlns="http://www.w3.org/2000/svg">
<path d="M4.788 2.02105C4.56271 1.79248 4.43755 1.49173 4.45006 1.17895C4.45006 0.866166 4.57523 0.577443 4.81304 0.348872C5.03833 0.132331 5.35124 -1.98773e-07 5.67666 -1.70324e-07C6.00209 -1.41874e-07 6.31499 0.108271 6.5528 0.324812L13.637 7.13384C13.7497 7.24211 13.8373 7.37444 13.8999 7.5188C13.9625 7.66316 14 7.81955 14 7.97594C14 8.13233 13.9625 8.28872 13.8999 8.44511C13.8373 8.58947 13.7497 8.7218 13.637 8.83008L6.5528 15.6391C6.44015 15.7474 6.30248 15.8436 6.15228 15.9038C5.98957 15.9639 5.82686 16 5.66414 16C5.50143 16 5.3262 15.9759 5.17601 15.9158C5.02581 15.8556 4.88813 15.7594 4.76297 15.6511C4.65032 15.5429 4.56271 15.3985 4.50013 15.2541C4.42503 15.1098 4.4 14.9534 4.4 14.785C4.4 14.6286 4.43755 14.4722 4.50013 14.3278C4.56271 14.1835 4.66284 14.0511 4.788 13.9308L10.9836 7.97594L9.80704 6.85714L4.788 2.02105Z" fill="black"/>
</svg>
