<svg width="24" height="24" viewBox="0 0 24 24" fill="none" xmlns="http://www.w3.org/2000/svg">
<path d="M8.68326 11.9956C10.5729 11.9956 11.9985 10.5083 11.9985 8.53677C11.9985 6.56524 10.5729 5.07794 8.68326 5.07794C6.79358 5.07794 5.36803 6.56524 5.36803 8.53677C5.36803 10.5083 6.79358 11.9956 8.68326 11.9956ZM9.63047 12.9324H7.73605C5.12459 12.9324 3 15.149 3 17.8736V18.8618H14.3665V17.8736C14.3665 15.149 12.2419 12.9324 9.63047 12.9324ZM20.3273 8.28081L18.1554 10.5468L15.9834 8.28081L14.6441 9.67818L16.8151 11.9432L14.6431 14.2092L15.9825 15.6066L18.1544 13.3406L20.3273 15.6076L21.6667 14.2102L19.4947 11.9442L21.6667 9.67818L20.3273 8.28081Z" fill="#EF9105"/>
</svg>
