<svg width="544" height="768" viewBox="0 0 544 768" fill="none" xmlns="http://www.w3.org/2000/svg">
<path d="M271.288 265.23L91.2949 370.803V584.545L271.288 691.416V625.65L145.812 553.825V402.821L271.288 326.67V265.23Z" fill="#774F1B"/>
<path d="M154.898 546.037V410.177L265.23 479.838V609.64L154.898 546.037Z" fill="#EC9104"/>
<path d="M0 635.601V369.938L65.7668 409.312V597.093L222.828 692.282V768L0 635.601Z" fill="#EC9104"/>
<path d="M270.855 265.23L450.849 370.803V584.545L270.855 691.416V625.65L396.331 553.825V402.821L270.855 326.67V265.23Z" fill="#EC9104"/>
<path d="M387.245 546.037V410.177L276.913 479.838V609.64L387.245 546.037Z" fill="#774F1B"/>
<path d="M542.143 635.601V369.938L476.376 409.312V597.093L319.315 692.282V768L542.143 635.601Z" fill="#774F1B"/>
<path d="M463.856 79.4584C514.711 130.233 543.327 199.061 543.441 270.855V323.642H462.098V271.288H461.925C461.925 220.923 441.886 172.621 406.215 137.007C370.545 101.394 322.166 81.3864 271.721 81.3864C221.275 81.3864 172.896 101.394 137.226 137.007C101.556 172.621 81.5162 220.923 81.5162 271.288H81.3431V323.642H0L0.000345167 270.855C0.114866 199.061 28.7298 130.233 79.5851 79.4584C130.543 28.582 199.656 -5.43207e-06 271.721 0C343.785 5.43208e-06 412.899 28.582 463.856 79.4584Z" fill="#EC9104"/>
</svg>
