<svg width="6" height="8" viewBox="0 0 6 8" fill="none" xmlns="http://www.w3.org/2000/svg">
<path d="M2.8 0C1.252 0 0 1.252 0 2.8C0 4.9 2.8 8 2.8 8C2.8 8 5.6 4.9 5.6 2.8C5.6 1.252 4.348 0 2.8 0ZM2.8 3.8C2.53478 3.8 2.28043 3.69464 2.09289 3.50711C1.90536 3.31957 1.8 3.06522 1.8 2.8C1.8 2.53478 1.90536 2.28043 2.09289 2.09289C2.28043 1.90536 2.53478 1.8 2.8 1.8C3.06522 1.8 3.31957 1.90536 3.50711 2.09289C3.69464 2.28043 3.8 2.53478 3.8 2.8C3.8 3.06522 3.69464 3.31957 3.50711 3.50711C3.31957 3.69464 3.06522 3.8 2.8 3.8Z" fill="#727272"/>
</svg>
