<svg width="449" height="256" viewBox="0 0 449 256" fill="none" xmlns="http://www.w3.org/2000/svg">
<path d="M153.702 157.731L258.585 210.221L258.593 105.224L153.703 52.775V157.732" fill="#946F47"/>
<path d="M258.585 210.222L363.467 157.733V52.7764L258.585 105.266V210.223" fill="#B19255"/>
<path d="M153.702 52.7744L258.585 105.253L363.467 52.7205L258.585 0.296761L153.702 52.7744Z" fill="#BD9C5B"/>
<path d="M258.585 105.502L363.467 53.0107V52.7724L363.228 52.6532L258.581 105.024L258.582 105.502" fill="#E0B96C"/>
<path d="M258.584 105.502L153.702 53.0107V52.7724L153.941 52.6532L258.581 105.025L258.582 105.502" fill="#E0CCA4"/>
<path d="M258.584 105.266L153.702 52.7757L258.584 105.266Z" fill="#94816C"/>
<path d="M258.584 118.207V105.267C258.584 105.267 264.551 146.433 258.584 210.224V193.784C260.895 159.249 259.736 132.857 258.584 118.211" fill="#946F47"/>
<path d="M258.585 204.67V107.342C259.736 121.991 260.895 170.137 258.585 204.67Z" fill="#6B4D2C"/>
<path d="M306.76 135.673L321.896 128.098V73.8593L306.76 81.4341V135.673Z" fill="#F7EECF"/>
<path d="M321.906 73.8626L306.771 81.4361L200.879 29.1665L216.014 21.5938L321.906 73.8626" fill="#FFF6D6"/>
<path d="M327.901 97.2335L354.363 89.5274L357.486 73.023L331.024 80.7285L327.901 97.2335Z" fill="white"/>
<path d="M350.616 87.8811L351.259 87.6939L353.285 76.9875L352.641 77.1747L350.616 87.8811Z" fill="#2C323D"/>
<path d="M349.869 88.0966L350.191 88.003L352.216 77.2966L351.895 77.3902L349.869 88.0966Z" fill="#2C323D"/>
<path d="M349.129 88.312L349.451 88.2184L351.476 77.512L351.154 77.6056L349.129 88.312Z" fill="#2C323D"/>
<path d="M348.382 88.5275L348.704 88.4339L350.729 77.7282L350.407 77.8217L348.382 88.5275Z" fill="#2C323D"/>
<path d="M347.642 88.7429L347.964 88.6493L349.989 77.9429L349.668 78.0365L347.642 88.7429Z" fill="#2C323D"/>
<path d="M346.572 89.0527L347.215 88.8655L349.241 78.1598L348.597 78.347L346.572 89.0527Z" fill="#2C323D"/>
<path d="M343.699 89.8943L344.021 89.8007L346.046 79.0943L345.725 79.1879L343.699 89.8943Z" fill="#2C323D"/>
<path d="M342.959 90.1097L343.281 90.0162L345.306 79.3098L344.985 79.4033L342.959 90.1097Z" fill="#2C323D"/>
<path d="M341.896 90.4195L342.539 90.2323L344.564 79.5266L343.922 79.7138L341.896 90.4195Z" fill="#2C323D"/>
<path d="M345.509 89.3624L346.152 89.1752L348.178 78.4688L347.535 78.656L345.509 89.3624Z" fill="#2C323D"/>
<path d="M344.446 89.6721L345.089 89.4849L347.115 78.7785L346.472 78.9657L344.446 89.6721Z" fill="#2C323D"/>
<path d="M340.826 90.7292L341.469 90.5421L343.495 79.8356L342.851 80.0228L340.826 90.7292Z" fill="#2C323D"/>
<path d="M340.086 90.9446L340.407 90.8504L342.433 80.1447L342.111 80.2383L340.086 90.9446Z" fill="#2C323D"/>
<path d="M339.339 91.1602L339.661 91.0666L341.687 80.3602L341.365 80.4538L339.339 91.1602Z" fill="#2C323D"/>
<path d="M338.599 91.3756L338.921 91.282L340.947 80.5756L340.625 80.6692L338.599 91.3756Z" fill="#2C323D"/>
<path d="M337.852 91.5911L338.174 91.4975L340.2 80.7911L339.878 80.8847L337.852 91.5911Z" fill="#2C323D"/>
<path d="M336.789 91.9008L337.432 91.7136L339.458 81.0072L338.814 81.1944L336.789 91.9008Z" fill="#2C323D"/>
<path d="M333.916 92.7424L334.238 92.6482L336.263 81.9424L335.942 82.036L333.916 92.7424Z" fill="#2C323D"/>
<path d="M333.169 92.9579L333.491 92.8643L335.516 82.1579L335.194 82.2515L333.169 92.9579Z" fill="#2C323D"/>
<path d="M332.106 93.2676L332.75 93.0805L334.775 82.374L334.132 82.5612L332.106 93.2676Z" fill="#2C323D"/>
<path d="M335.726 92.2105L336.369 92.0233L338.395 81.3176L337.751 81.5048L335.726 92.2105Z" fill="#2C323D"/>
<path d="M334.663 92.527L335.306 92.3398L337.332 81.6334L336.688 81.8206L334.663 92.527Z" fill="#2C323D"/>
<path d="M265.999 125.708L299.222 109.081V93.2703L265.999 109.897V125.708Z" fill="white"/>
<path d="M347.676 159.845C347.676 160.296 348.04 160.478 348.491 160.253L359.016 154.986C359.466 154.76 359.831 154.212 359.831 153.762V143.23C359.831 142.779 359.466 142.596 359.016 142.822L348.491 148.088C348.04 148.314 347.676 148.862 347.676 149.313V159.845ZM347.851 147.79L359.656 141.882C360.094 141.663 360.45 141.841 360.45 142.279V154.093C360.45 154.531 360.094 155.065 359.656 155.284L347.851 161.192C347.412 161.411 347.057 161.234 347.057 160.795V148.981C347.057 148.543 347.412 148.01 347.851 147.79Z" fill="#2C323D"/>
<path d="M355.905 154.667L356.651 154.294V146.184L355.905 146.557V154.667Z" fill="#2C323D"/>
<path d="M356.282 145.308L357.297 146.836L356.282 147.344L355.266 147.852L356.282 145.308Z" fill="#2C323D"/>
<path d="M350.858 157.192L351.604 156.819V148.708L350.858 149.082V157.192Z" fill="#2C323D"/>
<path d="M351.235 147.833L352.25 149.361L351.235 149.869L350.219 150.377L351.235 147.833Z" fill="#2C323D"/>
<path d="M358.347 154.553V153.806L349.168 158.4V159.146L358.347 154.553Z" fill="#2C323D"/>
<path d="M331.797 167.79C331.797 168.241 332.162 168.424 332.612 168.198L343.137 162.932C343.588 162.706 343.953 162.158 343.953 161.707V151.175C343.953 150.724 343.588 150.542 343.137 150.767L332.612 156.034C332.162 156.26 331.797 156.808 331.797 157.258V167.79ZM331.972 155.736L343.777 149.828C344.216 149.609 344.571 149.786 344.571 150.225V162.039C344.571 162.477 344.216 163.01 343.777 163.229L331.972 169.138C331.534 169.357 331.178 169.179 331.178 168.741V156.927C331.178 156.489 331.534 155.955 331.972 155.736Z" fill="#2C323D"/>
<path d="M335.094 161.629C336.091 161.131 336.899 159.917 336.899 158.919V154.745L333.288 156.553V160.726C333.288 161.724 334.096 162.128 335.094 161.629Z" fill="#2C323D"/>
<path d="M334.878 165.918L335.301 165.707V161.343L334.878 161.555V165.918Z" fill="#2C323D"/>
<path d="M336.897 165.205C336.897 164.971 336.708 164.877 336.474 164.993L333.708 166.378C333.475 166.495 333.286 166.779 333.286 167.012L336.897 165.205Z" fill="#2C323D"/>
<path d="M339.225 157.751C339.225 158.543 339.868 158.865 340.66 158.469C341.45 158.073 342.094 157.107 342.094 156.316V152.514L339.225 153.95V157.751ZM342.465 151.957V156.13C342.465 157.128 341.657 158.341 340.66 158.841C339.662 159.34 338.854 158.935 338.854 157.937V153.764L342.465 151.957Z" fill="#2C323D"/>
<path d="M340.449 163.138L340.872 162.926V158.562L340.449 158.773V163.138Z" fill="#2C323D"/>
<path d="M342.468 162.417C342.468 162.184 342.279 162.089 342.045 162.206L339.279 163.59C339.046 163.707 338.857 163.991 338.857 164.224L342.468 162.417Z" fill="#2C323D"/>
<path d="M315.917 175.742C315.917 176.193 316.283 176.376 316.733 176.15L327.258 170.883C327.708 170.657 328.073 170.109 328.073 169.659V159.127C328.073 158.676 327.708 158.493 327.258 158.719L316.733 163.986C316.283 164.212 315.917 164.76 315.917 165.21V175.742ZM316.092 163.688L327.898 157.779C328.336 157.56 328.691 157.738 328.691 158.176V169.99C328.691 170.429 328.336 170.962 327.898 171.181L316.092 177.089C315.654 177.309 315.299 177.131 315.299 176.693V164.879C315.299 164.44 315.654 163.907 316.092 163.688Z" fill="#2C323D"/>
<path d="M324.395 165.972C324.053 165.847 323.606 165.891 323.116 166.135C322.627 166.38 322.18 166.784 321.837 167.253C321.494 167.128 321.047 167.171 320.558 167.416C320.068 167.661 319.622 168.064 319.279 168.534C318.935 168.408 318.489 168.451 317.999 168.697C317.892 168.75 317.787 168.811 317.685 168.879C317.87 166.679 319.638 164.141 321.792 163.063C323.942 161.987 325.707 162.751 325.898 164.756C325.825 164.785 325.751 164.817 325.675 164.855C325.186 165.1 324.739 165.504 324.395 165.972Z" fill="#2C323D"/>
<path d="M322.666 172.49C323.272 172.187 323.765 171.447 323.765 170.84V170.63C323.765 170.505 323.664 170.455 323.539 170.517C323.415 170.579 323.314 170.731 323.314 170.856V171.067C323.314 171.423 323.023 171.86 322.666 172.038C322.31 172.217 322.019 172.072 322.019 171.714V162.557C322.019 162.432 321.918 162.382 321.794 162.444C321.669 162.507 321.568 162.658 321.568 162.783V171.941C321.568 172.547 322.061 172.793 322.666 172.49Z" fill="#2C323D"/>
<path d="M253.087 11.8973L280.998 25.8626L281.866 25.4277L253.956 11.4631L253.087 11.8973Z" fill="#2C323D"/>
<path d="M250.342 13.2709L278.253 27.2361L279.121 26.8012L251.211 12.8366L250.342 13.2709Z" fill="#2C323D"/>
<path d="M247.611 14.6377L275.521 28.6023L276.39 28.168L248.479 14.2027L247.611 14.6377Z" fill="#2C323D"/>
<path d="M244.866 16.0113L272.776 29.9758L273.645 29.5415L245.734 15.5763L244.866 16.0113Z" fill="#2C323D"/>
<path d="M248.304 74.7851L276.215 88.7504L277.083 88.3161L249.172 74.3508L248.304 74.7851Z" fill="#2C323D"/>
<path d="M245.565 76.1587L273.475 90.1232L274.344 89.6889L246.434 75.7237L245.565 76.1587Z" fill="#2C323D"/>
<path d="M242.827 77.5255L270.737 91.4908L271.605 91.0558L243.695 77.0912L242.827 77.5255Z" fill="#2C323D"/>
<path d="M240.088 78.8991L267.999 92.8643L268.867 92.43L240.956 78.4648L240.088 78.8991Z" fill="#2C323D"/>
<path d="M448.057 180.233L385.728 149.047C385.017 148.691 383.865 148.691 383.155 149.047L252.731 214.304L252.58 214.397L252.818 214.044L252.206 213.961V214.912C252.186 215.157 252.358 215.405 252.731 215.591L315.061 246.778C315.771 247.134 316.923 247.134 317.633 246.778L448.057 181.521C448.767 181.165 448.767 180.589 448.057 180.233" fill="#BF8B43"/>
<path d="M252.731 214.605L315.061 245.791C315.771 246.147 316.923 246.147 317.633 245.791L448.057 180.533C448.768 180.178 448.73 179.585 448.057 179.246L385.728 148.059C385.017 147.704 383.865 147.704 383.155 148.059L252.731 213.317C252.021 213.673 252.021 214.249 252.731 214.605" fill="#FFCF5A"/>
<path d="M394.566 173.123L282.147 229.371L281.633 229.113L394.052 172.866L394.566 173.123" fill="#F29C00"/>
<path d="M361.516 162.868L383.006 148.709C384.55 147.936 385.578 148.709 385.578 148.709L447.889 179.886C447.889 179.886 448.235 179.487 448.435 179.691L448.574 179.576L448.588 180.884C448.578 181.071 448.389 180.922 447.889 181.172L417.988 191.859C416.544 192.375 414.566 192.293 413.312 191.665L362.036 166.009C360.781 165.381 360.485 163.591 361.516 162.868Z" fill="#BF8B43"/>
<path d="M385.584 147.806L447.894 178.984C447.894 178.984 449.437 179.498 447.894 180.27L417.993 190.956C416.549 191.473 414.571 191.391 413.317 190.763L362.041 165.107C360.786 164.479 360.623 163.49 361.654 162.767L383.012 147.806C384.555 147.034 385.584 147.806 385.584 147.806Z" fill="#FFE092"/>
<path d="M385.934 172.847C384.789 173.42 384.789 174.941 385.934 175.514C387.077 176.086 388.933 176.086 390.078 175.514C391.222 174.941 391.222 173.42 390.078 172.847C388.933 172.275 387.077 172.275 385.934 172.847Z" fill="#B3B3B3"/>
<path d="M385.934 172.847C384.789 173.42 384.789 174.348 385.934 174.921C387.077 175.493 388.933 175.493 390.078 174.921C391.222 174.348 391.222 173.42 390.078 172.847C388.933 172.275 387.077 172.275 385.934 172.847Z" fill="white"/>
<path d="M417.355 186.313L430.608 179.653C430.93 179.492 430.93 179.231 430.608 179.07L412.127 169.823C411.804 169.662 411.282 169.662 410.96 169.823L397.708 176.483C397.385 176.644 397.385 176.906 397.708 177.067L416.189 186.313C416.511 186.475 417.033 186.475 417.355 186.313" fill="#962823"/>
<path d="M398.63 177.069L416.19 185.855C416.512 186.016 417.034 186.016 417.356 185.855L429.688 179.655C430.01 179.494 430.01 179.233 429.688 179.072L412.128 170.286C411.805 170.125 411.283 170.125 410.961 170.286L398.63 176.485C398.308 176.646 398.308 176.908 398.63 177.069Z" fill="white"/>
<path d="M412.645 172.059L427.744 179.613L428.16 179.405L413.061 171.85L412.645 172.059Z" fill="#2C323D"/>
<path d="M411.661 172.551L426.759 180.105L427.176 179.897L412.077 172.342L411.661 172.551Z" fill="#2C323D"/>
<path d="M410.677 173.042L425.776 180.597L426.192 180.388L411.094 172.834L410.678 173.042" fill="#2C323D"/>
<path d="M409.693 173.534L424.792 181.088L425.208 180.88L410.11 173.326L409.694 173.534" fill="#2C323D"/>
<path d="M408.71 174.025L423.808 181.58L424.224 181.371L409.126 173.817L408.71 174.025" fill="#2C323D"/>
<path d="M402.388 175.298L411.905 180.06L412.321 179.851L402.804 175.09L402.388 175.298Z" fill="#2C323D"/>
<path d="M401.404 175.789L410.921 180.551L411.337 180.343L401.82 175.581L401.404 175.789" fill="#2C323D"/>
<path d="M400.42 176.281L409.937 181.042L410.353 180.834L400.836 176.073L400.42 176.281" fill="#2C323D"/>
<path d="M405.22 174.025L422.413 182.627L422.189 182.739L404.997 174.137L405.22 174.025" fill="#961010"/>
<path d="M283.568 223.315L293.159 218.516C293.484 218.353 293.484 218.09 293.159 217.927L274.533 208.607C274.208 208.445 273.682 208.445 273.357 208.607L263.765 213.407C263.441 213.569 263.441 213.832 263.765 213.995L282.392 223.315C282.717 223.477 283.243 223.477 283.568 223.315" fill="#2C323D"/>
<path d="M264.694 213.995L282.392 222.85C282.717 223.013 283.243 223.013 283.568 222.85L292.231 218.516C292.556 218.353 292.556 218.09 292.231 217.927L274.533 209.072C274.208 208.909 273.682 208.909 273.358 209.072L264.694 213.407C264.369 213.569 264.369 213.832 264.694 213.995" fill="white"/>
<path d="M281.899 221.581L282.579 221.921L290.314 218.051L289.634 217.711L281.899 221.581Z" fill="#2C323D"/>
<path d="M277.841 219.553L278.522 219.894L286.257 216.023L285.577 215.683L277.841 219.553Z" fill="#2C323D"/>
<path d="M277.364 219.313L277.58 219.422L285.315 215.551L285.099 215.443L277.364 219.313Z" fill="#2C323D"/>
<path d="M276.919 219.088L277.136 219.197L284.871 215.326L284.654 215.218L276.919 219.088Z" fill="#2C323D"/>
<path d="M274.659 217.958L274.875 218.067L282.61 214.197L282.394 214.088L274.659 217.958Z" fill="#2C323D"/>
<path d="M281.158 221.209L281.499 221.38L289.234 217.509L288.893 217.339L281.158 221.209Z" fill="#2C323D"/>
<path d="M275.91 218.585L276.591 218.926L284.326 215.056L283.646 214.715L275.91 218.585Z" fill="#2C323D"/>
<path d="M275.17 218.214L275.511 218.384L283.246 214.514L282.905 214.344L275.17 218.214Z" fill="#2C323D"/>
<path d="M280.411 220.838L280.752 221.008L288.487 217.138L288.146 216.967L280.411 220.838Z" fill="#2C323D"/>
<path d="M279.671 220.467L280.012 220.636L287.748 216.766L287.407 216.596L279.671 220.467Z" fill="#2C323D"/>
<path d="M278.925 220.095L279.265 220.265L287 216.395L286.66 216.225L278.925 220.095Z" fill="#2C323D"/>
<path d="M274.982 210.38L274.301 210.04L266.566 213.91L267.247 214.251L274.982 210.38Z" fill="#2C323D"/>
<path d="M279.032 212.408L278.351 212.068L270.616 215.938L271.297 216.279L279.032 212.408Z" fill="#2C323D"/>
<path d="M279.517 212.648L279.3 212.54L271.564 216.411L271.781 216.518L279.517 212.648Z" fill="#2C323D"/>
<path d="M279.961 212.873L279.744 212.764L272.009 216.635L272.226 216.743L279.961 212.873Z" fill="#2C323D"/>
<path d="M282.222 214.003L282.005 213.894L274.27 217.765L274.487 217.873L282.222 214.003Z" fill="#2C323D"/>
<path d="M275.722 210.752L275.382 210.581L267.646 214.452L267.987 214.622L275.722 210.752Z" fill="#2C323D"/>
<path d="M280.97 213.376L280.289 213.035L272.554 216.905L273.235 217.246L280.97 213.376Z" fill="#2C323D"/>
<path d="M281.71 213.748L281.37 213.577L273.634 217.447L273.975 217.618L281.71 213.748Z" fill="#2C323D"/>
<path d="M276.469 211.124L276.128 210.953L268.393 214.823L268.734 214.994L276.469 211.124Z" fill="#2C323D"/>
<path d="M277.209 211.495L276.869 211.325L269.133 215.195L269.473 215.366L277.209 211.495Z" fill="#2C323D"/>
<path d="M277.956 211.866L277.616 211.696L269.88 215.566L270.221 215.736L277.956 211.866Z" fill="#2C323D"/>
<path d="M24.1058 152.338L69.6754 175.138L97.2021 161.366L214.573 215.821L141.475 249.363L84.1557 222.684C78.4143 220.013 72.7591 217.159 67.198 214.127L24.1051 190.636L11.0998 162.376V161.366L24.1051 152.338" fill="#F3C456"/>
<path d="M155.418 234.284L141.48 249.363L170.816 237.717L155.418 234.284Z" fill="#DEA24E"/>
<path d="M141.476 249.363L137.83 223.032L155.414 234.284L141.476 249.363Z" fill="#EDB654"/>
<path d="M24.1056 190.636L28.6836 168.603L11.1001 162.376L24.1056 190.636Z" fill="#EDB654"/>
<path d="M82.8984 126.435L11.106 162.377L0.442108 157.546V156.536L72.2346 121.605L82.8984 125.425V126.435Z" fill="#BF8B43"/>
<path d="M82.8984 125.425L11.106 161.367L0.442108 156.537L72.2346 120.595L82.8984 125.425Z" fill="#FFE092"/>
<path d="M155.418 233.273V234.284L137.834 223.032L28.6857 168.604L11.1023 162.377V161.366L24.1077 152.338L134.212 192.271L155.419 233.273" fill="#BF8B43"/>
<path d="M240.256 204.893L168.464 240.834L155.415 234.284V233.273L227.207 198.342L240.256 203.882V204.892" fill="#BF8B43"/>
<path d="M240.256 203.882L168.464 239.823L155.415 233.273L227.207 197.331L240.256 203.882" fill="#FFE092"/>
<path d="M214.574 174.49L141.476 211.064L105.401 190.493C91.7338 182.7 77.6572 175.648 63.2321 169.369L24.1063 152.338L97.2039 115.764C97.2039 115.764 133.264 130.588 152.389 140.387C173.43 151.168 214.575 174.49 214.575 174.49" fill="#FFCF5A"/>
<path d="M227.21 197.329L214.577 174.488L141.479 211.062L155.417 233.27L227.209 197.329" fill="#F3B63D"/>
<path d="M186.9 225.961L180.762 222.204C179.809 221.621 179.027 220.795 178.496 219.812L167.336 199.135C167.056 198.616 166.643 198.181 166.139 197.874L156.936 192.271L149.782 195.556L159.263 201.593C159.724 201.888 160.107 202.291 160.375 202.768L171.93 223.293C172.425 224.171 173.122 224.919 173.963 225.473L179.875 229.369L186.9 225.961Z" fill="#50994B"/>
<path d="M129.621 196.272L143.021 189.567C143.475 189.34 143.475 188.971 143.021 188.745L116.998 175.724C116.545 175.497 115.809 175.497 115.356 175.724L101.956 182.429C101.502 182.656 101.502 183.024 101.956 183.251L127.978 196.272C128.432 196.498 129.167 196.498 129.621 196.272Z" fill="#2C323D"/>
<path d="M103.252 183.25L127.979 195.621C128.432 195.848 129.168 195.848 129.621 195.621L141.725 189.565C142.178 189.338 142.178 188.97 141.725 188.743L116.999 176.372C116.545 176.145 115.81 176.145 115.356 176.372L103.252 182.428C102.799 182.655 102.799 183.023 103.252 183.25Z" fill="white"/>
<path d="M127.293 193.848L128.244 194.324L139.051 188.916L138.099 188.44L127.293 193.848Z" fill="#2C323D"/>
<path d="M121.627 191.013L122.578 191.489L133.385 186.082L132.434 185.606L121.627 191.013Z" fill="#2C323D"/>
<path d="M120.955 190.676L121.257 190.828L132.064 185.42L131.761 185.27L120.955 190.676Z" fill="#2C323D"/>
<path d="M120.329 190.367L120.632 190.518L131.438 185.111L131.136 184.96L120.329 190.367Z" fill="#2C323D"/>
<path d="M117.173 188.784L117.476 188.936L128.283 183.529L127.981 183.378L117.173 188.784Z" fill="#2C323D"/>
<path d="M126.25 193.329L126.725 193.568L137.532 188.16L137.057 187.922L126.25 193.329Z" fill="#2C323D"/>
<path d="M118.923 189.66L119.874 190.136L130.681 184.729L129.73 184.253L118.923 189.66Z" fill="#2C323D"/>
<path d="M117.886 189.141L118.362 189.379L129.168 183.971L128.693 183.734L117.886 189.141Z" fill="#2C323D"/>
<path d="M125.214 192.811L125.69 193.049L136.496 187.642L136.02 187.404L125.214 192.811Z" fill="#2C323D"/>
<path d="M124.178 192.292L124.653 192.531L135.46 187.123L134.985 186.886L124.178 192.292Z" fill="#2C323D"/>
<path d="M123.142 191.767L123.617 192.005L134.424 186.598L133.949 186.36L123.142 191.767Z" fill="#2C323D"/>
<path d="M117.631 178.2L116.68 177.724L105.873 183.131L106.824 183.607L117.631 178.2Z" fill="#2C323D"/>
<path d="M123.29 181.034L122.339 180.558L111.532 185.965L112.483 186.441L123.29 181.034Z" fill="#2C323D"/>
<path d="M123.962 181.364L123.66 181.213L112.853 186.62L113.155 186.772L123.962 181.364Z" fill="#2C323D"/>
<path d="M124.588 181.681L124.286 181.529L113.479 186.937L113.781 187.088L124.588 181.681Z" fill="#2C323D"/>
<path d="M127.744 183.256L127.442 183.105L116.634 188.512L116.937 188.664L127.744 183.256Z" fill="#2C323D"/>
<path d="M118.667 178.718L118.191 178.481L107.385 183.888L107.86 184.126L118.667 178.718Z" fill="#2C323D"/>
<path d="M125.994 182.381L125.043 181.905L114.237 187.312L115.188 187.788L125.994 182.381Z" fill="#2C323D"/>
<path d="M127.03 182.906L126.555 182.669L115.748 188.075L116.224 188.314L127.03 182.906Z" fill="#2C323D"/>
<path d="M119.703 179.237L119.227 178.999L108.421 184.406L108.896 184.644L119.703 179.237Z" fill="#2C323D"/>
<path d="M120.739 179.755L120.264 179.517L109.456 184.924L109.932 185.163L120.739 179.755Z" fill="#2C323D"/>
<path d="M121.775 180.274L121.3 180.036L110.492 185.443L110.968 185.681L121.775 180.274Z" fill="#2C323D"/>
<path d="M111.434 145.867L130.094 136.489C130.549 136.262 130.549 135.894 130.094 135.667L104.072 122.646C103.618 122.42 102.883 122.42 102.429 122.646L83.7686 132.024C83.3151 132.251 83.3151 132.62 83.7686 132.847L109.791 145.867C110.245 146.094 110.98 146.094 111.434 145.867Z" fill="#961010"/>
<path d="M85.0655 132.845L109.791 145.217C110.245 145.444 110.98 145.444 111.434 145.217L128.798 136.488C129.251 136.261 129.251 135.893 128.798 135.666L104.071 123.294C103.618 123.067 102.882 123.067 102.429 123.294L85.0655 132.023C84.6113 132.25 84.6113 132.618 85.0655 132.845Z" fill="white"/>
<path d="M104.8 125.789L126.059 136.427L126.646 136.133L105.386 125.496L104.8 125.789Z" fill="#2C323D"/>
<path d="M103.413 126.482L124.673 137.119L125.259 136.826L103.999 126.189L103.413 126.482Z" fill="#2C323D"/>
<path d="M102.027 127.176L123.287 137.814L123.874 137.52L102.614 126.883L102.027 127.176Z" fill="#2C323D"/>
<path d="M100.648 127.869L121.907 138.506L122.494 138.213L101.234 127.576L100.648 127.869Z" fill="#2C323D"/>
<path d="M99.2621 128.563L120.522 139.201L121.108 138.907L99.8481 128.269L99.2621 128.563Z" fill="#2C323D"/>
<path d="M90.3603 130.354L103.761 137.059L104.347 136.765L90.9463 130.06L90.3603 130.354Z" fill="#2C323D"/>
<path d="M88.9745 131.047L102.375 137.752L102.961 137.459L89.5606 130.755L88.9745 131.047Z" fill="#2C323D"/>
<path d="M87.5883 131.741L100.989 138.446L101.575 138.152L88.1744 131.447L87.5883 131.741Z" fill="#2C323D"/>
<path d="M94.3504 128.563L118.559 140.675L118.244 140.833L94.0362 128.72L94.3504 128.563Z" fill="#961010"/>
<path d="M191.038 165.925L191.016 165.914L192.094 165.715C192.267 165.684 192.435 165.766 192.374 165.853L191.989 166.401L193.067 166.202C193.239 166.17 193.407 166.252 193.346 166.339L192.961 166.887L194.039 166.688C194.212 166.656 194.379 166.739 194.318 166.826L193.933 167.374L195.01 167.175C195.184 167.143 195.352 167.225 195.29 167.312L194.905 167.86L195.983 167.661C196.156 167.629 196.323 167.712 196.262 167.798L195.877 168.346L196.955 168.147C197.128 168.116 197.295 168.198 197.234 168.285L196.849 168.833L197.927 168.634C198.1 168.602 198.268 168.684 198.206 168.771L197.822 169.319L198.899 169.12C199.072 169.088 199.24 169.171 199.179 169.258L198.794 169.806L199.871 169.607C200.045 169.575 200.211 169.657 200.15 169.744L199.765 170.292L200.843 170.093C201.016 170.061 201.184 170.144 201.123 170.23L200.738 170.778L201.816 170.579C201.988 170.548 202.156 170.63 202.095 170.717L201.71 171.265L202.788 171.066C202.961 171.034 203.128 171.116 203.067 171.203L202.682 171.751L203.759 171.552C203.933 171.52 204.101 171.603 204.039 171.689L203.654 172.238L204.732 172.039C204.905 172.007 205.072 172.089 205.011 172.176L204.626 172.724L205.704 172.525C205.877 172.493 206.044 172.576 205.983 172.662L205.598 173.211L206.676 173.011C206.849 172.98 207.017 173.062 206.955 173.149L206.571 173.697L179.799 187.092L178.722 187.291C178.549 187.323 178.381 187.24 178.442 187.154L178.827 186.605L177.75 186.805C177.576 186.836 177.409 186.754 177.471 186.667L177.856 186.119L176.778 186.318C176.605 186.35 176.437 186.267 176.498 186.181L176.883 185.633L175.805 185.832C175.633 185.863 175.465 185.781 175.526 185.694L175.911 185.146L174.834 185.345C174.66 185.377 174.493 185.295 174.554 185.208L174.939 184.66L173.862 184.859C173.688 184.891 173.521 184.808 173.582 184.722L173.967 184.173L172.889 184.373C172.716 184.404 172.549 184.322 172.61 184.235L172.995 183.687L171.917 183.886C171.744 183.918 171.577 183.835 171.638 183.749L172.023 183.201L170.945 183.4C170.772 183.431 170.604 183.349 170.666 183.262L171.05 182.714L169.973 182.913C169.8 182.945 169.632 182.863 169.693 182.776L170.078 182.228L169.001 182.427C168.827 182.459 168.661 182.376 168.722 182.29L169.107 181.741L168.029 181.941C167.856 181.972 167.688 181.89 167.749 181.803L168.134 181.255L167.056 181.454C166.884 181.486 166.716 181.403 166.777 181.317L167.162 180.768L166.085 180.968C165.911 180.999 165.744 180.917 165.805 180.83L166.19 180.282L165.113 180.482C164.939 180.513 164.772 180.431 164.833 180.344L165.218 179.796L164.14 179.995C163.967 180.027 163.8 179.944 163.861 179.858L164.246 179.309L164.267 179.32L191.038 165.925Z" fill="white"/>
<path d="M175.159 181.634C177.939 183.025 182.447 183.025 185.228 181.634C188.008 180.243 188.008 177.986 185.228 176.595C182.447 175.204 177.939 175.204 175.159 176.595C172.378 177.986 172.378 180.243 175.159 181.634ZM185.764 176.327C188.84 177.866 188.84 180.362 185.764 181.902C182.687 183.441 177.7 183.441 174.623 181.902C171.546 180.362 171.546 177.866 174.623 176.327C177.7 174.788 182.687 174.788 185.764 176.327Z" fill="#259940"/>
<path d="M185.588 179.944L186.181 179.647L179.132 176.121L178.54 176.417L185.588 179.944Z" fill="#259940"/>
<path d="M184.061 180.705L184.653 180.408L177.604 176.881L177.012 177.178L184.061 180.705Z" fill="#259940"/>
<path d="M182.533 181.472L183.126 181.176L176.077 177.649L175.485 177.946L182.533 181.472Z" fill="#259940"/>
<path d="M181.006 182.233L181.599 181.937L174.55 178.41L173.957 178.706L181.006 182.233Z" fill="#259940"/>
<path d="M197.827 172.322L198.42 172.025L190.085 167.855L189.493 168.151L197.827 172.322Z" fill="#259940"/>
<path d="M196.3 173.083L196.893 172.786L188.558 168.616L187.966 168.913L196.3 173.083Z" fill="#259940"/>
<path d="M194.766 173.85L195.358 173.553L187.024 169.383L186.432 169.68L194.766 173.85Z" fill="#259940"/>
<path d="M193.238 174.611L193.831 174.315L185.497 170.145L184.904 170.441L193.238 174.611Z" fill="#259940"/>
<path d="M153.702 141.066V141.043C153.633 141.014 153.579 140.994 153.539 140.982C153.594 141.01 153.647 141.038 153.702 141.066Z" fill="#EBEBEB"/>
<path d="M181.221 234.449L240.26 204.892L181.221 234.449Z" fill="#D3D3D3"/>
<path d="M168.572 148.958C160.877 144.741 154.953 141.555 153.703 141.04V141.064C158.069 143.318 163.189 146.046 168.572 148.958Z" fill="#886641"/>
<path d="M181.221 234.449L240.26 204.893V203.882L181.22 233.439H181.221V234.45" fill="#B0803E"/>
<path d="M181.214 233.439L240.254 203.882L227.205 197.331L179.513 221.208C179.882 221.589 180.299 221.924 180.756 222.204L186.895 225.961L179.869 229.368L173.958 225.473C173.553 225.206 173.181 224.893 172.849 224.544L168.336 226.803L181.215 233.439" fill="#EBCE87"/>
<path d="M155.835 203.881L159.714 201.94C159.574 201.812 159.422 201.697 159.261 201.593L149.78 195.556L156.934 192.271L166.137 197.873C166.378 198.021 166.598 198.197 166.793 198.399L214.575 174.491C214.575 174.491 186.67 158.874 168.573 148.958C163.19 146.046 158.07 143.319 153.704 141.064C153.65 141.036 153.597 141.009 153.542 140.98H153.541L90.359 171.614L107.09 179.86L115.358 175.722C115.585 175.609 115.883 175.552 116.18 175.552C116.477 175.552 116.774 175.609 117.001 175.722L143.024 188.743C143.477 188.97 143.477 189.338 143.024 189.565L134.965 193.597L155.835 203.882V203.881ZM206.749 173.008C206.891 173.008 207.004 173.079 206.952 173.153L206.567 173.7L179.796 187.095L178.719 187.294C178.692 187.299 178.666 187.301 178.641 187.301C178.5 187.301 178.387 187.231 178.439 187.157L178.824 186.609L177.746 186.808C177.72 186.813 177.694 186.815 177.669 186.815C177.528 186.815 177.415 186.744 177.467 186.67L177.852 186.122L176.774 186.321C176.748 186.326 176.722 186.329 176.698 186.329C176.556 186.329 176.443 186.258 176.495 186.184L176.88 185.636L175.802 185.835C175.776 185.84 175.75 185.842 175.725 185.842C175.584 185.842 175.471 185.771 175.523 185.697L175.908 185.15L174.83 185.348C174.804 185.354 174.778 185.356 174.753 185.356C174.612 185.356 174.499 185.285 174.55 185.211L174.935 184.663L173.858 184.862C173.832 184.867 173.806 184.87 173.781 184.87C173.639 184.87 173.526 184.799 173.579 184.725L173.964 184.177L172.886 184.376C172.86 184.381 172.834 184.383 172.808 184.383C172.667 184.383 172.555 184.312 172.607 184.238L172.992 183.691L171.914 183.889C171.887 183.894 171.862 183.897 171.837 183.897C171.696 183.897 171.583 183.826 171.634 183.752L172.019 183.204L170.941 183.403C170.916 183.408 170.89 183.41 170.865 183.41C170.723 183.41 170.61 183.339 170.662 183.266L171.047 182.718L169.97 182.916C169.944 182.922 169.917 182.924 169.892 182.924C169.751 182.924 169.638 182.853 169.69 182.779L170.075 182.231L168.997 182.43C168.971 182.435 168.946 182.438 168.92 182.438C168.779 182.438 168.666 182.367 168.718 182.293L169.103 181.745L168.025 181.944C167.999 181.949 167.973 181.951 167.949 181.951C167.807 181.951 167.694 181.88 167.746 181.806L168.131 181.259L167.053 181.457C167.027 181.462 167.001 181.465 166.976 181.465C166.835 181.465 166.722 181.394 166.774 181.32L167.159 180.772L166.081 180.971C166.055 180.976 166.029 180.978 166.004 180.978C165.863 180.978 165.75 180.907 165.801 180.834L166.186 180.286L165.109 180.485C165.083 180.49 165.057 180.492 165.032 180.492C164.89 180.492 164.777 180.421 164.83 180.347L165.215 179.799L164.137 179.998C164.111 180.003 164.085 180.006 164.06 180.006C163.918 180.006 163.806 179.935 163.858 179.861L164.243 179.313L164.263 179.324L191.034 165.929L191.013 165.918L192.091 165.719C192.117 165.714 192.143 165.712 192.168 165.712C192.309 165.712 192.423 165.783 192.37 165.857L191.985 166.405L193.063 166.205C193.089 166.201 193.115 166.199 193.14 166.199C193.282 166.199 193.394 166.269 193.342 166.343L192.957 166.891L194.035 166.692C194.061 166.687 194.087 166.685 194.112 166.685C194.253 166.685 194.366 166.755 194.315 166.83L193.93 167.377L195.007 167.178C195.033 167.174 195.059 167.171 195.084 167.171C195.226 167.171 195.339 167.242 195.287 167.316L194.902 167.864L195.979 167.664C196.005 167.66 196.032 167.658 196.057 167.658C196.198 167.658 196.311 167.728 196.258 167.802L195.874 168.35L196.951 168.151C196.978 168.146 197.003 168.144 197.029 168.144C197.17 168.144 197.282 168.215 197.231 168.289L196.846 168.837L197.924 168.637C197.95 168.633 197.976 168.63 198.001 168.63C198.142 168.63 198.255 168.701 198.203 168.775L197.818 169.323L198.895 169.124C198.922 169.119 198.948 169.117 198.973 169.117C199.114 169.117 199.227 169.187 199.175 169.262L198.79 169.809L199.868 169.61C199.894 169.605 199.92 169.603 199.945 169.603C200.086 169.603 200.199 169.674 200.147 169.748L199.762 170.296L200.84 170.096C200.866 170.092 200.892 170.09 200.917 170.09C201.058 170.09 201.171 170.16 201.119 170.234L200.734 170.782L201.812 170.583C201.838 170.578 201.864 170.576 201.889 170.576C202.031 170.576 202.143 170.647 202.091 170.721L201.706 171.268L202.784 171.069C202.81 171.065 202.836 171.062 202.861 171.062C203.002 171.062 203.115 171.133 203.064 171.207L202.679 171.755L203.756 171.556C203.782 171.551 203.808 171.549 203.833 171.549C203.975 171.549 204.088 171.62 204.036 171.693L203.651 172.241L204.728 172.042C204.754 172.037 204.781 172.035 204.806 172.035C204.947 172.035 205.06 172.106 205.007 172.18L204.623 172.728L205.7 172.528C205.727 172.524 205.752 172.522 205.778 172.522C205.919 172.522 206.031 172.592 205.98 172.666L205.595 173.214L206.673 173.015C206.698 173.01 206.724 173.008 206.749 173.008Z" fill="#EBBF53"/>
<path d="M168.336 226.803L172.85 224.544C172.492 224.168 172.182 223.748 171.926 223.293L160.371 202.768C160.196 202.457 159.973 202.179 159.712 201.94L155.832 203.881V203.882L168.336 226.803V226.803ZM179.514 221.208L227.206 197.332L214.573 174.491L166.791 198.399C167.003 198.617 167.185 198.865 167.331 199.135L178.492 219.812C178.768 220.324 179.113 220.793 179.514 221.208" fill="#E0A838"/>
<path d="M179.875 229.368L186.9 225.961L180.762 222.204C180.305 221.924 179.888 221.589 179.519 221.208C179.118 220.793 178.773 220.324 178.497 219.812L167.336 199.135C167.19 198.865 167.008 198.617 166.796 198.399C166.601 198.197 166.381 198.021 166.139 197.873L156.937 192.271L149.782 195.556L159.263 201.593C159.425 201.697 159.576 201.812 159.717 201.94C159.978 202.179 160.201 202.457 160.376 202.768L171.931 223.293C172.187 223.748 172.497 224.168 172.855 224.544C173.186 224.894 173.559 225.206 173.964 225.473L179.875 229.368Z" fill="#4A8D45"/>
<path d="M134.963 193.599L143.022 189.566C143.475 189.339 143.475 188.971 143.022 188.744L116.999 175.723C116.772 175.61 116.475 175.554 116.178 175.554C115.881 175.554 115.583 175.61 115.356 175.723L107.088 179.861L107.741 180.183L115.356 176.372C115.583 176.259 115.881 176.202 116.178 176.202C116.475 176.202 116.772 176.259 116.999 176.372L141.725 188.744C142.179 188.971 142.179 189.339 141.725 189.566L134.31 193.276L134.963 193.599Z" fill="#292E38"/>
<path d="M134.31 193.275L141.726 189.565C142.179 189.338 142.179 188.97 141.726 188.743L117 176.372C116.773 176.259 116.475 176.201 116.179 176.201C115.881 176.201 115.584 176.259 115.357 176.372L107.742 180.182L109.767 181.18L116.676 177.724L117.627 178.199L110.725 181.653L111.292 181.931L118.188 178.481L118.664 178.718L111.771 182.168L112.337 182.446L119.226 179L119.702 179.237L112.816 182.683L113.382 182.961L120.263 179.519L120.739 179.756L113.861 183.198L114.427 183.477L121.301 180.038L121.777 180.276L114.906 183.713L115.473 183.992L122.339 180.557L123.289 181.033L116.431 184.464L116.801 184.647L123.657 181.217L123.959 181.368L117.106 184.797L117.433 184.958L124.284 181.53L124.586 181.681L117.738 185.108L118.195 185.334L125.04 181.908L125.991 182.384L119.153 185.806L119.719 186.085L126.553 182.666L127.028 182.904L120.198 186.321L120.613 186.525L127.439 183.109L127.741 183.26L120.917 186.675L121.157 186.793L127.98 183.38L128.282 183.531L121.462 186.943L121.876 187.147L128.693 183.736L129.168 183.974L122.355 187.384L122.921 187.663L129.73 184.256L130.681 184.732L123.879 188.135L124.336 188.36L131.135 184.959L131.437 185.11L124.641 188.51L124.968 188.671L131.762 185.272L132.064 185.423L125.273 188.821L125.643 189.004L132.432 185.607L133.383 186.083L126.601 189.476L127.168 189.755L133.945 186.364L134.42 186.602L127.647 189.992L128.212 190.27L134.983 186.884L135.458 187.121L128.692 190.507L129.258 190.785L136.019 187.403L136.495 187.64L129.737 191.022L130.303 191.3L137.057 187.922L137.533 188.159L130.782 191.537L131.349 191.816L138.094 188.44L139.046 188.916L132.307 192.288L134.31 193.275Z" fill="#EBEBEB"/>
<path d="M132.306 192.286L139.045 188.914L138.094 188.438L131.348 191.814L132.306 192.286Z" fill="#292E38"/>
<path d="M126.6 189.478L133.382 186.084L132.431 185.608L125.642 189.005L126.6 189.478Z" fill="#292E38"/>
<path d="M125.275 188.818L132.066 185.42L131.764 185.269L124.97 188.668L125.275 188.818Z" fill="#292E38"/>
<path d="M124.642 188.508L131.438 185.108L131.136 184.957L124.337 188.358L124.642 188.508Z" fill="#292E38"/>
<path d="M121.466 186.946L128.286 183.534L127.984 183.382L121.161 186.796L121.466 186.946Z" fill="#292E38"/>
<path d="M130.785 191.538L137.536 188.161L137.06 187.923L130.306 191.302L130.785 191.538Z" fill="#292E38"/>
<path d="M123.882 188.131L130.684 184.728L129.733 184.252L122.923 187.659L123.882 188.131Z" fill="#292E38"/>
<path d="M122.354 187.384L129.167 183.974L128.692 183.737L121.875 187.148L122.354 187.384Z" fill="#292E38"/>
<path d="M129.742 191.02L136.5 187.638L136.025 187.401L129.263 190.783L129.742 191.02Z" fill="#292E38"/>
<path d="M128.692 190.508L135.458 187.123L134.983 186.885L128.213 190.272L128.692 190.508Z" fill="#292E38"/>
<path d="M127.65 189.99L134.423 186.6L133.948 186.362L127.171 189.753L127.65 189.99Z" fill="#292E38"/>
<path d="M110.728 181.654L117.629 178.2L116.678 177.725L109.769 181.181L110.728 181.654Z" fill="#292E38"/>
<path d="M116.433 184.462L123.292 181.03L122.341 180.554L115.475 183.99L116.433 184.462Z" fill="#292E38"/>
<path d="M117.106 184.798L123.96 181.369L123.657 181.218L116.802 184.648L117.106 184.798Z" fill="#292E38"/>
<path d="M117.739 185.108L124.587 181.682L124.285 181.53L117.434 184.958L117.739 185.108Z" fill="#292E38"/>
<path d="M120.921 186.677L127.745 183.262L127.443 183.11L120.616 186.526L120.921 186.677Z" fill="#292E38"/>
<path d="M111.77 182.166L118.664 178.716L118.188 178.479L111.291 181.929L111.77 182.166Z" fill="#292E38"/>
<path d="M119.151 185.802L125.989 182.38L125.038 181.904L118.193 185.33L119.151 185.802Z" fill="#292E38"/>
<path d="M120.201 186.32L127.031 182.903L126.556 182.665L119.722 186.084L120.201 186.32Z" fill="#292E38"/>
<path d="M112.82 182.684L119.706 179.239L119.23 179.001L112.341 182.448L112.82 182.684Z" fill="#292E38"/>
<path d="M113.863 183.196L120.741 179.754L120.265 179.517L113.384 182.959L113.863 183.196Z" fill="#292E38"/>
<path d="M114.906 183.714L121.776 180.277L121.301 180.039L114.427 183.479L114.906 183.714Z" fill="#292E38"/>
<path d="M178.644 187.303C178.669 187.303 178.695 187.301 178.721 187.296L179.799 187.097L206.57 173.702L206.954 173.155C207.006 173.081 206.893 173.01 206.752 173.01C206.727 173.01 206.701 173.012 206.675 173.017L205.597 173.216L205.982 172.668C206.034 172.594 205.922 172.524 205.78 172.524C205.755 172.524 205.729 172.526 205.703 172.53L204.625 172.73L205.01 172.182C205.062 172.108 204.949 172.037 204.808 172.037C204.783 172.037 204.757 172.039 204.731 172.044L203.654 172.243L204.038 171.695C204.09 171.621 203.977 171.551 203.836 171.551C203.811 171.551 203.785 171.553 203.758 171.558L202.681 171.757L203.066 171.209C203.118 171.135 203.005 171.064 202.864 171.064C202.839 171.064 202.812 171.067 202.787 171.071L201.709 171.27L202.094 170.723C202.146 170.649 202.033 170.578 201.891 170.578C201.866 170.578 201.841 170.58 201.815 170.585L200.737 170.784L201.122 170.236C201.173 170.162 201.061 170.092 200.92 170.092C200.894 170.092 200.869 170.094 200.842 170.098L199.764 170.298L200.149 169.75C200.202 169.676 200.089 169.605 199.948 169.605C199.923 169.605 199.896 169.607 199.87 169.612L198.793 169.811L199.178 169.264C199.23 169.189 199.117 169.119 198.975 169.119C198.95 169.119 198.924 169.121 198.898 169.125L197.821 169.325L198.206 168.777C198.257 168.703 198.144 168.632 198.004 168.632C197.978 168.632 197.953 168.635 197.926 168.639L196.848 168.839L197.233 168.291C197.285 168.217 197.173 168.146 197.031 168.146C197.006 168.146 196.98 168.148 196.954 168.153L195.876 168.352L196.261 167.804C196.313 167.73 196.2 167.66 196.059 167.66C196.034 167.66 196.008 167.662 195.982 167.666L194.905 167.866L195.289 167.318C195.341 167.244 195.228 167.173 195.087 167.173C195.062 167.173 195.036 167.176 195.01 167.18L193.932 167.379L194.317 166.831C194.369 166.757 194.256 166.687 194.115 166.687C194.09 166.687 194.063 166.689 194.038 166.693L192.96 166.893L193.345 166.345C193.397 166.271 193.284 166.201 193.142 166.201C193.117 166.201 193.092 166.203 193.066 166.207L191.988 166.407L192.373 165.859C192.425 165.784 192.312 165.714 192.171 165.714C192.145 165.714 192.12 165.716 192.093 165.721L191.016 165.92L191.037 165.931L164.266 179.326L164.245 179.315L163.86 179.863C163.808 179.937 163.921 180.008 164.062 180.008C164.088 180.008 164.113 180.005 164.14 180L165.217 179.801L164.833 180.349C164.78 180.423 164.893 180.494 165.034 180.494C165.059 180.494 165.086 180.492 165.112 180.487L166.189 180.288L165.804 180.836C165.752 180.909 165.865 180.98 166.007 180.98C166.032 180.98 166.058 180.978 166.084 180.973L167.161 180.774L166.776 181.322C166.725 181.396 166.838 181.467 166.979 181.467C167.004 181.467 167.03 181.464 167.056 181.459L168.134 181.261L167.749 181.808C167.697 181.882 167.809 181.953 167.951 181.953C167.976 181.953 168.002 181.951 168.028 181.946L169.106 181.747L168.721 182.295C168.668 182.369 168.781 182.44 168.923 182.44C168.948 182.44 168.974 182.437 169 182.432L170.077 182.233L169.692 182.781C169.641 182.855 169.754 182.926 169.895 182.926C169.92 182.926 169.946 182.924 169.972 182.918L171.05 182.72L170.665 183.268C170.613 183.341 170.726 183.412 170.867 183.412C170.892 183.412 170.918 183.41 170.944 183.405L172.022 183.206L171.637 183.754C171.585 183.828 171.698 183.899 171.84 183.899C171.864 183.899 171.89 183.896 171.916 183.891L172.994 183.693L172.609 184.24C172.557 184.314 172.67 184.385 172.811 184.385C172.837 184.385 172.862 184.383 172.888 184.378L173.966 184.179L173.582 184.727C173.529 184.801 173.642 184.872 173.783 184.872C173.808 184.872 173.834 184.869 173.861 184.864L174.938 184.665L174.553 185.213C174.501 185.287 174.614 185.358 174.756 185.358C174.781 185.358 174.807 185.356 174.833 185.35L175.91 185.152L175.525 185.699C175.474 185.773 175.587 185.844 175.728 185.844C175.753 185.844 175.779 185.842 175.805 185.837L176.882 185.638L176.498 186.186C176.446 186.26 176.558 186.331 176.7 186.331C176.725 186.331 176.751 186.328 176.777 186.323L177.855 186.124L177.47 186.672C177.417 186.746 177.53 186.817 177.672 186.817C177.697 186.817 177.723 186.815 177.749 186.81L178.826 186.611L178.441 187.159C178.39 187.233 178.503 187.303 178.644 187.303ZM180.195 175.175C182.211 175.175 184.227 175.56 185.765 176.329C188.842 177.869 188.842 180.365 185.765 181.904C184.227 182.673 182.211 183.058 180.195 183.058C178.179 183.058 176.163 182.673 174.625 181.904C171.548 180.365 171.548 177.869 174.625 176.329C176.163 175.56 178.179 175.175 180.195 175.175ZM185.502 170.148L193.836 174.317L193.243 174.614L184.909 170.444L185.502 170.148ZM187.03 169.383L195.364 173.553L194.771 173.849L186.438 169.679L187.03 169.383ZM188.558 168.618L196.892 172.788L196.299 173.085L187.966 168.915L188.558 168.618ZM190.086 167.854L198.42 172.023L197.827 172.32L189.494 168.15L190.086 167.854ZM180.195 182.679C182.017 182.679 183.84 182.331 185.23 181.636C188.01 180.245 188.01 177.988 185.23 176.597C183.84 175.902 182.017 175.554 180.195 175.554C178.373 175.554 176.551 175.902 175.161 176.597C172.38 177.988 172.38 180.245 175.161 181.636C176.551 182.331 178.373 182.679 180.195 182.679ZM174.551 178.414L181.6 181.941L181.007 182.237L173.958 178.71L174.551 178.414ZM176.079 177.649L183.128 181.176L182.535 181.472L175.486 177.946L176.079 177.649ZM177.607 176.885L184.656 180.412L184.064 180.708L177.015 177.181L177.607 176.885ZM179.135 176.12L186.184 179.647L185.591 179.943L178.543 176.416L179.135 176.12Z" fill="#EBEBEB"/>
<path d="M180.192 183.054C182.208 183.054 184.224 182.67 185.762 181.9C188.838 180.361 188.838 177.865 185.762 176.326C184.224 175.556 182.208 175.172 180.192 175.172C178.176 175.172 176.16 175.556 174.622 176.326C171.545 177.865 171.545 180.361 174.622 181.9C176.16 182.67 178.176 183.054 180.192 183.054ZM180.192 175.551C182.014 175.551 183.836 175.898 185.227 176.594C188.007 177.985 188.007 180.241 185.227 181.632C183.836 182.328 182.014 182.676 180.192 182.676C178.37 182.676 176.548 182.328 175.158 181.632C172.377 180.241 172.377 177.985 175.158 176.594C176.548 175.898 178.37 175.551 180.192 175.551Z" fill="#228D3B"/>
<path d="M185.588 179.944L186.181 179.647L179.132 176.121L178.54 176.417L185.588 179.944Z" fill="#228D3B"/>
<path d="M184.061 180.705L184.653 180.408L177.604 176.881L177.012 177.178L184.061 180.705Z" fill="#228D3B"/>
<path d="M182.533 181.472L183.126 181.176L176.077 177.649L175.485 177.946L182.533 181.472Z" fill="#228D3B"/>
<path d="M181.006 182.233L181.599 181.937L174.55 178.41L173.957 178.706L181.006 182.233Z" fill="#228D3B"/>
<path d="M197.827 172.322L198.42 172.025L190.085 167.855L189.493 168.151L197.827 172.322Z" fill="#228D3B"/>
<path d="M196.3 173.083L196.893 172.786L188.558 168.616L187.966 168.913L196.3 173.083Z" fill="#228D3B"/>
<path d="M194.766 173.85L195.358 173.553L187.024 169.383L186.432 169.68L194.766 173.85Z" fill="#228D3B"/>
<path d="M193.238 174.611L193.831 174.315L185.497 170.145L184.904 170.441L193.238 174.611Z" fill="#228D3B"/>
<path d="M209.265 100.647C210.066 100.647 210.792 100.004 210.792 99.1188V81.5863L165.067 58.7023L164.508 58.7831V76.8253C164.508 77.9208 165.125 78.922 166.104 79.4128L208.582 100.484C208.806 100.596 209.039 100.647 209.265 100.647Z" fill="#856440"/>
<path d="M211.25 81.3365L256.391 56.5692L238.961 47.9656L165.81 58.5946L211.25 81.3365ZM270.824 48.6497L283.997 41.4223L262.507 44.5445L270.824 48.6497Z" fill="#AA8C52"/>
<path d="M210.793 81.5856L211.02 81.4611L165.436 58.6478L165.068 58.7016L210.793 81.5856ZM211.02 81.4611L211.247 81.3358L165.807 58.5939L165.436 58.6478L211.02 81.4611Z" fill="#C9B793"/>
<path d="M211.021 81.4645L165.438 58.6512L211.021 81.4645Z" fill="#857461"/>
<path d="M256.391 56.5652L270.825 48.6456L262.508 44.5404L238.962 47.9616L256.391 56.5652Z" fill="#E5DDC0"/>
<path d="M227.863 24.6769V69.509L232.844 67.0171V22.185L227.863 24.6769Z" fill="#21599C"/>
<path d="M248.485 22.3203V59.1844L253.466 56.6918V24.8123L248.485 22.3203Z" fill="#21599C"/>
<path d="M217.548 29.8345V74.6666L222.529 72.174V27.3419L217.548 29.8345Z" fill="#9C2121"/>
<path d="M157.275 58.5716C156.539 58.9393 156.733 60.8622 157.468 61.2299L160.432 62.7125V58.4161L157.275 58.5716Z" fill="#9C2121"/>
<path d="M196.704 40.2641V80.8577L199.608 82.3107C200.17 82.5922 200.997 82.6575 201.685 82.5094V37.7722L196.704 40.2641Z" fill="#9C2121"/>
<path d="M241.858 19.0076C241.123 18.6399 239.931 18.6399 239.197 19.0076L238.177 19.5179V64.35L243.158 61.8581V19.658L241.858 19.0076Z" fill="#9C2121"/>
<path d="M186.389 45.4285V75.7015L191.37 78.1934V42.9359L186.389 45.4285Z" fill="#21599C"/>
<path d="M165.766 55.7438V65.3769L170.747 67.8688V53.2518L165.766 55.7438Z" fill="#21599C"/>
<path d="M279.652 43.597L283.997 41.4222C284.733 41.0539 285.013 39.1956 284.277 38.828L279.652 37.9156V43.597Z" fill="#9C2121"/>
<path d="M269.337 32.7567V48.7581L274.318 46.2661V35.2493L269.337 32.7567Z" fill="#21599C"/>
<path d="M258.8 27.4846V54.0281L264.002 51.4251V30.0877L258.8 27.4846Z" fill="#9C2121"/>
<path d="M176.074 50.5861V70.5392L181.055 73.0318V48.0942L176.074 50.5861Z" fill="#9C2121"/>
<path d="M207.011 35.1066V79.9387L212.214 77.3356V32.5035L207.011 35.1066Z" fill="#21599C"/>
<path d="M160.43 58.4168V62.7132L165.762 65.3815V55.7484L160.43 58.4168Z" fill="#D4D4D4"/>
<path d="M170.745 53.2524V67.8695L176.077 70.5372V50.5841L170.745 53.2524Z" fill="#D4D4D4"/>
<path d="M181.06 48.0948V73.0324L186.391 75.7001V45.4271L181.06 48.0948Z" fill="#D4D4D4"/>
<path d="M191.368 42.9372V78.1948L196.7 80.8631V40.2695L191.368 42.9372Z" fill="#D4D4D4"/>
<path d="M201.683 37.7728V82.51C201.895 82.4642 202.094 82.3982 202.268 82.3114L207.014 79.9366V35.1045L201.683 37.7728Z" fill="#D4D4D4"/>
<path d="M212.219 32.5008V77.3329L217.551 74.6652V29.8331L212.219 32.5008Z" fill="#D4D4D4"/>
<path d="M222.527 27.3432V72.1753L227.859 69.5076V24.6755L222.527 27.3432Z" fill="#D4D4D4"/>
<path d="M232.842 22.1856V67.0177L238.173 64.3493V19.5172L232.842 22.1856Z" fill="#D4D4D4"/>
<path d="M243.156 19.6539V61.8541L248.489 59.1864V22.3223L243.156 19.6539Z" fill="#D4D4D4"/>
<path d="M253.471 24.8182V56.6978L258.803 54.0301V27.4866L253.471 24.8182Z" fill="#D4D4D4"/>
<path d="M264.001 30.0903V51.4277L269.333 48.7594V32.758L264.001 30.0903Z" fill="#D4D4D4"/>
<path d="M274.316 35.2479V46.2647L279.648 43.597V37.9156L274.316 35.2479Z" fill="#D4D4D4"/>
<path d="M277.343 41.4223L202.268 78.9853C201.532 79.3529 200.341 79.3529 199.606 78.9853L164.121 61.2299C163.385 60.8623 163.385 60.2664 164.121 59.8988L239.197 22.3351C239.931 21.9675 241.123 21.9675 241.858 22.3351L277.343 40.0905C278.078 40.4581 278.078 41.054 277.343 41.4223Z" fill="white"/>
<path d="M227.863 23.236V68.0681L232.844 65.5762V20.7441L227.863 23.236Z" fill="#3082E3"/>
<path d="M248.485 20.8794V57.7435L253.466 55.2515V23.372L248.485 20.8794Z" fill="#3082E3"/>
<path d="M217.548 28.3936V73.2257L222.529 70.7338V25.9017L217.548 28.3936Z" fill="#E33030"/>
<path d="M157.47 58.4572C156.734 58.8248 156.734 59.4213 157.47 59.789L160.433 61.2716V56.9745L157.47 58.4572Z" fill="#E33030"/>
<path d="M196.704 38.8233V79.4168L199.608 80.8705C200.17 81.1513 200.997 81.2173 201.685 81.0685V36.3313L196.704 38.8233Z" fill="#E33030"/>
<path d="M241.858 17.5599C241.123 17.1923 239.931 17.1923 239.197 17.5599L238.177 18.0703V62.9024L243.158 60.4098V18.2103L241.858 17.5599Z" fill="#E33030"/>
<path d="M186.389 43.9876V74.2612L191.37 76.7532V41.4956L186.389 43.9876Z" fill="#3082E3"/>
<path d="M165.766 54.3028V63.9353L170.747 66.4272V51.8102L165.766 54.3028Z" fill="#3082E3"/>
<path d="M279.651 42.1562L283.997 39.9814C284.733 39.6137 284.733 39.0172 283.997 38.6495L279.651 36.4747V42.1562Z" fill="#E33030"/>
<path d="M269.337 31.3158V47.3171L274.318 44.8245V33.8077L269.337 31.3158Z" fill="#3082E3"/>
<path d="M258.8 26.0437V52.5872L264.002 49.9841V28.6467L258.8 26.0437Z" fill="#E33030"/>
<path d="M176.074 49.1452V69.0983L181.055 71.5902V46.6533L176.074 49.1452Z" fill="#E33030"/>
<path d="M207.011 33.6657V78.4978L212.214 75.8941V31.0626L207.011 33.6657Z" fill="#3082E3"/>
<path d="M160.43 56.9691V61.2662L165.762 63.9339V54.3014L160.43 56.9691Z" fill="white"/>
<path d="M170.745 51.8115V66.4286L176.077 69.0969V49.1439L170.745 51.8115Z" fill="white"/>
<path d="M181.06 46.6539V71.5909L186.391 74.2592V43.9856L181.06 46.6539Z" fill="white"/>
<path d="M191.368 41.4896V76.7471L196.7 79.4148V38.8212L191.368 41.4896Z" fill="white"/>
<path d="M201.683 36.332V81.0692C201.895 81.0234 202.094 80.9581 202.268 80.8712L207.014 78.4964V33.6643L201.683 36.332Z" fill="white"/>
<path d="M212.219 31.0599V75.8914L217.551 73.2237V28.3916L212.219 31.0599Z" fill="white"/>
<path d="M222.527 25.9023V70.7344L227.859 68.0661V23.234L222.527 25.9023Z" fill="white"/>
<path d="M232.842 20.738V65.5701L238.173 62.9024V18.0703L232.842 20.738Z" fill="white"/>
<path d="M243.156 18.213V60.4125L248.489 57.7448V20.8807L243.156 18.213Z" fill="white"/>
<path d="M253.471 23.3706V55.2501L258.803 52.5818V26.0383L253.471 23.3706Z" fill="white"/>
<path d="M264.001 28.6427V49.9801L269.333 47.3124V31.311L264.001 28.6427Z" fill="white"/>
<path d="M274.316 33.8071V44.8239L279.648 42.1562V36.4747L274.316 33.8071Z" fill="white"/>
<path d="M277.343 39.9814L202.268 77.545C201.532 77.9126 200.341 77.9126 199.606 77.545L164.121 59.7897C163.385 59.422 163.385 58.8255 164.121 58.4578L239.197 20.8942C239.931 20.5266 241.123 20.5266 241.858 20.8942L277.343 38.6496C278.078 39.0172 278.078 39.6137 277.343 39.9814Z" fill="white"/>
<path d="M181.78 62.8135L172.433 58.1367L179.369 54.6664L188.715 59.3433L181.78 62.8135Z" fill="#21599C"/>
<path d="M188.454 59.3392L181.782 62.6768L172.7 58.1326L179.372 54.795L188.454 59.3392Z" fill="#80CDFF"/>
<path d="M176.397 59.9856C176.397 59.9856 180.872 59.4651 182.21 58.6302C183.547 57.7959 183.688 56.9576 183.688 56.9576L186.041 58.1346L179.37 61.4729L176.397 59.9856Z" fill="#2085C7"/>
<path d="M179.007 61.2919C179.007 61.2919 183.251 59.2672 183.482 56.8547L188.453 59.3419L181.781 62.6796L179.007 61.2919Z" fill="#3899D9"/>
<path d="M176.444 57.629C176.137 57.5138 175.7 57.5253 175.421 57.6646C175.155 57.798 175.121 58.002 175.316 58.1541C175.161 58.1777 175.018 58.2255 174.911 58.2982C174.717 58.4302 174.711 58.6134 174.896 58.7487L174.902 58.7527C175.072 58.8733 175.423 58.8847 175.631 58.7803L176.054 58.5682L176.308 58.4417L176.831 58.1804L176.992 58.0996L177.32 57.9353C177.482 57.8545 177.492 57.7205 177.331 57.6384L177.327 57.637C177.084 57.5152 176.694 57.5125 176.444 57.629Z" fill="white"/>
<path d="M180.265 57.8377C180.118 57.7825 179.908 57.7879 179.774 57.8552C179.647 57.9192 179.63 58.0168 179.723 58.0902C179.649 58.101 179.581 58.1246 179.529 58.1596C179.436 58.2229 179.433 58.3104 179.522 58.3757L179.525 58.3777C179.606 58.4356 179.775 58.441 179.875 58.3905L180.078 58.2888L180.2 58.2282L180.451 58.1023L180.528 58.064L180.686 57.9852C180.764 57.9461 180.768 57.8822 180.691 57.8424L180.69 57.8418C180.573 57.7832 180.385 57.7818 180.265 57.8377Z" fill="white"/>
<path d="M180.346 56.0265C180.116 55.9397 179.788 55.9484 179.579 56.0534C179.38 56.1531 179.353 56.3066 179.5 56.4204C179.384 56.4386 179.276 56.4743 179.196 56.5288C179.05 56.6278 179.045 56.7658 179.184 56.8668L179.188 56.8702C179.316 56.9611 179.579 56.9692 179.736 56.891L180.054 56.7322L180.244 56.6365L180.637 56.4406L180.758 56.38L181.004 56.2568C181.126 56.1955 181.134 56.0952 181.013 56.0339L181.01 56.0326C180.828 55.941 180.534 55.939 180.346 56.0265Z" fill="white"/>
<path d="M189.147 54.2893C190.609 53.4759 192.813 52.6027 196.044 52.0532C195.941 52.0707 195.829 52.0431 195.793 51.9913C195.758 51.9394 195.814 51.8836 195.917 51.8661C192.435 52.4579 190.118 53.418 188.623 54.2886C188.798 54.2859 188.973 54.2866 189.147 54.2893Z" fill="#21599C"/>
<path d="M196.165 51.9327L196.118 52.0351L196.041 52.0587C198.953 51.5638 201.052 50.8117 202.536 50.069C203.317 49.6785 203.928 49.29 204.396 48.9439C205.87 47.8545 206.285 46.9549 206.302 46.9172C206.326 46.864 206.259 46.8115 206.153 46.7994C206.046 46.7873 205.94 46.8209 205.916 46.8741C205.912 46.8829 205.501 47.7743 204.068 48.8328C202.744 49.8118 200.255 51.1335 195.914 51.8715C196.018 51.8533 196.13 51.8816 196.165 51.9327Z" fill="#21599C"/>
<path d="M195.788 51.9933C195.823 52.0452 195.936 52.0728 196.039 52.0553L196.116 52.0317L196.163 51.9294C196.128 51.8782 196.015 51.8499 195.912 51.8681C195.809 51.8856 195.753 51.9415 195.788 51.9933Z" fill="#21599C"/>
<path d="M198.285 53.1784C198.181 53.1959 198.069 53.1683 198.034 53.1164C197.998 53.0646 198.054 53.0087 198.157 52.9912C195.667 53.414 193.771 54.0261 192.345 54.659C192.477 54.6886 192.608 54.7196 192.736 54.7526C194.113 54.1547 195.923 53.5797 198.285 53.1784Z" fill="#21599C"/>
<path d="M198.412 53.0504L198.365 53.1521L198.289 53.1757C201.2 52.6808 203.299 51.9287 204.782 51.186C205.563 50.7955 206.174 50.407 206.643 50.0609C208.117 48.9715 208.532 48.0726 208.549 48.0349C208.573 47.981 208.506 47.9285 208.399 47.9164C208.292 47.9043 208.187 47.9379 208.163 47.9911C208.159 47.9999 207.747 48.8913 206.315 49.9498C204.991 50.9288 202.501 52.2505 198.161 52.9885C198.264 52.971 198.377 52.9986 198.412 53.0504Z" fill="#21599C"/>
<path d="M198.035 53.1177C198.07 53.1696 198.182 53.1972 198.286 53.1797L198.362 53.1561L198.41 53.0544C198.374 53.0026 198.262 52.975 198.158 52.9925C198.055 53.01 197.999 53.0659 198.035 53.1177Z" fill="#21599C"/>
<path d="M200.532 54.3028C200.428 54.3203 200.316 54.2927 200.281 54.2409C200.246 54.189 200.301 54.1331 200.405 54.1156C198.153 54.4981 196.388 55.0354 195.017 55.6023C195.109 55.6501 195.198 55.6986 195.285 55.7484C196.621 55.197 198.34 54.6758 200.532 54.3028Z" fill="#21599C"/>
<path d="M200.653 54.1749L200.605 54.2766L200.529 54.3001C203.441 53.8052 205.539 53.0531 207.023 52.3105C207.804 51.92 208.415 51.5314 208.883 51.1853C210.358 50.0959 210.773 49.1971 210.789 49.1594C210.814 49.1055 210.746 49.053 210.64 49.0408C210.534 49.0287 210.428 49.0624 210.404 49.1156C210.4 49.1243 209.988 50.0158 208.556 51.0743C207.232 52.0533 204.742 53.375 200.402 54.1129C200.506 54.0954 200.617 54.123 200.653 54.1749Z" fill="#21599C"/>
<path d="M200.276 54.2355C200.311 54.2873 200.423 54.3149 200.527 54.2974L200.603 54.2738L200.651 54.1722C200.615 54.1203 200.503 54.0927 200.4 54.1102C200.296 54.1277 200.24 54.1836 200.276 54.2355Z" fill="#21599C"/>
<path d="M202.523 55.3599C202.488 55.308 202.544 55.2522 202.647 55.2346C200.111 55.6656 198.192 56.2924 196.758 56.9375C196.812 57.0041 196.863 57.0708 196.91 57.1375C198.321 56.4897 200.227 55.8548 202.774 55.4218C202.671 55.4393 202.558 55.4117 202.523 55.3599Z" fill="#21599C"/>
<path d="M212.885 50.1619C212.779 50.1498 212.673 50.1835 212.649 50.2367C212.645 50.2454 212.233 51.1369 210.801 52.1953C209.477 53.1743 206.987 54.4961 202.647 55.234C202.751 55.2165 202.863 55.2441 202.898 55.296L202.851 55.3976L202.774 55.4212C205.686 54.9263 207.785 54.1742 209.269 53.4322C210.05 53.041 210.66 52.6532 211.128 52.3064C212.603 51.217 213.018 50.3181 213.035 50.2804C213.059 50.2272 212.992 50.174 212.885 50.1619Z" fill="#21599C"/>
<path d="M202.894 55.2993C202.859 55.2475 202.746 55.2199 202.642 55.2374C202.538 55.2549 202.483 55.3108 202.518 55.3626C202.553 55.4144 202.666 55.4421 202.77 55.4246L202.846 55.401L202.894 55.2993Z" fill="#21599C"/>
<path d="M194.537 55.71C191.41 54.1452 186.341 54.1452 183.214 55.71C180.087 57.2741 180.087 59.8112 183.214 61.3753C186.341 62.9401 191.41 62.9401 194.537 61.3753C197.663 59.8112 197.663 57.2741 194.537 55.71ZM194.892 55.5323C198.215 57.1947 198.215 59.8906 194.892 61.5531C191.569 63.2155 186.181 63.2155 182.859 61.5531C179.536 59.8906 179.536 57.1947 182.859 55.5323C186.181 53.8692 191.569 53.8692 194.892 55.5323Z" fill="#21599C"/>
<path d="M192.41 56.7738C190.456 55.7962 187.29 55.7962 185.336 56.7738C183.383 57.7508 183.383 59.3358 185.336 60.3128C187.29 61.2905 190.456 61.2905 192.41 60.3128C194.364 59.3358 194.364 57.7508 192.41 56.7738ZM192.791 56.5826C194.955 57.6653 194.955 59.4213 192.791 60.504C190.627 61.5861 187.119 61.5861 184.955 60.504C182.791 59.4213 182.791 57.6653 184.955 56.5826C187.119 55.4999 190.627 55.4999 192.791 56.5826Z" fill="#21599C"/>
<path d="M184.478 60.7464C184.665 60.8393 184.665 60.9908 184.478 61.0844C184.292 61.1773 183.989 61.1773 183.802 61.0844C183.616 60.9908 183.616 60.8393 183.802 60.7464C183.989 60.6528 184.292 60.6528 184.478 60.7464Z" fill="#21599C"/>
<path d="M193.945 56.0063C194.131 56.0999 194.131 56.2514 193.945 56.3443C193.758 56.4379 193.456 56.4379 193.269 56.3443C193.082 56.2514 193.082 56.0999 193.269 56.0063C193.456 55.9134 193.758 55.9134 193.945 56.0063Z" fill="#21599C"/>
<path d="M186.167 58.8005C186.354 58.8941 186.354 59.0456 186.167 59.1385C185.98 59.2321 185.678 59.2321 185.491 59.1385C185.305 59.0456 185.305 58.8941 185.491 58.8005C185.678 58.7076 185.98 58.7076 186.167 58.8005Z" fill="#21599C"/>
<path d="M188.111 57.8242C188.298 57.9178 188.298 58.0693 188.111 58.1622C187.925 58.2558 187.623 58.2558 187.436 58.1622C187.249 58.0693 187.249 57.9178 187.436 57.8242C187.623 57.7313 187.925 57.7313 188.111 57.8242Z" fill="#21599C"/>
<path d="M190.056 56.8479C190.243 56.9415 190.243 57.093 190.056 57.1859C189.869 57.2795 189.567 57.2795 189.38 57.1859C189.194 57.093 189.194 56.9415 189.38 56.8479C189.567 56.755 189.869 56.755 190.056 56.8479Z" fill="#21599C"/>
<path d="M188.589 60.0125C188.775 60.1061 188.775 60.2569 188.589 60.3505C188.402 60.4441 188.1 60.4441 187.913 60.3505C187.727 60.2569 187.727 60.1061 187.913 60.0125C188.1 59.9189 188.402 59.9189 188.589 60.0125Z" fill="#21599C"/>
<path d="M190.54 59.0362C190.726 59.1298 190.726 59.2806 190.54 59.3742C190.354 59.4678 190.051 59.4678 189.864 59.3742C189.678 59.2806 189.678 59.1298 189.864 59.0362C190.051 58.9426 190.354 58.9426 190.54 59.0362Z" fill="#21599C"/>
<path d="M192.485 58.0667C192.671 58.1603 192.671 58.3111 192.485 58.4047C192.298 58.4983 191.996 58.4983 191.809 58.4047C191.623 58.3111 191.623 58.1603 191.809 58.0667C191.996 57.9731 192.298 57.9731 192.485 58.0667Z" fill="#21599C"/>
<path d="M242.389 24.5153L221.674 34.8796L221.03 34.5571L241.745 24.1921L242.389 24.5153Z" fill="#21599C"/>
<path d="M244.421 25.532L223.707 35.897L223.062 35.5745L243.777 25.2095L244.421 25.532Z" fill="#21599C"/>
<path d="M246.453 26.5487L225.738 36.913L225.094 36.5905L245.809 26.2255L246.453 26.5487Z" fill="#21599C"/>
<path d="M248.485 27.5654L227.77 37.9304L227.125 37.6079L247.841 27.2429L248.485 27.5654Z" fill="#21599C"/>
<path d="M215.691 59.8846L194.975 70.2496L194.331 69.9271L215.046 59.5621L215.691 59.8846Z" fill="#21599C"/>
<path d="M217.723 60.9013L197.008 71.2656L196.363 70.9431L217.078 60.5788L217.723 60.9013Z" fill="#21599C"/>
<path d="M219.755 61.918L199.04 72.283L198.395 71.9605L219.11 61.5955L219.755 61.918Z" fill="#21599C"/>
<path d="M221.793 62.9347L201.079 73.2997L200.434 72.9772L221.149 62.6122L221.793 62.9347Z" fill="#21599C"/>
<path d="M236.67 56.5584L236.193 56.7974L232.868 55.133L233.345 54.8946L236.67 56.5584Z" fill="#21599C"/>
<path d="M238.016 55.8851L237.539 56.1241L234.213 54.4604L234.69 54.2214L238.016 55.8851Z" fill="#21599C"/>
<path d="M239.361 55.2051L238.884 55.4441L237.641 54.8219L238.118 54.5836L239.361 55.2051Z" fill="#21599C"/>
<path d="M240.707 54.5317L240.23 54.7701L238.987 54.1486L239.464 53.9096L240.707 54.5317Z" fill="#21599C"/>
<path d="M242.053 53.8584L241.576 54.0974L240.332 53.4753L240.809 53.2362L242.053 53.8584Z" fill="#21599C"/>
<path d="M243.398 53.1851L242.921 53.4241L241.679 52.802L242.156 52.563L243.398 53.1851Z" fill="#21599C"/>
<path d="M244.744 52.5118L244.267 52.7501L243.024 52.128L243.501 51.8897L244.744 52.5118Z" fill="#21599C"/>
<path d="M246.097 51.8384L245.62 52.0768L244.376 51.4553L244.854 51.2163L246.097 51.8384Z" fill="#21599C"/>
<path d="M247.442 51.1652L246.965 51.4042L243.639 49.7397L244.117 49.5014L247.442 51.1652Z" fill="#21599C"/>
<path d="M248.788 50.4918L248.311 50.7308L244.985 49.0671L245.463 48.828L248.788 50.4918Z" fill="#21599C"/>
<path d="M250.134 49.8185L249.656 50.0569L248.413 49.4347L248.89 49.1964L250.134 49.8185Z" fill="#21599C"/>
<path d="M251.479 49.1452L251.002 49.3835L249.759 48.7621L250.237 48.5231L251.479 49.1452Z" fill="#21599C"/>
<path d="M252.825 48.4719L252.347 48.7109L249.022 47.0464L249.499 46.8081L252.825 48.4719Z" fill="#21599C"/>
<path d="M254.177 47.7986L253.7 48.0376L252.457 47.4155L252.935 47.1771L254.177 47.7986Z" fill="#21599C"/>
<path d="M255.523 47.1252L255.045 47.3636L251.72 45.6998L252.197 45.4608L255.523 47.1252Z" fill="#21599C"/>
<path d="M256.869 46.4519L256.392 46.6909L253.066 45.0265L253.543 44.7881L256.869 46.4519Z" fill="#21599C"/>
<path d="M258.214 45.7786L257.737 46.0176L254.411 44.3532L254.888 44.1148L258.214 45.7786Z" fill="#21599C"/>
<path d="M259.56 45.0986L259.083 45.3376L255.757 43.6738L256.234 43.4348L259.56 45.0986Z" fill="#21599C"/>
<path d="M260.906 44.4253L260.429 44.6636L259.186 44.0422L259.663 43.8031L260.906 44.4253Z" fill="#21599C"/>
<path d="M262.251 43.7519L261.774 43.991L260.531 43.3688L261.008 43.1298L262.251 43.7519Z" fill="#21599C"/>
<path d="M263.597 43.0786L263.12 43.3176L261.877 42.6955L262.354 42.4565L263.597 43.0786Z" fill="#21599C"/>
<path d="M264.95 42.4053L264.473 42.6443L263.229 42.0222L263.706 41.7838L264.95 42.4053Z" fill="#21599C"/>
<path d="M266.295 41.732L265.818 41.9703L264.576 41.3489L265.053 41.1098L266.295 41.732Z" fill="#21599C"/>
<path d="M267.641 41.0586L267.164 41.2977L263.838 39.6332L264.315 39.3949L267.641 41.0586Z" fill="#21599C"/>
</svg>
