<svg width="16" height="16" viewBox="0 0 16 16" fill="none" xmlns="http://www.w3.org/2000/svg">
<path d="M7.13081 10.2361L6.37861 9.46459C6.37861 9.46459 4.23774 10.2939 2.07758 8.15307C0.245305 6.32079 1.05537 3.44701 2.25117 2.27049C3.52412 0.997539 6.2436 0.226054 8.23018 2.21263C10.2168 4.1992 9.36812 6.55223 9.36812 6.55223L14.8264 11.9912L14.6721 14.8264L11.8947 15L11.7404 13.6113L10.2939 13.4377L10.1589 11.9912L8.73164 11.7983L8.51948 10.4097L7.13081 10.2361ZM3.00337 3.04198C2.15473 3.89061 1.92329 5.02855 2.48261 5.56859C3.04194 6.12792 4.16059 5.89647 5.00923 5.04784C5.85786 4.1992 6.10859 3.06126 5.54927 2.52122C5.00923 1.9619 3.852 2.19334 3.00337 3.04198ZM14.1706 13.0713L14.2092 12.2612L9.02095 7.07299L8.59663 7.4973L14.1706 13.0713Z" fill="white"/>
</svg>
