<svg width="16" height="16" viewBox="0 0 16 16" fill="none" xmlns="http://www.w3.org/2000/svg">
<path d="M7.99991 0.380981C3.78657 0.380981 0.380859 3.7867 0.380859 8.00003C0.380859 12.2134 3.78657 15.6191 7.99991 15.6191C12.2132 15.6191 15.619 12.2134 15.619 8.00003C15.619 3.7867 12.2132 0.380981 7.99991 0.380981ZM10.3618 4.24384C10.4685 4.24384 10.5751 4.28193 10.6666 4.36574L11.6342 5.33336C11.8094 5.50098 11.8094 5.76765 11.6342 5.92765L10.8723 6.68955L9.31038 5.12765L10.0723 4.36574C10.1485 4.28193 10.2551 4.24384 10.3618 4.24384ZM8.86086 5.56955L10.4304 7.13908L5.81324 11.7562H4.24372V10.1867L8.86086 5.56955V5.56955Z" fill="#EF9105"/>
</svg>
