<svg width="148" height="148" viewBox="0 0 148 148" fill="none" xmlns="http://www.w3.org/2000/svg">
<g opacity="0.5" clip-path="url(#clip0_60:185)">
<path d="M137.908 145.832H10.0745C8.73444 145.832 8.11239 144.169 9.12351 143.29L39.3531 116.996C39.8806 116.537 40.5558 116.285 41.2551 116.285H106.727C107.426 116.285 108.101 116.537 108.629 116.996L138.859 143.29C139.87 144.169 139.248 145.832 137.908 145.832Z" fill="#EEEEEE"/>
<path d="M73.9913 132.858C86.9898 132.858 97.5272 131.087 97.5272 128.904C97.5272 126.72 86.9898 124.95 73.9913 124.95C60.9928 124.95 50.4554 126.72 50.4554 128.904C50.4554 131.087 60.9928 132.858 73.9913 132.858Z" fill="#BDBDBD"/>
<path d="M63.1604 116.285H73.9914V145.832H63.1604V116.285Z" fill="#F8F3F1"/>
<path d="M73.9916 124.95V132.856C70.0863 132.856 66.4037 132.697 63.1604 132.414V125.393C66.4037 125.109 70.0863 124.95 73.9916 124.95Z" fill="#EFE2DD"/>
<path d="M53.4885 116.285V145.832H33.954V121.693L39.3536 116.996C39.8797 116.536 40.5561 116.285 41.2556 116.285H53.4885Z" fill="#B9ACAC"/>
<path d="M53.4886 126.962V130.847C51.5576 130.272 50.4563 129.61 50.4563 128.905C50.4563 128.2 51.5576 127.535 53.4886 126.962Z" fill="#9E9797"/>
<path d="M137.909 145.831H124.674C126.015 145.831 126.635 144.17 125.624 143.289L95.3954 116.996C94.8679 116.538 94.1926 116.283 93.4943 116.283H106.726C107.425 116.283 108.1 116.538 108.628 116.996L138.859 143.289C139.871 144.17 139.247 145.831 137.909 145.831Z" fill="#BDBDBD"/>
<path d="M110.79 118.875C108.724 120.942 90.7746 138.907 83.8739 145.832H103.867C109.76 139.966 115.639 134.087 121.499 128.19L110.79 118.875Z" fill="#F8F3F1"/>
<path d="M121.499 128.19L110.789 118.876C108.737 120.928 106.685 122.98 104.634 125.032L115.354 134.356C117.403 132.302 119.453 130.249 121.499 128.19Z" fill="#EFE2DD"/>
<path d="M114.041 56.2794C114.041 34.0636 95.9533 16.0727 73.7011 16.2303C51.8823 16.3846 34.0732 34.2137 33.9417 56.0325C33.8703 67.8891 38.9516 78.5593 47.0776 85.9366C59.2555 96.9925 67.8553 111.433 71.9879 127.353C72.5241 129.419 75.458 129.419 75.9942 127.353L75.9945 127.352C80.1517 111.337 88.9475 96.9508 101.118 85.7418C109.063 78.4235 114.041 67.9333 114.041 56.2794Z" fill="#EEEEEE"/>
<path d="M51.6909 31.831C51.6909 35.7651 48.5025 38.9506 44.5684 38.9506C42.4235 38.9506 40.5012 38.0025 39.1976 36.5023C41.5476 32.3947 44.6002 28.738 48.1932 25.7029C50.286 26.9401 51.6909 29.2237 51.6909 31.831Z" fill="#BDBDBD"/>
<path d="M114.04 56.2779C114.04 67.9336 109.065 78.4243 101.118 85.7415C88.9471 96.9508 80.1517 111.336 75.993 127.35V127.353C75.7265 128.388 74.8571 128.904 73.9905 128.904C73.1239 128.904 72.2547 128.388 71.9879 127.353C70.9678 123.421 69.6725 119.578 68.1191 115.854C72.9181 104.453 80.1774 94.1947 89.3553 85.7412C97.2986 78.4237 102.277 67.9333 102.277 56.2776C102.277 36.1599 87.4484 19.5082 68.1217 16.6624C69.9445 16.3901 71.8081 16.245 73.7002 16.2305C95.9544 16.0716 114.04 34.0622 114.04 56.2779Z" fill="#BDBDBD"/>
<path d="M73.9911 74.6477C84.1357 74.6477 92.3595 66.4239 92.3595 56.2793C92.3595 46.1347 84.1357 37.9109 73.9911 37.9109C63.8465 37.9109 55.6227 46.1347 55.6227 56.2793C55.6227 66.4239 63.8465 74.6477 73.9911 74.6477Z" fill="#EAF9FA"/>
<path d="M92.358 56.2779C92.358 66.4238 84.1364 74.648 73.9908 74.648C72.142 74.648 70.3539 74.3757 68.6701 73.8627C76.2194 71.5849 81.7167 64.5718 81.7167 56.2779C81.7167 47.984 76.2191 40.9738 68.6701 38.6931C70.3539 38.1829 72.142 37.9106 73.9908 37.9106C84.1364 37.9106 92.358 46.1352 92.358 56.2779Z" fill="#D4F2F6"/>
<path d="M124.263 17.5184L121.718 24.4569C121.084 26.1875 118.647 26.2167 117.971 24.5018L110.253 4.9167C109.61 3.28585 111.222 1.67349 112.853 2.31635L132.438 10.0342C134.153 10.71 134.124 13.1473 132.393 13.7818L125.455 16.3264C124.902 16.5293 124.466 16.9652 124.263 17.5184Z" fill="#70D9E6"/>
<path d="M132.392 13.782L129.691 14.7729L111.279 7.51843L110.253 4.91547C109.609 3.28519 111.221 1.67312 112.853 2.31541L132.437 10.0335C134.153 10.7111 134.125 13.1467 132.392 13.782Z" fill="#22C7DB"/>
<path d="M44.5695 31.8309C48.5018 31.8309 51.6894 28.6432 51.6894 24.711C51.6894 20.7788 48.5018 17.5911 44.5695 17.5911C40.6373 17.5911 37.4496 20.7788 37.4496 24.711C37.4496 28.6432 40.6373 31.8309 44.5695 31.8309Z" fill="#BCEA73"/>
<path d="M51.6891 24.7094C51.6891 28.643 48.5004 31.8316 44.57 31.8316C43.2522 31.8316 42.0159 31.4738 40.9585 30.8456C43.7534 30.2013 45.8358 27.6992 45.8358 24.7091C45.8358 21.7222 43.7566 19.2169 40.9617 18.5726C42.0191 17.9479 43.2522 17.5901 44.57 17.5901C48.5004 17.5904 51.6891 20.779 51.6891 24.7094Z" fill="#99D53B"/>
<path d="M132.259 81.7676C136.191 81.7676 139.379 78.5799 139.379 74.6477C139.379 70.7155 136.191 67.5278 132.259 67.5278C128.327 67.5278 125.139 70.7155 125.139 74.6477C125.139 78.5799 128.327 81.7676 132.259 81.7676Z" fill="#BCEA73"/>
<path d="M139.379 74.6462C139.379 78.5797 136.19 81.7684 132.259 81.7684C130.942 81.7684 129.705 81.4105 128.648 80.7824C131.443 80.1381 133.525 77.636 133.525 74.6459C133.525 71.659 131.446 69.1537 128.651 68.5094C129.709 67.8847 130.942 67.5269 132.259 67.5269C136.19 67.5269 139.379 70.7155 139.379 74.6462Z" fill="#99D53B"/>
<path d="M29.4689 14.0387C32.7462 14.0387 35.4031 11.3819 35.4031 8.10457C35.4031 4.82723 32.7462 2.17041 29.4689 2.17041C26.1915 2.17041 23.5347 4.82723 23.5347 8.10457C23.5347 11.3819 26.1915 14.0387 29.4689 14.0387Z" fill="#A8E7EF"/>
<path d="M35.4027 8.104C35.4027 11.3825 32.7451 14.0399 29.4694 14.0399C28.3713 14.0399 27.3408 13.7416 26.4594 13.2181C28.7887 12.6813 30.5245 10.5957 30.5245 8.10371C30.5245 5.6143 28.7916 3.52611 26.4623 2.98932C27.3437 2.46872 28.3713 2.17041 29.4697 2.17041C32.7451 2.1707 35.4027 4.82805 35.4027 8.104Z" fill="#70D9E6"/>
<path d="M140.281 141.654L110.052 115.36C109.13 114.559 107.949 114.117 106.727 114.117H83.0187C85.1309 109.537 87.661 105.149 90.5825 101.003C91.4893 100.88 92.4007 100.753 93.3118 100.623C94.4972 100.453 95.3204 99.3548 95.1507 98.1697C95.0455 97.4343 94.5819 96.8383 93.9624 96.5322C96.5885 93.2849 99.4669 90.2097 102.587 87.3364C105.676 84.4912 108.319 81.211 110.442 77.5865C111.047 76.5535 110.701 75.2255 109.667 74.6202C108.634 74.015 107.306 74.3618 106.701 75.3949C104.795 78.6485 102.423 81.5935 99.6493 84.1473C95.3817 88.0779 91.5399 92.3669 88.159 96.9513C87.7703 97.0022 87.3821 97.0525 86.997 97.1013C85.8093 97.2522 84.9687 98.3376 85.1199 99.5254C85.1731 99.9445 85.3433 100.32 85.5928 100.624C80.3481 108.545 76.4216 117.247 73.9912 126.445C71.8317 118.265 68.5514 110.536 64.2679 103.45C64.2824 103.45 64.2968 103.449 64.3113 103.449C65.5074 103.399 66.437 102.389 66.3873 101.192C66.3376 99.9963 65.3316 99.062 64.1309 99.1164C63.2533 99.1528 62.3847 99.1823 61.5262 99.2066C57.7959 93.7833 53.4476 88.7913 48.5354 84.3314C40.5742 77.1038 36.0453 66.794 36.11 56.0455C36.1583 48.0163 38.7002 40.3959 43.4625 33.9297C43.8258 33.9731 44.1949 33.9979 44.5698 33.9979C49.6911 33.9979 53.8575 29.8315 53.8575 24.7102C53.8575 24.5527 53.8535 24.396 53.8457 24.2405C58.3457 21.3979 63.4531 19.5127 68.6873 18.7719C69.8727 18.6039 70.6977 17.507 70.53 16.3215C70.3621 15.1361 69.2663 14.3106 68.0797 14.4788C62.6313 15.25 57.3077 17.1318 52.544 19.9544C50.9204 17.2422 47.9544 15.422 44.5701 15.422C39.4489 15.422 35.2824 19.5884 35.2824 24.71C35.2824 27.8618 36.8621 30.6504 39.2697 32.3304C34.4101 39.3252 31.8259 47.4645 31.7744 56.0191C31.7559 59.1077 32.0803 62.1633 32.7202 65.1366C31.0605 65.8624 29.5247 66.629 28.1468 67.4213C27.1088 68.0179 26.7512 69.3432 27.3478 70.3812C27.7488 71.0787 28.4786 71.4689 29.2293 71.4689C29.5958 71.4689 29.9673 71.3759 30.3078 71.1799C31.3857 70.5602 32.578 69.9546 33.8646 69.3721C36.1207 76.2763 40.1398 82.565 45.6211 87.5414C49.7844 91.3211 53.5208 95.5046 56.7952 100.023C56.4634 100.408 56.2636 100.91 56.2694 101.458C56.2818 102.648 57.2499 103.604 58.4368 103.604H58.4599C58.7171 103.601 58.9802 103.596 59.2406 103.592C61.4091 106.945 63.3343 110.462 65.0024 114.117H41.2558C40.034 114.117 38.8532 114.559 37.9311 115.36L25.1998 126.434C24.2965 127.22 24.2012 128.589 24.9871 129.493C25.4158 129.986 26.0179 130.238 26.6237 130.238C27.1284 130.238 27.6352 130.063 28.0456 129.706L31.7869 126.452V143.664H11.9969L20.0101 136.694C20.9134 135.909 21.0091 134.539 20.2232 133.636C19.4375 132.732 18.0682 132.637 17.1646 133.423L7.70121 141.654C6.55134 142.654 6.1536 144.223 6.68749 145.65C7.22138 147.078 8.55133 148 10.0752 148H137.908C139.432 148 140.762 147.078 141.296 145.65C141.83 144.223 141.431 142.654 140.281 141.654ZM44.5695 19.7581C47.3 19.7581 49.5214 21.9798 49.5214 24.7102C49.5214 27.4407 47.3 29.6621 44.5695 29.6621C41.8391 29.6621 39.6177 27.4407 39.6177 24.7102C39.6177 21.9798 41.8391 19.7581 44.5695 19.7581ZM89.0979 143.664C96.063 136.683 106.821 125.914 110.893 121.839L118.328 128.305C113.442 133.216 108.394 138.265 102.972 143.664H89.0979ZM78.09 127.909C78.0909 127.905 78.0921 127.901 78.0932 127.897C78.928 124.681 79.9576 121.53 81.1685 118.453H106.727C106.904 118.453 107.074 118.517 107.207 118.632L107.615 118.987C102.693 123.913 89.2239 137.396 82.9745 143.665H76.1597V130.485C77.0913 129.936 77.7949 129.034 78.09 127.909ZM69.8898 127.897C70.1832 129.028 70.8885 129.934 71.8236 130.485V143.664H65.3279V118.453H66.8339C68.0291 121.52 69.0524 124.671 69.8898 127.897ZM60.992 143.664H55.6569V118.453H60.992V143.664ZM36.1222 122.68L40.7763 118.632C40.9089 118.516 41.0792 118.453 41.2555 118.453H51.3213V143.664H36.1222V122.68ZM109.114 143.664C113.464 139.326 117.59 135.195 121.606 131.157L135.986 143.664H109.114Z" fill="black"/>
<path d="M78.8128 18.7031C97.6605 21.0962 111.874 37.2507 111.874 56.2793C111.874 59.5644 111.451 62.8308 110.616 65.9873C110.31 67.1447 111 68.3312 112.158 68.6374C112.343 68.6865 112.53 68.7099 112.713 68.7099C113.673 68.7099 114.551 68.0673 114.808 67.0955C115.738 63.5774 116.21 59.9382 116.21 56.2793C116.21 54.4872 116.094 52.7184 115.874 50.9794C117.466 50.4123 118.956 49.8195 120.316 49.211C121.409 48.7219 121.898 47.4394 121.409 46.3464C120.92 45.2538 119.637 44.7639 118.544 45.2535C117.481 45.7293 116.325 46.1964 115.097 46.6494C111.149 29.8367 97.0954 16.6537 79.3592 14.4016C78.1697 14.2516 77.0863 15.0916 76.9354 16.2793C76.7845 17.4671 77.6251 18.5522 78.8128 18.7031Z" fill="black"/>
<path d="M53.455 56.2792C53.455 67.603 62.6675 76.8153 73.9914 76.8153C85.3152 76.8153 94.5274 67.6027 94.5274 56.2792C94.5274 44.9557 85.3149 35.7432 73.9914 35.7432C62.6678 35.7432 53.455 44.9554 53.455 56.2792ZM73.9914 40.0787C82.9241 40.0787 90.1915 47.3462 90.1915 56.2789C90.1915 65.2116 82.9241 72.4791 73.9914 72.4791C65.0583 72.4791 57.7909 65.2116 57.7909 56.2789C57.7909 47.3462 65.0583 40.0787 73.9914 40.0787Z" fill="black"/>
<path d="M130.003 30.281C130.112 31.4014 131.055 32.2391 132.158 32.2391C132.228 32.2391 132.299 32.2356 132.371 32.2287C133.562 32.1128 134.434 31.0525 134.318 29.861C134.112 27.7378 133.603 25.654 132.807 23.6678C132.362 22.5564 131.1 22.0164 129.989 22.4618C128.877 22.9073 128.337 24.1693 128.783 25.2805C129.426 26.8848 129.836 28.5674 130.003 30.281Z" fill="black"/>
<path d="M125.458 41.1284C124.539 41.8953 124.415 43.2623 125.182 44.1818C125.611 44.6957 126.227 44.9611 126.848 44.9611C127.338 44.9611 127.83 44.796 128.236 44.4578C130.041 42.9518 131.47 41.2897 132.483 39.5183C133.078 38.4789 132.717 37.1544 131.677 36.5604C130.638 35.9663 129.313 36.3268 128.719 37.3663C127.964 38.6879 126.866 39.9537 125.458 41.1284Z" fill="black"/>
<path d="M34.9434 101.508C35.1134 101.549 35.2836 101.569 35.4513 101.569C36.4306 101.569 37.3189 100.9 37.5577 99.9065C37.8372 98.7422 37.1201 97.5717 35.9557 97.2922C34.0407 96.8326 32.2843 96.2866 30.7352 95.6703C29.6226 95.2272 28.362 95.7703 27.9192 96.8829C27.4764 97.9952 28.0192 99.2561 29.1315 99.699C30.8723 100.392 32.8278 101.001 34.9434 101.508Z" fill="black"/>
<path d="M49.6547 103.441C49.692 103.443 49.7295 103.444 49.7665 103.444C50.9132 103.444 51.8709 102.545 51.9299 101.386C51.9906 100.191 51.0708 99.1719 49.8749 99.1112C47.9053 99.0109 46.0064 98.8635 44.2313 98.6724C43.0401 98.545 41.972 99.4055 41.8439 100.596C41.7159 101.787 42.5773 102.855 43.7676 102.984C45.6231 103.183 47.6038 103.337 49.6547 103.441Z" fill="black"/>
<path d="M78.4305 98.077C76.4877 98.2716 74.564 98.4444 72.7123 98.591C71.5188 98.6855 70.6279 99.7296 70.7221 100.923C70.812 102.059 71.7613 102.92 72.8808 102.92C72.9383 102.92 72.9962 102.918 73.0543 102.913C74.9358 102.764 76.8898 102.589 78.8621 102.391C80.0536 102.272 80.9225 101.21 80.8034 100.018C80.6841 98.8266 79.6206 97.9582 78.4305 98.077Z" fill="black"/>
<path d="M19.0506 81.7824C19.2689 81.8518 19.49 81.8847 19.7074 81.8847C20.6266 81.8847 21.4799 81.2953 21.773 80.3723C22.2523 78.8631 23.0582 77.4228 24.1685 76.0908C24.9351 75.171 24.8111 73.804 23.8916 73.0374C22.9718 72.2711 21.6048 72.3945 20.8382 73.3143C19.3666 75.0796 18.2907 77.0126 17.6406 79.0597C17.2781 80.2009 17.9094 81.4199 19.0506 81.7824Z" fill="black"/>
<path d="M21.0937 94.6309C21.5183 95.0657 22.0814 95.2839 22.6445 95.2839C23.1909 95.2839 23.7378 95.0787 24.1592 94.6668C25.0157 93.83 25.0319 92.4575 24.1951 91.601C23.0142 90.3921 22.2052 89.0763 21.7216 87.5781C21.3539 86.4386 20.132 85.8122 18.9928 86.1805C17.8533 86.5482 17.2275 87.77 17.5952 88.9092C18.2794 91.0301 19.4565 92.9552 21.0937 94.6309Z" fill="black"/>
<path d="M106.906 94.0382C105.017 94.3764 103.107 94.7051 101.232 95.0144C100.05 95.2092 99.2503 96.325 99.4454 97.5064C99.6206 98.5684 100.54 99.3217 101.582 99.3217C101.699 99.3217 101.818 99.3122 101.937 99.2925C103.833 98.9797 105.761 98.6482 107.67 98.3062C108.849 98.0952 109.633 96.9687 109.422 95.7899C109.212 94.6114 108.085 93.8272 106.906 94.0382Z" fill="black"/>
<path d="M121.018 91.242C120.997 91.2466 118.905 91.7213 115.394 92.4277C114.22 92.6636 113.459 93.8069 113.695 94.9805C113.902 96.0101 114.807 96.7215 115.818 96.7215C115.96 96.7215 116.104 96.7076 116.248 96.6787C119.82 95.9604 121.893 95.4898 121.98 95.4701C123.147 95.2045 123.878 94.0427 123.612 92.8752C123.347 91.7077 122.186 90.9755 121.018 91.242Z" fill="black"/>
<path d="M115.953 25.2962C116.588 26.9065 118.107 27.9393 119.834 27.9393C119.851 27.9393 119.868 27.9393 119.886 27.939C121.633 27.9182 123.152 26.8443 123.753 25.2034L126.272 18.336L133.14 15.8171C134.781 15.2153 135.854 13.6972 135.875 11.9492C135.896 10.2013 134.859 8.65804 133.232 8.01691L113.648 0.299096C112.078 -0.320064 110.361 0.0372106 109.167 1.23044C107.973 2.42395 107.616 4.14066 108.235 5.71111L115.953 25.2962ZM131.245 11.8937L124.709 14.2909C123.555 14.7138 122.651 15.618 122.228 16.7716V16.7719L119.831 23.308L112.407 4.47048L131.245 11.8937Z" fill="black"/>
<path d="M122.971 74.6468C122.971 79.768 127.138 83.9345 132.259 83.9345C137.38 83.9345 141.547 79.768 141.547 74.6468C141.547 69.5256 137.38 65.3591 132.259 65.3591C127.138 65.3591 122.971 69.5253 122.971 74.6468ZM137.211 74.6468C137.211 77.3772 134.99 79.5986 132.259 79.5986C129.529 79.5986 127.307 77.3772 127.307 74.6468C127.307 71.9164 129.529 69.695 132.259 69.695C134.99 69.695 137.211 71.9161 137.211 74.6468Z" fill="black"/>
<path d="M132.869 105.539C132.022 104.692 130.649 104.692 129.803 105.539L128.648 106.694L127.493 105.539C126.647 104.692 125.274 104.692 124.427 105.539C123.581 106.386 123.581 107.758 124.427 108.605L125.582 109.76L124.427 110.915C123.581 111.761 123.581 113.134 124.427 113.98C124.851 114.404 125.406 114.615 125.96 114.615C126.515 114.615 127.07 114.404 127.493 113.98L128.648 112.826L129.803 113.98C130.226 114.404 130.781 114.615 131.336 114.615C131.89 114.615 132.445 114.404 132.869 113.98C133.715 113.134 133.715 111.761 132.869 110.915L131.714 109.76L132.869 108.605C133.715 107.758 133.715 106.386 132.869 105.539Z" fill="black"/>
<path d="M18.3558 35.1522C18.7789 35.5754 19.3339 35.7873 19.8887 35.7873C20.4434 35.7873 20.9984 35.5757 21.4216 35.1522L23.6202 32.9536L25.8188 35.1522C26.242 35.5757 26.797 35.7873 27.3517 35.7873C27.9064 35.7873 28.4614 35.5757 28.8846 35.1522C29.7312 34.3055 29.7312 32.9328 28.8846 32.0864L26.686 29.8878L28.8846 27.6892C29.7312 26.8425 29.7312 25.4698 28.8846 24.6234C28.0379 23.7767 26.6652 23.7767 25.8188 24.6234L23.6202 26.822L21.4216 24.6234C20.5749 23.7764 19.2021 23.7767 18.3558 24.6234C17.5091 25.4701 17.5091 26.8428 18.3558 27.6892L20.5544 29.8878L18.3558 32.0864C17.5091 32.9331 17.5091 34.3058 18.3558 35.1522Z" fill="black"/>
<path d="M29.4691 16.2063C33.9365 16.2063 37.5708 12.5717 37.5708 8.10437C37.5708 3.637 33.9365 0.00268555 29.4691 0.00268555C25.0017 0.00268555 21.3671 3.637 21.3671 8.10466C21.3671 12.5723 25.0017 16.2063 29.4691 16.2063ZM29.4691 4.33854C31.5457 4.33854 33.2349 6.02808 33.2349 8.10466C33.2349 10.1812 31.5457 11.8708 29.4691 11.8708C27.3925 11.8708 25.703 10.1812 25.703 8.10466C25.703 6.02808 27.3925 4.33854 29.4691 4.33854Z" fill="black"/>
</g>
<defs>
<clipPath id="clip0_60:185">
<rect width="148" height="148" fill="white"/>
</clipPath>
</defs>
</svg>
