<svg width="14" height="14" viewBox="0 0 14 14" fill="none" xmlns="http://www.w3.org/2000/svg">
<path d="M6.99992 0C7.12679 5.35009e-06 7.24936 0.0459504 7.34498 0.129338C7.44059 0.212726 7.50277 0.327916 7.52003 0.453605L7.52493 0.525006V1.77662C8.73014 1.89768 9.85642 2.43175 10.7129 3.28832C11.5693 4.14489 12.1032 5.27124 12.2241 6.47647L12.25 6.47507H13.475C13.608 6.47512 13.7361 6.52565 13.8333 6.61646C13.9304 6.70727 13.9896 6.83159 13.9986 6.9643C14.0077 7.097 13.966 7.22821 13.8821 7.33139C13.7982 7.43458 13.6782 7.50206 13.5464 7.52019L13.475 7.52509L12.2234 7.52439C12.1025 8.72972 11.5685 9.85617 10.7119 10.7127C9.85531 11.5693 8.72886 12.1033 7.52353 12.2242L7.52493 12.2501V13.4752C7.52489 13.6082 7.47435 13.7362 7.38354 13.8334C7.29273 13.9306 7.16841 13.9897 7.0357 13.9988C6.903 14.0078 6.77179 13.9662 6.66861 13.8823C6.56542 13.7983 6.49795 13.6783 6.47981 13.5466L6.47491 13.4752L6.47561 12.2235C5.27028 12.1026 4.14383 11.5686 3.28725 10.712C2.43067 9.85547 1.89667 8.72902 1.77576 7.52369L1.74986 7.52509H0.524846C0.391828 7.52505 0.263784 7.47451 0.166588 7.3837C0.069391 7.29289 0.0102883 7.16857 0.00122178 7.03586C-0.00784471 6.90316 0.033801 6.77195 0.117744 6.66877C0.201687 6.56558 0.321669 6.49811 0.453445 6.47997L0.524846 6.47507H1.77646C1.89752 5.26986 2.43159 4.14358 3.28816 3.28714C4.14472 2.4307 5.27108 1.8968 6.47631 1.77592L6.47491 1.75002V0.525006C6.47491 0.385766 6.53023 0.252228 6.62868 0.153771C6.72714 0.0553129 6.86068 0 6.99992 0ZM6.99992 2.80003C5.886 2.80003 4.8177 3.24254 4.03004 4.0302C3.24238 4.81786 2.79987 5.88616 2.79987 7.00008C2.79987 8.114 3.24238 9.1823 4.03004 9.96996C4.8177 10.7576 5.886 11.2001 6.99992 11.2001C8.11384 11.2001 9.18214 10.7576 9.9698 9.96996C10.7575 9.1823 11.2 8.114 11.2 7.00008C11.2 5.88616 10.7575 4.81786 9.9698 4.0302C9.18214 3.24254 8.11384 2.80003 6.99992 2.80003ZM6.99992 4.20005C7.74253 4.20005 8.45473 4.49505 8.97984 5.02016C9.50495 5.54527 9.79995 6.25747 9.79995 7.00008C9.79995 7.74269 9.50495 8.45489 8.97984 8.98C8.45473 9.50511 7.74253 9.80011 6.99992 9.80011C6.25731 9.80011 5.54511 9.50511 5.02 8.98C4.49489 8.45489 4.19989 7.74269 4.19989 7.00008C4.19989 6.25747 4.49489 5.54527 5.02 5.02016C5.54511 4.49505 6.25731 4.20005 6.99992 4.20005Z" fill="black"/>
</svg>
