<svg width="42" height="42" viewBox="0 0 42 42" fill="none" xmlns="http://www.w3.org/2000/svg">
<path d="M7.53688 4.94116V4.81616H7.41188H5.55894C3.74061 4.81616 2.3457 6.49973 2.3457 8.64704V35.8235C2.3457 37.9925 4.00755 39.6544 6.17658 39.6544H35.8236C37.9927 39.6544 39.6545 37.9925 39.6545 35.8235V8.64704C39.6545 6.49973 38.2596 4.81616 36.4413 4.81616H34.5883H34.4633V4.94116V7.41175V7.53675H34.5883H36.4413C36.4627 7.53675 36.5046 7.54874 36.562 7.59656C36.6176 7.64287 36.6781 7.71522 36.7342 7.81347C36.8462 8.0095 36.9339 8.29671 36.9339 8.64704V35.8235C36.9339 36.1657 36.8204 36.4411 36.6308 36.6307C36.4413 36.8203 36.1658 36.9338 35.8236 36.9338H6.17658C5.8344 36.9338 5.55896 36.8203 5.36939 36.6307C5.17981 36.4411 5.06629 36.1657 5.06629 35.8235V8.64704C5.06629 8.29671 5.15398 8.0095 5.266 7.81347C5.32214 7.71522 5.38266 7.64287 5.43823 7.59656C5.49562 7.54874 5.53755 7.53675 5.55894 7.53675H7.41188H7.53688V7.41175V4.94116Z" fill="white" stroke="white" stroke-width="0.25"/>
<path d="M9.75732 8.64705C9.75732 9.04605 9.89087 9.38826 10.1336 9.63103C10.3764 9.8738 10.7186 10.0073 11.1176 10.0073C11.5166 10.0073 11.8588 9.8738 12.1016 9.63103C12.3444 9.38826 12.4779 9.04605 12.4779 8.64705V3.70588C12.4779 3.30688 12.3444 2.96467 12.1016 2.7219C11.8588 2.47912 11.5166 2.34558 11.1176 2.34558C10.7186 2.34558 10.3764 2.47912 10.1336 2.7219C9.89087 2.96467 9.75732 3.30688 9.75732 3.70588V8.64705Z" fill="white" stroke="white" stroke-width="0.25"/>
<path d="M29.522 8.64705C29.522 9.04605 29.6555 9.38826 29.8983 9.63103C30.1411 9.8738 30.4833 10.0073 30.8823 10.0073C31.2813 10.0073 31.6235 9.8738 31.8662 9.63103C32.109 9.38826 32.2426 9.04605 32.2426 8.64705V3.70588C32.2426 3.30688 32.109 2.96467 31.8662 2.7219C31.6235 2.47912 31.2813 2.34558 30.8823 2.34558C30.4833 2.34558 30.1411 2.47912 29.8983 2.7219C29.6555 2.96467 29.522 3.30688 29.522 3.70588V8.64705Z" fill="white" stroke="white" stroke-width="0.25"/>
<path d="M14.8237 4.81616H14.6987V4.94116V7.41175V7.53675H14.8237H27.1767H27.3017V7.41175V4.94116V4.81616H27.1767H14.8237Z" fill="white" stroke="white" stroke-width="0.25"/>
<path d="M4.94092 12.2279H4.81592V12.3529V14.8235V14.9485H4.94092H37.0586H37.1836V14.8235V12.3529V12.2279H37.0586H4.94092Z" fill="white" stroke="white" stroke-width="0.25"/>
<path d="M32.1177 17.2942H34.5883V19.7648H32.1177V17.2942Z" fill="white"/>
<path d="M27.1763 17.2942H29.6468V19.7648H27.1763V17.2942Z" fill="white"/>
<path d="M22.2354 17.2942H24.7059V19.7648H22.2354V17.2942Z" fill="white"/>
<path d="M17.2939 17.2942H19.7645V19.7648H17.2939V17.2942Z" fill="white"/>
<path d="M12.353 17.2942H14.8236V19.7648H12.353V17.2942Z" fill="white"/>
<path d="M32.1177 22.2354H34.5883V24.7059H32.1177V22.2354Z" fill="white"/>
<path d="M27.1763 22.2354H29.6468V24.7059H27.1763V22.2354Z" fill="white"/>
<path d="M22.2354 22.2354H24.7059V24.7059H22.2354V22.2354Z" fill="white"/>
<path d="M17.2939 22.2354H19.7645V24.7059H17.2939V22.2354Z" fill="white"/>
<path d="M12.353 22.2354H14.8236V24.7059H12.353V22.2354Z" fill="white"/>
<path d="M7.41162 22.2354H9.88221V24.7059H7.41162V22.2354Z" fill="white"/>
<path d="M32.1177 27.1765H34.5883V29.6471H32.1177V27.1765Z" fill="white"/>
<path d="M27.1763 27.1765H29.6468V29.6471H27.1763V27.1765Z" fill="white"/>
<path d="M22.2354 27.1765H24.7059V29.6471H22.2354V27.1765Z" fill="white"/>
<path d="M17.2939 27.1765H19.7645V29.6471H17.2939V27.1765Z" fill="white"/>
<path d="M12.353 27.1765H14.8236V29.6471H12.353V27.1765Z" fill="white"/>
<path d="M7.41162 27.1765H9.88221V29.6471H7.41162V27.1765Z" fill="white"/>
<path d="M27.1763 32.1176H29.6468V34.5881H27.1763V32.1176Z" fill="white"/>
<path d="M22.2354 32.1176H24.7059V34.5881H22.2354V32.1176Z" fill="white"/>
<path d="M17.2939 32.1176H19.7645V34.5881H17.2939V32.1176Z" fill="white"/>
<path d="M12.353 32.1176H14.8236V34.5881H12.353V32.1176Z" fill="white"/>
<path d="M7.41162 32.1176H9.88221V34.5881H7.41162V32.1176Z" fill="white"/>
</svg>
