<!-- <svg xmlns="http://www.w3.org/2000/svg" class="svg-icon" style="width: 2em; height: 2em;vertical-align: right;fill: currentColor;overflow: hidden;" viewBox="0 0 1024 1024" version="1.1"><path d="M404.535453 230.401484l152.375409 0c27.89942 0 50.519604-22.61916 50.519604-50.522674l0-0.162706c0-27.89942-22.620184-50.519604-50.519604-50.519604L404.535453 129.196501c-27.904537 0-50.519604 22.620184-50.519604 50.519604l0 0.162706C354.015849 207.782324 376.630916 230.401484 404.535453 230.401484z"/><path d="M355.653139 686.22402l85.593424 0c5.185093-36.810371 18.149359-71.117734 37.19104-101.206006L355.653139 585.018014c-13.988596 0-25.326828-11.513218-25.326828-25.50079 0-13.989619 11.339256-25.504884 25.326828-25.504884l165.140131 0c45.945425-42.750663 107.533109-68.912509 175.24221-68.912509 31.172977 0 61.050448 5.545296 88.702228 15.699564L784.737708 256.695337c0-41.961694-32.528857-77.30362-74.494645-77.30362l-51.806923 0 0 1.457188c0 55.785537-44.234457 99.748818-100.024088 99.748818L406.172743 280.597723c-55.788607 0-102.356202-43.960211-102.356202-99.748818l0-1.457188-49.476855 0c-41.962717 0-77.636195 35.337833-77.636195 77.30362l0 506.558058c0 41.965787 35.672454 74.370825 77.636195 74.370825l211.535811 0c-15.409968-30.729885-24.853038-64.966641-26.794249-101.201913l-83.428108 0c-13.988596 0-25.326828-11.111059-25.326828-25.099654C330.326311 697.334056 341.664543 686.22402 355.653139 686.22402zM355.653139 381.802706l253.278517 0c13.989619 0 25.326828 11.513218 25.326828 25.501814 0 13.988596-11.338233 25.504884-25.326828 25.504884l-253.278517 0c-13.988596 0-25.326828-11.517311-25.326828-25.504884C330.326311 393.315924 341.664543 381.802706 355.653139 381.802706z"/><path d="M694.505637 517.531993c-112.320135 0-203.372897 91.052762-203.372897 203.372897 0 112.317065 91.052762 203.370851 203.372897 203.370851 112.318088 0 203.370851-91.053786 203.370851-203.370851C897.876488 608.584756 806.822702 517.531993 694.505637 517.531993zM775.441994 801.787012c-9.928117 9.927093-26.067702 9.884115-35.879162 0.072655l-62.174038-62.174038c-1.988284-1.818415-3.687996-3.947915-5.024433-6.311753-2.190899-3.864004-3.288906-8.178263-3.279696-12.498662l0-0.045025L669.084665 593.870636c0-14.080693 11.282974-25.494651 25.421996-25.494651 14.039761 0 25.419949 11.400654 25.419949 25.494651L719.92661 710.320834l55.589063 55.587016C785.401834 775.797082 785.437649 791.791357 775.441994 801.787012z"/></svg> -->

<svg xmlns="http://www.w3.org/2000/svg" width="24" height="24" viewBox="0 0 24 24" id="history"><path fill="none" d="M0 0h24v24H0V0z"/><path d="M13.26 3C8.17 2.86 4 6.95 4 12H2.21c-.45 0-.67.54-.35.85l2.79 2.8c.2.2.51.2.71 0l2.79-2.8c.31-.31.09-.85-.36-.85H6c0-3.9 3.18-7.05 7.1-7 3.72.05 6.85 3.18 6.9 6.9.05 3.91-3.1 7.1-7 7.1-1.61 0-3.1-.55-4.28-1.48-.4-.31-.96-.28-1.32.08-.42.42-.39 1.13.08 1.49C9 20.29 10.91 21 13 21c5.05 0 9.14-4.17 9-9.26-.13-4.69-4.05-8.61-8.74-8.74zm-.51 5c-.41 0-.75.34-.75.75v3.68c0 .35.19.68.49.86l3.12 1.85c.36.21.82.09 1.03-.26.21-.36.09-.82-.26-1.03l-2.88-1.71v-3.4c0-.4-.34-.74-.75-.74z"/></svg>