<svg width="24" height="24" viewBox="0 0 24 24" fill="none" xmlns="http://www.w3.org/2000/svg">
<path fill-rule="evenodd" clip-rule="evenodd" d="M10.7188 8.53125C10.7192 7.52647 11.0382 6.54771 11.6299 5.73568C12.2217 4.92364 13.0557 4.32018 14.0121 4.01205C14.9685 3.70392 15.9979 3.707 16.9524 4.02084C17.9069 4.33469 18.7373 4.94312 19.3242 5.75868C19.9111 6.57423 20.2243 7.55489 20.2187 8.55965C20.2131 9.56441 19.889 10.5415 19.2931 11.3505C18.6971 12.1594 17.86 12.7586 16.902 13.0618C15.9441 13.365 14.9147 13.3566 13.9618 13.0378C13.8049 12.9852 13.6365 12.9774 13.4754 13.0151C13.3144 13.0529 13.167 13.1347 13.0498 13.2516L11.835 14.4688H10.4219C10.1857 14.4688 9.95913 14.5626 9.79211 14.7296C9.62508 14.8966 9.53125 15.1232 9.53125 15.3594V16.7725L9.46 16.8438H8.04688C7.81067 16.8438 7.58413 16.9376 7.41711 17.1046C7.25008 17.2716 7.15625 17.4982 7.15625 17.7344V19.1475L7.085 19.2188H5.07813C4.99939 19.2188 4.92388 19.1875 4.8682 19.1318C4.81253 19.0761 4.78125 19.0006 4.78125 18.9219V16.915L10.7473 10.9502C10.8643 10.8332 10.9464 10.6858 10.9843 10.5247C11.0223 10.3636 11.0146 10.1952 10.9622 10.0382C10.8002 9.55231 10.718 9.04341 10.7188 8.53125ZM15.4688 2C14.4809 1.99983 13.5058 2.22376 12.617 2.65494C11.7282 3.08612 10.9487 3.71331 10.3373 4.4893C9.72598 5.26528 9.29861 6.16985 9.0874 7.1349C8.87619 8.09994 8.88665 9.10033 9.118 10.0608L3.26125 15.9175C3.09418 16.0844 3.00021 16.3107 3 16.5469V18.9219C3 20.069 3.931 21 5.07813 21H7.45313C7.68925 20.9998 7.91564 20.9058 8.0825 20.7388L8.67625 20.145C8.84332 19.9781 8.93729 19.7518 8.9375 19.5156V18.625H9.82813C10.0643 18.6248 10.2906 18.5308 10.4575 18.3638L11.0513 17.77C11.2183 17.6031 11.3123 17.3768 11.3125 17.1406V16.25H12.2031C12.4393 16.2498 12.6656 16.1558 12.8325 15.9887L13.9393 14.882C14.8361 15.0973 15.7683 15.1203 16.6746 14.9493C17.5809 14.7784 18.4408 14.4174 19.1975 13.8902C19.9543 13.363 20.5908 12.6815 21.0652 11.8906C21.5396 11.0996 21.8411 10.2172 21.9498 9.30131C22.0585 8.38544 21.9721 7.45693 21.6961 6.57689C21.4201 5.69685 20.9609 4.88524 20.3486 4.19549C19.7363 3.50573 18.9849 2.95347 18.1438 2.57506C17.3028 2.19664 16.391 2.00066 15.4688 2ZM16.0625 9.125C16.3774 9.125 16.6795 8.99989 16.9022 8.77719C17.1249 8.55449 17.25 8.25244 17.25 7.9375C17.25 7.62256 17.1249 7.32051 16.9022 7.09781C16.6795 6.87511 16.3774 6.75 16.0625 6.75C15.7476 6.75 15.4455 6.87511 15.2228 7.09781C15.0001 7.32051 14.875 7.62256 14.875 7.9375C14.875 8.25244 15.0001 8.55449 15.2228 8.77719C15.4455 8.99989 15.7476 9.125 16.0625 9.125Z" fill="black"/>
</svg>
