<svg width="24" height="24" viewBox="0 0 24 24" fill="none" xmlns="http://www.w3.org/2000/svg">
<path d="M8.44444 16.4444H8.45556M8.44444 4.22222H6.22222C5.63285 4.22222 5.06762 4.45635 4.65087 4.8731C4.23413 5.28984 4 5.85507 4 6.44444V19.7778C4 20.3671 4.23413 20.9324 4.65087 21.3491C5.06762 21.7659 5.63285 22 6.22222 22H17.3333C17.9227 22 18.4879 21.7659 18.9047 21.3491C19.3214 20.9324 19.5556 20.3671 19.5556 19.7778V6.44444C19.5556 5.85507 19.3214 5.28984 18.9047 4.8731C18.4879 4.45635 17.9227 4.22222 17.3333 4.22222H15.1111H8.44444ZM8.44444 4.22222C8.44444 4.81159 8.67857 5.37682 9.09532 5.79357C9.51207 6.21032 10.0773 6.44444 10.6667 6.44444H12.8889C13.4783 6.44444 14.0435 6.21032 14.4602 5.79357C14.877 5.37682 15.1111 4.81159 15.1111 4.22222H8.44444ZM8.44444 4.22222C8.44444 3.63285 8.67857 3.06762 9.09532 2.65087C9.51207 2.23413 10.0773 2 10.6667 2H12.8889C13.4783 2 14.0435 2.23413 14.4602 2.65087C14.877 3.06762 15.1111 3.63285 15.1111 4.22222H8.44444ZM11.7778 12H15.1111H11.7778ZM11.7778 16.4444H15.1111H11.7778ZM8.44444 12H8.45556H8.44444Z" stroke="black" stroke-width="2" stroke-linecap="round" stroke-linejoin="round"/>
</svg>
