<svg width="512" height="512" viewBox="0 0 512 512" fill="none" xmlns="http://www.w3.org/2000/svg">
<path d="M473.07 512H243.5C244.71 510.44 245.84 508.81 247.14 507.32C266.83 484.79 286.38 462.12 306.32 439.82C317.7 427.09 321.32 412.55 319.04 396C317.04 381 315.27 366 313.4 351C310.293 325.96 307.177 300.92 304.05 275.88C300.877 250.547 297.693 225.183 294.5 199.79C291.28 174.097 288.073 148.403 284.88 122.71C283.62 112.55 282.43 102.39 281.15 91.71H286.63C346.15 91.71 405.667 91.71 465.18 91.71C480.46 91.71 493.42 97.1 502.1 109.71C506.57 116.21 508.77 124.27 512 131.63V473.07C509 480 506.84 487.46 502.84 493.76C496.07 504.44 485 509.24 473.07 512ZM406.39 344.71C407.99 346.07 409.46 347.39 411 348.62C421.54 357 431.92 365.62 442.7 373.62C452.36 380.85 464.85 375.91 466.78 364.32C467.85 357.92 464.78 353.17 459.78 349.32C448.78 340.76 437.84 332.12 426.78 323.42C427.78 321.99 428.24 321.15 428.85 320.42C443.34 302.42 454.72 282.62 461.85 260.55C462.85 257.49 464.6 257.55 467.03 257.35C475.7 256.77 482.03 250.3 482.03 242.35C481.97 234.16 475.33 227.8 466.4 227.47C463.08 227.35 459.75 227.47 456.4 227.47H421.18C421.18 222.47 421.28 218.04 421.18 213.59C420.95 204.35 414.52 197.59 406.18 197.59C397.84 197.59 391.46 204.41 391.25 213.68C391.15 218.12 391.25 222.57 391.25 227.47H385.39C372.58 227.47 359.77 227.33 346.97 227.54C338.05 227.68 331.42 234.28 331.42 242.47C331.42 250.47 337.75 256.98 346.47 257.31C349.81 257.44 350.98 258.71 351.91 261.61C357.363 278.188 365.036 293.951 374.72 308.47C377.98 313.47 381.72 318.05 385.45 323.05C383.09 325.05 381 326.99 378.83 328.77C369.92 336 361 343.2 352.17 350.58C347.53 354.48 345.35 359.48 346.93 365.67C348.51 371.86 352.72 375.62 358.93 376.89C364.3 377.99 368.63 375.55 372.61 372.3L406.39 344.71Z" fill="#EF9105"/>
<path d="M1.00005 211.24C1.00005 157.18 1.00005 103.12 1.00005 49.06C1.00005 19.63 19.8 0.890005 49.34 0.880005C99.2401 0.880005 149.127 0.886672 199 0.900005C219.57 0.900005 236.72 12.59 242.5 31.82C245.38 41.42 246.06 51.71 247.35 61.74C250.68 87.43 253.79 113.15 256.98 138.85C260.107 164.07 263.23 189.287 266.35 214.5C269.557 240.373 272.77 266.247 275.99 292.12C279.13 317.5 282.25 342.883 285.35 368.27C286.81 380.14 287.95 392.06 289.86 403.85C291.1 411.54 287.24 416.54 282.51 421.35C281.77 422.1 280.06 422.1 278.8 422.1C200.96 422.1 123.13 422.27 45.2901 422.04C20.1901 422 1.05005 402 1.00005 376.42C0.900049 321.36 0.900049 266.3 1.00005 211.24ZM157.41 227.62C157.87 229.72 158.29 231.49 158.64 233.28C161.36 246.95 163.98 260.63 166.79 274.28C168.61 283.13 176.24 288.66 184.07 287.08C192.93 285.28 197.8 277.76 195.94 268.43C186.2 219.477 176.44 170.51 166.66 121.53C164.87 112.53 159.18 107.84 149.87 107.7C140.717 107.56 131.57 107.56 122.43 107.7C113.15 107.86 107.53 112.64 105.73 121.64C95.9567 170.6 86.2034 219.563 76.47 268.53C74.66 277.63 79.32 285 88 287C95.88 288.83 103.54 283.55 105.56 274.7C106.81 269.21 107.73 263.64 108.84 258.11C110.88 247.937 112.93 237.777 114.99 227.63L157.41 227.62Z" fill="#EF9105"/>
<path d="M254.3 452.52L234.18 474.75C225.18 484.75 216 494.6 207.1 504.7C205 507.08 203.44 507.26 200.83 505.7C187.04 497.37 179.63 485.09 177.83 469.24C177.21 463.8 176.57 458.37 175.89 452.53L254.3 452.52Z" fill="#EF9105"/>
<path d="M406.31 300.71C395.93 288.3 384.65 268.06 382.24 257.71H431.5C425.75 273.61 416.89 287.37 406.31 300.71Z" fill="#EF9105"/>
<path d="M132.87 137.84H139.53C143.53 157.65 147.44 177.36 151.43 197.31H121C125 177.34 128.91 157.62 132.87 137.84Z" fill="#EF9105"/>
</svg>
