<svg width="36" height="36" viewBox="0 0 36 36" fill="none" xmlns="http://www.w3.org/2000/svg">
<path opacity="0.25" d="M34.9234 9.80702L18.4815 18.1448L2.03955 9.80702C2.37708 9.29466 2.85849 8.86655 3.43802 8.56338L16.4836 1.9598C17.7223 1.34673 19.2406 1.34673 20.4793 1.9598L33.525 8.56338C34.1043 8.86641 34.5858 9.29555 34.9234 9.80702Z" fill="black"/>
<path opacity="0.5" d="M18.4813 17.9566V34.5896C17.8515 34.5887 17.2299 34.463 16.6634 34.2218L3.49781 27.5512C2.8914 27.2437 2.38773 26.8022 2.03714 26.2706C1.68654 25.739 1.50132 25.1362 1.5 24.5222V11.3909C1.5033 10.7706 1.68909 10.1616 2.0394 9.62256L18.4813 17.9566Z" fill="black"/>
<g filter="url(#filter0_i_1101_1259)">
<path d="M35.4629 11.3909V22.2722C35.4616 22.8862 35.2763 23.4892 34.9258 24.0206C34.5751 24.5522 34.0714 24.9938 33.4651 25.3012L20.2396 34.2394C19.6901 34.4671 19.0888 34.586 18.4814 34.5896V17.9566L34.9234 9.62256C35.273 10.1618 35.4589 10.7711 35.4629 11.3909Z" fill="#A2A2A2"/>
</g>
<path d="M32.7868 23.9634L32.7029 24.0059L32.6251 24.0585L19.9814 32.6034V18.8781L33.9629 11.7913V22.2702C33.962 22.5801 33.8692 22.8983 33.6736 23.1948C33.4762 23.4941 33.1769 23.7656 32.7868 23.9634Z" stroke="#EEEEEE" stroke-width="2"/>
<path d="M35.4629 11.3061V22.2358C35.462 22.852 35.338 23.4571 35.1029 23.9906C34.868 24.5242 34.5304 24.9673 34.1239 25.276L19.8028 34.5268C19.4347 34.7552 19.0315 34.8746 18.6245 34.8782V18.184L35.1014 9.53125C35.3357 10.0725 35.4604 10.684 35.4629 11.3061Z" fill="black"/>
<path d="M20.909 23.676C21.1384 23.676 21.3244 23.273 21.3244 22.776C21.3244 22.2789 21.1384 21.876 20.909 21.876C20.6796 21.876 20.4937 22.2789 20.4937 22.776C20.4937 23.273 20.6796 23.676 20.909 23.676Z" fill="#BDBDBD"/>
<path d="M21.2155 25.0554L20.7012 25.5348V30.6372L21.2155 30.158V25.0554Z" fill="#EF9105" stroke="#EF9105" stroke-width="0.25"/>
<defs>
<filter id="filter0_i_1101_1259" x="18.4814" y="9.62256" width="20.9814" height="28.967" filterUnits="userSpaceOnUse" color-interpolation-filters="sRGB">
<feFlood flood-opacity="0" result="BackgroundImageFix"/>
<feBlend mode="normal" in="SourceGraphic" in2="BackgroundImageFix" result="shape"/>
<feColorMatrix in="SourceAlpha" type="matrix" values="0 0 0 0 0 0 0 0 0 0 0 0 0 0 0 0 0 0 127 0" result="hardAlpha"/>
<feOffset dx="6" dy="4"/>
<feGaussianBlur stdDeviation="2"/>
<feComposite in2="hardAlpha" operator="arithmetic" k2="-1" k3="1"/>
<feColorMatrix type="matrix" values="0 0 0 0 1 0 0 0 0 1 0 0 0 0 1 0 0 0 0.5 0"/>
<feBlend mode="normal" in2="shape" result="effect1_innerShadow_1101_1259"/>
</filter>
</defs>
</svg>
