<svg width="56" height="69" viewBox="0 0 56 69" fill="none" xmlns="http://www.w3.org/2000/svg">
<g clip-path="url(#clip0_947:1360)">
<path d="M2.42075 6.34603L27.5865 0.753647L52.7522 6.34603C53.4323 6.49721 54.0405 6.87576 54.4765 7.4192C54.9125 7.96263 55.1501 8.63847 55.1503 9.33517V39.9218C55.15 42.9469 54.403 45.9251 52.9754 48.5921C51.5479 51.2592 49.484 53.5326 46.9669 55.2105L27.5865 68.1318L8.20608 55.2105C5.68943 53.5329 3.62578 51.26 2.19825 48.5935C0.770711 45.927 0.023429 42.9494 0.0227051 39.9248V9.33517C0.0228246 8.63847 0.260482 7.96263 0.696454 7.4192C1.13243 6.87576 1.74065 6.49721 2.42075 6.34603Z" fill="white"/>
<path d="M37.9886 29.0158H35.8831V22.6991C35.8831 18.0668 32.093 14.2768 27.4608 14.2768C22.8285 14.2768 19.0385 18.0668 19.0385 22.6991V29.0158H16.933C15.8802 29.0158 14.8274 30.0686 14.8274 31.1214V45.8603C14.8274 46.9131 15.8802 47.9659 16.933 47.9659H37.9886C39.0414 47.9659 40.0942 46.9131 40.0942 45.8603V31.1214C40.0942 30.0686 39.0414 29.0158 37.9886 29.0158ZM29.5664 43.7548H25.3552L26.1974 39.1225C25.1447 38.7014 24.3024 37.4381 24.3024 36.3853C24.3024 34.7008 25.7763 33.2269 27.4608 33.2269C29.1452 33.2269 30.6191 34.7008 30.6191 36.3853C30.6191 37.6486 29.9875 38.7014 28.7241 39.1225L29.5664 43.7548ZM31.6719 29.0158H23.2497V22.6991C23.2497 20.383 25.1447 18.488 27.4608 18.488C29.7769 18.488 31.6719 20.383 31.6719 22.6991V29.0158Z" fill="#EF9105"/>
</g>
<defs>
<clipPath id="clip0_947:1360">
<rect width="55.1275" height="67.3781" fill="white" transform="translate(0.0227051 0.753647)"/>
</clipPath>
</defs>
</svg>
