<svg width="24" height="24" viewBox="0 0 24 24" fill="none" xmlns="http://www.w3.org/2000/svg">
<g clip-path="url(#clip0_493_3031)">
<path d="M15.1655 0C14.8561 0 14.5594 0.122899 14.3407 0.34166C14.1219 0.560421 13.999 0.857125 13.999 1.1665V4.666H9.333C8.03818 4.666 7 5.70418 7 6.999V20.997C7 22.2918 8.03818 23.33 9.333 23.33H15.1655C16.4603 23.33 17.4985 22.2918 17.4985 20.997V6.999C17.4985 6.13579 17.0319 5.38923 16.332 4.99262V1.1665C16.332 0.857125 16.2091 0.560421 15.9903 0.34166C15.7716 0.122899 15.4749 0 15.1655 0V0ZM9.333 6.999H15.1655V12.8315H9.333V6.999ZM9.333 15.1645H10.4995V16.331H9.333V15.1645ZM11.666 15.1645H12.8325V16.331H11.666V15.1645ZM13.999 15.1645H15.1655V16.331H13.999V15.1645ZM9.333 17.4975H10.4995V18.664H9.333V17.4975ZM11.666 17.4975H12.8325V18.664H11.666V17.4975ZM13.999 17.4975H15.1655V18.664H13.999V17.4975ZM9.333 19.8305H10.4995V20.997H9.333V19.8305ZM11.666 19.8305H12.8325V20.997H11.666V19.8305ZM13.999 19.8305H15.1655V20.997H13.999V19.8305Z" fill="black"/>
</g>
<defs>
<clipPath id="clip0_493_3031">
<rect width="24" height="24" fill="white"/>
</clipPath>
</defs>
</svg>
