<svg width="24" height="24" viewBox="0 0 24 24" fill="none" xmlns="http://www.w3.org/2000/svg">
<path d="M12 3C9.243 3 7 5.12494 7 7.73684C7 10.3487 9.243 12.4737 12 12.4737C14.757 12.4737 17 10.3487 17 7.73684C17 5.12494 14.757 3 12 3ZM12 10.5789C10.346 10.5789 9 9.30379 9 7.73684C9 6.16989 10.346 4.89473 12 4.89473C13.654 4.89473 15 6.16989 15 7.73684C15 9.30379 13.654 10.5789 12 10.5789ZM21 21V20.0526C21 16.3968 17.859 13.421 14 13.421H10C6.14 13.421 3 16.3968 3 20.0526V21H5V20.0526C5 17.4407 7.243 15.3158 10 15.3158H14C16.757 15.3158 19 17.4407 19 20.0526V21H21Z" fill="black"/>
</svg>
