<svg width="148" height="148" viewBox="0 0 148 148" fill="none" xmlns="http://www.w3.org/2000/svg">
<g opacity="0.5" clip-path="url(#clip0)">
<path d="M143.477 106.705V123.803C143.477 125.835 141.832 127.48 139.8 127.48H8.20129C6.16918 127.48 4.52441 125.835 4.52441 123.803V106.705C4.52441 106.314 4.58512 105.927 4.70941 105.557L23.3279 49.002C23.8222 47.4931 25.23 46.4756 26.8198 46.4756H121.181C122.771 46.4756 124.179 47.4931 124.673 49.002L143.292 105.557C143.416 105.927 143.477 106.314 143.477 106.705Z" fill="#9E9797"/>
<path d="M143.476 106.705V123.803C143.476 125.835 141.832 127.48 139.799 127.48H117.692C117.617 101.415 118.019 58.3965 118.137 46.4756H121.181C122.771 46.4756 124.178 47.4931 124.673 49.002L143.291 105.557C143.416 105.927 143.476 106.314 143.476 106.705Z" fill="#B9ACAC"/>
<path d="M4.52441 106.705V123.803C4.52441 125.835 6.16918 127.48 8.20129 127.48H30.3088C30.3839 101.415 29.9821 58.3965 29.8636 46.4756H26.8198C25.23 46.4756 23.8222 47.4931 23.3279 49.002L4.70941 105.557C4.58512 105.927 4.52441 106.314 4.52441 106.705Z" fill="#B9ACAC"/>
<path d="M129.507 105.556L118.17 71.1181C117.674 69.6104 116.266 68.5914 114.678 68.5914H33.3232C31.7359 68.5914 30.3276 69.6104 29.8313 71.1181L18.494 105.556C18.3717 105.927 18.3096 106.315 18.3096 106.705V123.804C18.3096 125.834 19.9555 127.48 21.9859 127.48H126.016C128.046 127.48 129.692 125.834 129.692 123.804V106.705C129.692 106.315 129.63 105.927 129.507 105.556Z" fill="#756F6F"/>
<path d="M74.001 99.0668C88.8437 99.0668 100.876 95.684 100.876 91.511C100.876 87.3381 88.8437 83.9552 74.001 83.9552C59.1583 83.9552 47.126 87.3381 47.126 91.511C47.126 95.684 59.1583 99.0668 74.001 99.0668Z" fill="#5B5555"/>
<path d="M129.692 106.706V123.804C129.692 125.833 128.045 127.48 126.016 127.48H113.226C115.255 127.48 116.903 125.833 116.903 123.804V106.706C116.903 106.316 116.84 105.927 116.719 105.555L105.381 71.1165C104.885 69.6093 103.477 68.5909 101.889 68.5909H114.678C116.266 68.5909 117.674 69.6093 118.171 71.1165L129.508 105.555C129.63 105.927 129.692 106.316 129.692 106.706Z" fill="#5B5555"/>
<path d="M143.478 110.254V142.156C143.478 144.186 141.832 145.832 139.801 145.832H8.19973C6.16936 145.832 4.52344 144.186 4.52344 142.156V110.254C4.52344 108.223 6.16936 106.577 8.19973 106.577H35.3433C36.7481 106.577 38.0301 107.378 38.6467 108.64L43.9805 119.562C44.597 120.824 45.879 121.625 47.2839 121.625H100.718C102.123 121.625 103.405 120.824 104.021 119.562L109.355 108.64C109.971 107.378 111.253 106.577 112.658 106.577H139.802C141.832 106.577 143.478 108.223 143.478 110.254Z" fill="#BDBDBD"/>
<path d="M143.477 110.254V142.156C143.477 144.185 141.83 145.832 139.801 145.832H125.803C127.832 145.832 129.479 144.185 129.479 142.156V110.254C129.479 108.224 127.832 106.577 125.803 106.577H139.801C141.83 106.577 143.477 108.224 143.477 110.254Z" fill="#727272"/>
<path d="M74.0001 92.4314C87.893 92.4314 99.1555 81.1689 99.1555 67.276C99.1555 53.3831 87.893 42.1206 74.0001 42.1206C60.1072 42.1206 48.8447 53.3831 48.8447 67.276C48.8447 81.1689 60.1072 92.4314 74.0001 92.4314Z" fill="#A3E440"/>
<path d="M99.1552 67.2754C99.1552 81.1689 87.8922 92.4319 74.0019 92.4319C72.3132 92.4319 70.6626 92.266 69.0664 91.9466C80.5945 89.6512 89.2811 79.4767 89.2811 67.2751C89.2811 55.0735 80.5945 44.9022 69.0664 42.6068C70.6626 42.2877 72.3132 42.1215 74.0019 42.1215C87.8922 42.122 99.1552 53.3819 99.1552 67.2754Z" fill="#99D53B"/>
<path d="M31.252 22.9849C31.252 18.7151 34.7132 15.2539 38.9829 15.2539C43.2527 15.2539 46.7139 18.7151 46.7139 22.9849C46.7139 27.2546 43.2527 30.7159 38.9829 30.7159C34.7135 30.7159 31.252 27.2546 31.252 22.9849Z" fill="#BCEA73"/>
<path d="M35.0615 29.6472C38.0964 28.9477 40.3574 26.2308 40.3574 22.984C40.3574 19.7407 38.0999 17.0204 35.065 16.3208C36.2131 15.6424 37.5521 15.2539 38.9829 15.2539C43.2507 15.2539 46.7131 18.7163 46.7131 22.984C46.7131 27.2552 43.2507 30.7176 38.9829 30.7176C37.5524 30.7176 36.21 30.3288 35.0615 29.6472Z" fill="#99D53B"/>
<path d="M93.7903 17.1967C97.1818 17.1967 99.9311 14.4474 99.9311 11.0559C99.9311 7.66439 97.1818 4.91504 93.7903 4.91504C90.3988 4.91504 87.6494 7.66439 87.6494 11.0559C87.6494 14.4474 90.3988 17.1967 93.7903 17.1967Z" fill="#A8E7EF"/>
<path d="M99.931 11.055C99.931 14.4477 97.1808 17.1979 93.7907 17.1979C92.6541 17.1979 91.5878 16.8891 90.6758 16.3474C93.0863 15.7919 94.8825 13.6337 94.8825 11.0547C94.8825 8.47857 93.0892 6.31754 90.6787 5.76196C91.5907 5.22315 92.6544 4.91443 93.7907 4.91443C97.1808 4.91472 99.931 7.66515 99.931 11.055Z" fill="#70D9E6"/>
<path d="M145.352 104.878L135.423 74.7181C135.049 73.581 133.823 72.9624 132.686 73.3367C131.548 73.711 130.93 74.9367 131.305 76.0738L140.656 104.479C140.376 104.438 140.092 104.409 139.801 104.409H131.412L120.337 70.7698V48.6427H121.182C121.835 48.6427 122.411 49.0592 122.615 49.6793L127.959 65.911C128.259 66.8233 129.107 67.4017 130.018 67.4017C130.242 67.4017 130.471 67.3664 130.696 67.2924C131.834 66.9181 132.452 65.6924 132.077 64.5553L126.734 48.3236C125.943 45.9212 123.712 44.307 121.183 44.307H88.7829C84.5189 41.5531 79.4432 39.9529 74.0005 39.9529C68.5577 39.9529 63.4821 41.5531 59.2181 44.307H26.8183C24.289 44.307 22.0583 45.9212 21.2671 48.3238L2.64858 104.878C2.45404 105.469 2.35547 106.083 2.35547 106.705V122.148C2.35547 123.345 3.32614 124.316 4.52344 124.316C5.72073 124.316 6.69141 123.345 6.69141 122.148V110.254C6.69141 109.422 7.3681 108.745 8.19973 108.745H35.343C35.9151 108.745 36.4472 109.078 36.6981 109.592L42.0319 120.513C43.0049 122.505 45.0662 123.792 47.2833 123.792H100.717C102.934 123.792 104.996 122.505 105.969 120.513L111.303 109.592C111.554 109.078 112.086 108.745 112.658 108.745H139.801C140.633 108.745 141.309 109.422 141.309 110.254V142.156C141.309 142.987 140.633 143.664 139.801 143.664H8.19973C7.3681 143.664 6.69141 142.987 6.69141 142.156V132.851C6.69141 131.654 5.72073 130.683 4.52344 130.683C3.32614 130.683 2.35547 131.654 2.35547 132.851V142.156C2.35547 145.378 4.97727 148 8.19973 148H139.801C143.024 148 145.645 145.378 145.645 142.156V106.705C145.645 106.084 145.547 105.469 145.352 104.878ZM116.002 66.5761C115.574 66.4773 115.131 66.4232 114.678 66.4232H101.309C101.098 59.5637 98.3459 53.3336 93.9646 48.6427H116.002V66.5761ZM46.6919 66.4235H33.323C32.8698 66.4235 32.4266 66.4772 31.9991 66.5764V48.643H54.0364C49.6553 53.3339 46.9032 59.564 46.6919 66.4235ZM7.34469 104.479L25.3857 49.6795C25.5897 49.0595 26.1655 48.643 26.8183 48.643H27.6632V70.7704L16.5886 104.409H8.19973C7.90865 104.409 7.62479 104.438 7.34469 104.479ZM107.406 107.689L102.072 118.61C101.821 119.124 101.289 119.456 100.717 119.456H47.2836C46.7115 119.456 46.1797 119.124 45.9285 118.61L40.5947 107.689C39.6217 105.697 37.5604 104.409 35.3433 104.409H21.1538L31.8907 71.796C32.0948 71.176 32.6706 70.7594 33.3233 70.7594H46.902C47.549 75.768 49.5785 80.5445 52.7766 84.4838C56.6521 89.2577 62.0743 92.618 68.0443 93.946C69.213 94.205 70.3716 93.4693 70.6315 92.3004C70.8913 91.1317 70.1548 89.9734 68.9858 89.7132C63.966 88.5966 59.4049 85.7687 56.1431 81.7507C52.8353 77.6761 51.0134 72.5354 51.0134 67.2759C51.0134 54.6005 61.3254 44.2885 74.0005 44.2885C86.6756 44.2885 96.9876 54.6005 96.9876 67.2759C96.9876 78.0811 89.326 87.5401 78.7703 89.7667C77.5987 90.0139 76.8492 91.1638 77.0963 92.3353C77.3117 93.356 78.2121 94.0564 79.2155 94.0564C79.3637 94.0564 79.5144 94.0411 79.665 94.0093C85.704 92.7354 91.1974 89.3921 95.1333 84.5954C98.3849 80.6326 100.446 75.8163 101.098 70.7594H114.677C115.33 70.7594 115.906 71.176 116.11 71.796L126.847 104.409H112.658C110.441 104.409 108.38 105.697 107.406 107.689Z" fill="black"/>
<path d="M15.584 137.996H23.5176C24.7149 137.996 25.6856 137.026 25.6856 135.828C25.6856 134.631 24.7149 133.661 23.5176 133.661H15.584C14.3867 133.661 13.416 134.631 13.416 135.828C13.416 137.026 14.3867 137.996 15.584 137.996Z" fill="black"/>
<path d="M15.584 131.224H23.5176C24.7149 131.224 25.6856 130.253 25.6856 129.056C25.6856 127.859 24.7149 126.888 23.5176 126.888H15.584C14.3867 126.888 13.416 127.859 13.416 129.056C13.416 130.253 14.3867 131.224 15.584 131.224Z" fill="black"/>
<path d="M78.9988 76.9323C79.6113 76.9323 80.2201 76.6742 80.6487 76.1718C81.426 75.2613 81.3179 73.8926 80.4074 73.1153C78.6198 71.5896 76.246 70.7453 73.7228 70.7375C71.2039 70.732 68.8209 71.5601 67.0244 73.0754C66.1089 73.8472 65.9927 75.215 66.7648 76.1302C67.5366 77.0456 68.9044 77.1621 69.8196 76.3898C70.8125 75.5526 72.222 75.0731 73.6896 75.0731H73.7098C75.1852 75.0777 76.6001 75.5659 77.5925 76.4129C78.0006 76.7618 78.501 76.9323 78.9988 76.9323Z" fill="black"/>
<path d="M62.0588 62.6006H62.0331C60.8355 62.6081 59.8726 63.5594 59.8662 64.7567C59.8596 65.954 60.8378 66.9299 62.0351 66.9365H62.0472C63.239 66.9365 64.2085 65.9737 64.2149 64.7804C64.2213 63.5831 63.2561 62.6072 62.0588 62.6006Z" fill="black"/>
<path d="M85.7555 66.9247C85.7717 66.9265 85.7884 66.9262 85.8046 66.9276C85.8578 66.932 85.9107 66.9363 85.9651 66.9366H85.9772H85.9801C85.9818 66.9366 85.9833 66.9363 85.985 66.9363C86.057 66.936 86.1281 66.9326 86.1983 66.9256C87.2933 66.8161 88.148 65.8922 88.148 64.7686C88.148 63.5924 87.2106 62.6371 86.0425 62.6038C86.0246 62.6033 86.007 62.601 85.9888 62.601H85.9821C85.9815 62.601 85.9807 62.601 85.9801 62.601H85.963H85.9538C85.9529 62.601 85.9518 62.601 85.9509 62.601C84.7594 62.601 83.8026 63.5638 83.7959 64.7571C83.7899 65.8833 84.6556 66.8132 85.7555 66.9247Z" fill="black"/>
<path d="M54.4289 10.2719C54.8521 10.6954 55.4071 10.907 55.9618 10.907C56.5166 10.907 57.0715 10.6954 57.4947 10.2719L59.2473 8.5193L60.9999 10.2719C61.4231 10.6951 61.9781 10.907 62.5328 10.907C63.0875 10.907 63.6425 10.6954 64.0657 10.2719C64.9124 9.42522 64.9124 8.05246 64.0657 7.20609L62.3131 5.4535L64.0657 3.70092C64.9124 2.85425 64.9124 1.4815 64.0657 0.63512C63.2193 -0.211544 61.8466 -0.211544 60.9999 0.63512L59.2473 2.38771L57.4947 0.63512C56.6481 -0.211544 55.2753 -0.211544 54.4289 0.63512C53.5823 1.48178 53.5823 2.85454 54.4289 3.70092L56.1815 5.4535L54.4289 7.20609C53.5823 8.05275 53.5823 9.42551 54.4289 10.2719Z" fill="black"/>
<path d="M38.9829 32.8838C44.4413 32.8838 48.8819 28.4432 48.8819 22.9845C48.8819 17.5261 44.4413 13.0856 38.9829 13.0856C33.5246 13.0856 29.084 17.5261 29.084 22.9845C29.084 28.4432 33.5249 32.8838 38.9829 32.8838ZM38.9829 17.4218C42.0505 17.4218 44.5459 19.9173 44.5459 22.9848C44.5459 26.0523 42.0505 28.5481 38.9829 28.5481C35.9154 28.5481 33.4199 26.0526 33.4199 22.9848C33.4199 19.9173 35.9157 17.4218 38.9829 17.4218Z" fill="black"/>
<path d="M103.463 31.5459C103.886 31.9691 104.441 32.181 104.996 32.181C105.551 32.181 106.106 31.9694 106.529 31.5459L108.282 29.7934L110.034 31.5459C110.457 31.9691 111.012 32.181 111.567 32.181C112.122 32.181 112.677 31.9694 113.1 31.5459C113.947 30.6993 113.947 29.3265 113.1 28.4801L111.347 26.7276L113.1 24.975C113.947 24.1283 113.947 22.7555 113.1 21.9092C112.253 21.0625 110.88 21.0625 110.034 21.9092L108.282 23.6618L106.529 21.9092C105.682 21.0625 104.309 21.0625 103.463 21.9092C102.616 22.7558 102.616 24.1286 103.463 24.975L105.216 26.7276L103.463 28.4801C102.616 29.3268 102.616 30.6996 103.463 31.5459Z" fill="black"/>
<path d="M73.8813 31.2185H73.888C75.0821 31.2185 76.0522 30.2521 76.0559 29.0568L76.075 22.6012C76.0785 21.4039 75.111 20.4303 73.9134 20.4269C73.9111 20.4269 73.9091 20.4269 73.9068 20.4269C72.7127 20.4269 71.7426 21.3932 71.7388 22.5885L71.7197 29.0441C71.7163 30.2411 72.684 31.2147 73.8813 31.2185Z" fill="black"/>
<path d="M59.7915 24.3417C58.7644 24.9568 58.4306 26.2883 59.0457 27.3156L62.4 32.9159C62.8064 33.5943 63.5247 33.9701 64.2618 33.9701C64.6408 33.9701 65.0249 33.8706 65.3738 33.6617C66.4009 33.0465 66.7347 31.7151 66.1196 30.6878L62.7653 25.0875C62.1499 24.0604 60.8185 23.7263 59.7915 24.3417Z" fill="black"/>
<path d="M82.3734 33.7435C82.7249 33.9569 83.1131 34.0583 83.4961 34.0583C84.2289 34.0583 84.9437 33.6869 85.3516 33.0151L88.7394 27.4333C89.3606 26.4097 89.0346 25.0763 88.011 24.4551C86.9871 23.8342 85.654 24.16 85.0328 25.1835L81.645 30.7653C81.0238 31.7889 81.3501 33.1223 82.3734 33.7435Z" fill="black"/>
<path d="M93.7903 19.3646C98.3719 19.3646 102.099 15.6371 102.099 11.0558C102.099 6.47441 98.3719 2.74695 93.7903 2.74695C89.2086 2.74695 85.4814 6.47441 85.4814 11.0558C85.4814 15.6371 89.2086 19.3646 93.7903 19.3646ZM93.7903 7.08289C95.9811 7.08289 97.7631 8.86525 97.7631 11.0558C97.7631 13.2463 95.9808 15.0286 93.7903 15.0286C91.5997 15.0286 89.8174 13.2463 89.8174 11.0558C89.8174 8.86525 91.5995 7.08289 93.7903 7.08289Z" fill="black"/>
</g>
<defs>
<clipPath id="clip0">
<rect width="148" height="148" fill="white"/>
</clipPath>
</defs>
</svg>
