<svg width="148" height="148" viewBox="0 0 148 148" fill="none" xmlns="http://www.w3.org/2000/svg">
<g opacity="0.5" clip-path="url(#clip0)">
<path d="M130.33 79.3727V142.496C130.33 144.339 128.836 145.833 126.993 145.833H21.1748C19.332 145.833 17.8381 144.339 17.8381 142.496V79.3727C17.8381 78.3963 18.2659 77.4687 19.0085 76.8347L71.9177 31.6765C73.1656 30.6116 75.0023 30.6116 76.2502 31.6765L129.16 76.8347C129.902 77.4687 130.33 78.3963 130.33 79.3727Z" fill="#756F6F"/>
<path d="M53.5201 80.6233C53.5201 76.3535 56.9814 72.8923 61.2511 72.8923C65.5209 72.8923 68.9821 76.3535 68.9821 80.6233C68.9821 84.893 65.5209 88.3543 61.2511 88.3543C56.9814 88.3543 53.5201 84.893 53.5201 80.6233Z" fill="#5B5555"/>
<path d="M130.331 79.3731V142.494C130.331 144.339 128.836 145.831 126.994 145.831H119.166V84.3782C119.166 83.4006 118.739 82.473 117.995 81.8391L65.568 37.0934L71.9178 31.6746C73.1657 30.6103 75.001 30.6103 76.2489 31.6746L129.159 76.834C129.9 77.4676 130.331 78.3952 130.331 79.3731Z" fill="#5B5555"/>
<path d="M105.379 79.3046C107.06 80.9864 105.869 83.8594 103.493 83.8594H74.0835C58.1073 83.8594 44.5702 73.4086 39.942 58.9674L71.9178 31.6761C73.1657 30.6118 75.001 30.6118 76.2488 31.6761L108.228 58.9705C106.466 64.4627 103.417 69.3777 99.4357 73.3586L105.379 79.3046Z" fill="#5B5555"/>
<path d="M65.8426 111.868L18.9882 145.019C18.955 144.989 18.9249 144.958 18.8948 144.932C18.2442 144.321 17.8372 143.457 17.8372 142.496V79.5719L61.2515 108.778L65.8426 111.868Z" fill="#EEEEEE"/>
<path d="M130.328 79.5705V142.495C130.328 143.455 129.921 144.32 129.27 144.93C129.24 144.957 129.21 144.987 129.177 145.017L82.3226 111.867L86.9141 108.777L130.328 79.5705Z" fill="#EEEEEE"/>
<path d="M130.327 79.5699V142.494C130.327 143.455 129.92 144.319 129.27 144.93C129.24 144.956 129.209 144.987 129.176 145.017L119.166 137.933V87.0775L130.327 79.5699Z" fill="#BDBDBD"/>
<path d="M74.0827 99.0606C73.149 99.0606 72.246 99.3936 71.5361 99.9997L18.8949 144.93C18.925 144.957 18.955 144.987 18.9883 145.017C19.5722 145.524 20.3362 145.831 21.1739 145.831H126.992C127.829 145.831 128.593 145.524 129.177 145.017C129.21 144.987 129.24 144.957 129.271 144.93L76.6293 99.9997C75.9191 99.3936 75.0164 99.0606 74.0827 99.0606Z" fill="#EEEEEE"/>
<path d="M109.936 38.0213C109.936 18.2202 93.8843 2.16826 74.0833 2.16797C54.3004 2.16797 38.2297 18.2387 38.23 38.0215C38.2303 57.8226 54.2822 73.8743 74.0833 73.8743H103.493C105.871 73.8743 107.062 70.9995 105.38 69.318L99.4355 63.3732C105.923 56.8852 109.936 47.9219 109.936 38.0213Z" fill="#EEEEEE"/>
<path d="M105.379 69.3195C107.06 71.0013 105.869 73.8743 103.493 73.8743H92.609C94.988 73.8743 96.1792 71.0013 94.4977 69.3195L90.8093 65.6311C89.5825 64.4043 89.5044 62.4453 90.6225 61.1191C95.8817 54.8808 99.0525 46.82 99.0525 38.0213C99.0525 20.0731 85.8591 5.2011 68.6414 2.57844C70.4165 2.30816 72.2318 2.16797 74.0835 2.16797C93.8837 2.16797 109.937 18.2211 109.937 38.0213C109.937 47.9214 105.923 56.8872 99.4361 63.3738L105.379 69.3195Z" fill="#BDBDBD"/>
<path d="M81.1612 38.0213L87.8304 31.352C89.785 29.3974 89.785 26.2284 87.8304 24.2737C85.8761 22.3188 82.7068 22.3188 80.7521 24.2737L74.0829 30.943L67.4136 24.2737C65.4593 22.3191 62.29 22.3191 60.3354 24.2737C58.3807 26.2281 58.3807 29.3974 60.3354 31.352L67.0046 38.0213L60.3354 44.6905C58.3807 46.6451 58.3807 49.8141 60.3354 51.7688C61.3127 52.7461 62.5935 53.2349 63.8744 53.2349C65.1552 53.2349 66.4363 52.7464 67.4133 51.7688L74.0826 45.0995L80.7518 51.7688C81.7292 52.7461 83.0097 53.2349 84.2908 53.2349C85.5717 53.2349 86.8528 52.7461 87.8298 51.7688C89.7845 49.8144 89.7845 46.6451 87.8298 44.6905L81.1612 38.0213Z" fill="white"/>
<path d="M53.5203 73.8731C53.5203 69.6034 56.9815 66.1421 61.2512 66.1421C65.521 66.1421 68.9822 69.6034 68.9822 73.8731C68.9822 78.1428 65.521 81.6041 61.2512 81.6041C56.9815 81.6041 53.5203 78.1428 53.5203 73.8731Z" fill="#BCEA73"/>
<path d="M57.3301 80.5354C60.3649 79.8359 62.626 77.119 62.626 73.8722C62.626 70.629 60.3684 67.9086 57.3335 67.2091C58.4817 66.5306 59.8206 66.1421 61.2515 66.1421C65.5192 66.1421 68.9816 69.6045 68.9816 73.8722C68.9816 78.1434 65.5192 81.6058 61.2515 81.6058C59.8206 81.6058 58.4782 81.2173 57.3301 80.5354Z" fill="#99D53B"/>
<path d="M117.016 14.961C117.016 10.6913 120.477 7.23003 124.747 7.23003C129.016 7.23003 132.478 10.6913 132.478 14.961C132.478 19.2307 129.016 22.692 124.747 22.692C120.477 22.692 117.016 19.2307 117.016 14.961Z" fill="#BCEA73"/>
<path d="M120.826 21.6233C123.86 20.9238 126.121 18.2069 126.121 14.9601C126.121 11.7169 123.864 8.99649 120.829 8.29696C121.977 7.61853 123.316 7.23003 124.747 7.23003C129.015 7.23003 132.477 10.6924 132.477 14.9601C132.477 19.2313 129.015 22.6937 124.747 22.6937C123.316 22.6937 121.974 22.3052 120.826 21.6233Z" fill="#99D53B"/>
<path d="M15.5221 44.1546C15.5221 40.363 18.5957 37.2894 22.3873 37.2894C26.179 37.2894 29.2526 40.363 29.2526 44.1546C29.2526 47.9462 26.179 51.0198 22.3873 51.0198C18.5957 51.0198 15.5221 47.9462 15.5221 44.1546Z" fill="#A8E7EF"/>
<path d="M18.9053 50.0708C21.6002 49.4496 23.608 47.0371 23.608 44.154C23.608 41.2738 21.6034 38.8581 18.9085 38.2369C19.928 37.6345 21.1172 37.2894 22.3876 37.2894C26.1775 37.2894 29.252 40.3638 29.252 44.1537C29.252 47.9468 26.1775 51.0213 22.3876 51.0213C21.1169 51.0213 19.9248 50.6761 18.9053 50.0708Z" fill="#70D9E6"/>
<path d="M130.566 75.1849L107.753 55.7136C109.747 51.9257 111.09 47.8089 111.713 43.4767C111.883 42.2916 111.061 41.1928 109.876 41.0223C108.69 40.8523 107.591 41.6744 107.421 42.8596C106.382 50.0887 103.09 56.6522 97.9023 61.8403C97.4956 62.2467 97.2673 62.7982 97.2673 63.3732C97.2673 63.9481 97.4956 64.4997 97.9023 64.9061L103.847 70.851C104.004 71.0079 104.041 71.1918 103.956 71.397C103.871 71.6022 103.715 71.7063 103.493 71.7063H89.9945C88.7972 71.7063 87.8265 72.677 87.8265 73.8743C87.8265 75.0716 88.7972 76.0422 89.9945 76.0422H103.493C105.456 76.0422 107.21 74.8701 107.962 73.0562C108.713 71.2423 108.301 69.1732 106.913 67.7852L102.459 63.3307C103.556 62.1039 104.561 60.8141 105.481 59.4746L127.752 78.4825C127.797 78.5209 127.834 78.566 127.872 78.6103L87.0691 106.06L78.0371 98.3503C76.9355 97.4103 75.5312 96.8923 74.083 96.8923C72.6348 96.8923 71.2305 97.4103 70.1289 98.3503L61.0966 106.06L46.6065 96.3116C45.6127 95.643 44.2659 95.9069 43.5976 96.9001C42.929 97.8936 43.1929 99.2407 44.1861 99.909L57.6727 108.982L20.0055 141.132V83.642L35.3608 93.9719C35.7322 94.2217 36.1528 94.3413 36.5691 94.3413C37.2666 94.3413 37.9514 94.0051 38.3696 93.3834C39.0382 92.3899 38.7743 91.0428 37.7811 90.3745L20.2948 78.6108C20.3333 78.5666 20.3703 78.5212 20.4157 78.4828L42.6677 59.4905C45.2623 63.2778 48.5663 66.6087 52.4741 69.3048C51.7593 70.6726 51.3526 72.226 51.3526 73.8734C51.3526 79.3318 55.7932 83.7723 61.2515 83.7723C66.0121 83.7723 69.9974 80.3943 70.9389 75.9095C71.9836 75.9951 73.0354 76.0425 74.0833 76.0425H79.2916C80.4889 76.0425 81.4596 75.0718 81.4596 73.8745C81.4596 72.6772 80.4889 71.7066 79.2916 71.7066H74.0833C73.0126 71.7066 71.937 71.6554 70.8736 71.5551C69.8272 67.2117 65.9112 63.9742 61.2515 63.9742C59.0142 63.9742 56.9486 64.7211 55.289 65.9776C45.9405 59.6949 40.3986 49.3453 40.3983 38.0215C40.3983 29.0329 43.9046 20.576 50.2715 14.2092C56.6384 7.84227 65.0946 4.33594 74.0833 4.33594C82.1678 4.33594 89.9843 7.24304 96.0934 12.521C102.141 17.7461 106.144 24.9472 107.365 32.7985C107.55 33.9816 108.66 34.7924 109.841 34.6074C111.024 34.4233 111.834 33.315 111.65 32.1322C110.27 23.2666 105.752 15.1368 98.9282 9.24046C92.0318 3.28173 83.2084 0 74.0833 0C63.9363 0 54.3909 3.95727 47.2051 11.1434C40.0193 18.3292 36.062 27.8749 36.062 38.0215C36.062 44.3309 37.588 50.3712 40.4 55.7252L17.6005 75.1849C16.3734 76.2324 15.6696 77.7584 15.6696 79.3719V79.5621V79.5827V142.495C15.6696 144.038 16.3098 145.433 17.336 146.433C17.4109 146.511 17.4892 146.584 17.5725 146.648C18.5388 147.487 19.7965 147.999 21.1742 147.999H126.993C128.386 147.999 129.657 147.474 130.628 146.618C130.693 146.565 130.755 146.509 130.814 146.448C131.85 145.446 132.497 144.046 132.497 142.495V79.3717C132.497 77.7581 131.793 76.2321 130.566 75.1849ZM66.8143 73.8734C66.8143 76.9409 64.3188 79.4364 61.2512 79.4364C58.1837 79.4364 55.6882 76.9409 55.6882 73.8734C55.6882 70.8059 58.1837 68.3101 61.2512 68.3101C64.3188 68.3101 66.8143 70.8056 66.8143 73.8734ZM128.161 83.6411V141.133L90.4928 108.982L128.161 83.6411ZM72.9435 101.649C73.2609 101.378 73.6656 101.229 74.0827 101.229C74.4998 101.229 74.9045 101.378 75.2219 101.649L124.447 143.664H23.7182L72.9435 101.649Z" fill="black"/>
<path d="M91.4646 27.8127C91.4646 25.8968 90.7185 24.0954 89.3637 22.7408C88.0089 21.3857 86.2077 20.6394 84.2915 20.6394C82.3753 20.6394 80.5742 21.3857 79.2196 22.7405L74.0833 27.8772L68.9469 22.7408C67.5921 21.3857 65.7909 20.6396 63.8747 20.6396C61.9586 20.6396 60.1574 21.386 58.8026 22.7405C57.4477 24.0954 56.7017 25.8965 56.7017 27.8127C56.7017 29.7286 57.4477 31.5301 58.8026 32.8846L63.9392 38.0213L58.8026 43.1576C56.0059 45.9546 56.0062 50.505 58.8026 53.3017C60.1574 54.6568 61.9586 55.4029 63.8747 55.4029C65.7909 55.4029 67.5921 54.6568 68.9466 53.302L74.083 48.1656L79.2193 53.302C80.5742 54.6568 82.3753 55.4029 84.2912 55.4029C86.2071 55.4029 88.0083 54.6568 89.3634 53.302C92.1601 50.5053 92.1601 45.9549 89.3634 43.1579L84.2271 38.0215L89.3634 32.8849C90.7185 31.5301 91.4646 29.7286 91.4646 27.8127ZM86.2976 29.8188L79.6284 36.4884C78.7817 37.335 78.7817 38.7078 79.6284 39.5542L86.2976 46.2234C87.4039 47.3296 87.4039 49.1296 86.2979 50.2356C85.762 50.7715 85.0494 51.0666 84.2915 51.0666C83.5336 51.0666 82.8213 50.7715 82.2854 50.2356L75.6162 43.5661C75.2098 43.1593 74.6582 42.931 74.0833 42.931C73.5083 42.931 72.9568 43.1593 72.5504 43.5661L65.8808 50.2356C65.3452 50.7712 64.6327 51.0664 63.875 51.0664C63.1171 51.0664 62.4046 50.7712 61.8689 50.2353C60.7627 49.1291 60.7627 47.3294 61.8689 46.2231L68.5385 39.5539C68.9452 39.1474 69.1735 38.5959 69.1735 38.021C69.1735 37.446 68.9452 36.8945 68.5385 36.4881L61.8689 29.8185C61.333 29.2826 61.0379 28.5704 61.0379 27.8124C61.0379 27.0545 61.333 26.3423 61.8689 25.8063C62.4049 25.2704 63.1171 24.9753 63.875 24.9753C64.633 24.9753 65.3452 25.2704 65.8811 25.8063L72.5504 32.4756C73.397 33.3223 74.7698 33.3223 75.6162 32.4756L82.2857 25.8061C82.8216 25.2701 83.5339 24.975 84.2915 24.975C85.0492 24.975 85.7617 25.2701 86.2976 25.8063C86.8335 26.342 87.1287 27.0545 87.1287 27.8121C87.1287 28.5698 86.8335 29.2829 86.2976 29.8188Z" fill="black"/>
<path d="M129.855 48.564C129.008 47.7173 127.636 47.7173 126.789 48.564L124.747 50.6062L122.705 48.564C121.858 47.7173 120.485 47.7173 119.639 48.564C118.792 49.4106 118.792 50.7834 119.639 51.6297L121.681 53.672L119.639 55.7142C118.792 56.5609 118.792 57.9336 119.639 58.78C120.062 59.2032 120.617 59.4151 121.172 59.4151C121.727 59.4151 122.282 59.2035 122.705 58.78L124.747 56.7378L126.789 58.78C127.212 59.2032 127.767 59.4151 128.322 59.4151C128.877 59.4151 129.432 59.2035 129.855 58.78C130.702 57.9333 130.702 56.5606 129.855 55.7142L127.813 53.672L129.855 51.6297C130.702 50.7834 130.702 49.4106 129.855 48.564Z" fill="black"/>
<path d="M124.747 24.86C130.205 24.86 134.646 20.4194 134.646 14.961C134.646 9.50264 130.205 5.06178 124.747 5.06178C119.288 5.06178 114.848 9.50235 114.848 14.961C114.848 20.4194 119.288 24.86 124.747 24.86ZM124.747 9.398C127.814 9.398 130.31 11.8935 130.31 14.9613C130.31 18.0288 127.814 20.5243 124.747 20.5243C121.679 20.5243 119.184 18.0288 119.184 14.9613C119.184 11.8935 121.679 9.398 124.747 9.398Z" fill="black"/>
<path d="M22.3873 53.1878C27.3682 53.1878 31.4205 49.1354 31.4205 44.1546C31.4205 39.1738 27.3682 35.1214 22.3873 35.1214C17.4065 35.1214 13.3541 39.1738 13.3541 44.1546C13.3541 49.1354 17.4062 53.1878 22.3873 53.1878ZM22.3873 39.4573C24.9773 39.4573 27.0846 41.5646 27.0846 44.1546C27.0846 46.7446 24.9773 48.8519 22.3873 48.8519C19.7973 48.8519 17.6901 46.7446 17.6901 44.1546C17.6901 41.5646 19.797 39.4573 22.3873 39.4573Z" fill="black"/>
<path d="M20.8545 27.0464C21.2776 27.4696 21.8326 27.6815 22.3874 27.6815C22.9421 27.6815 23.4971 27.4699 23.9203 27.0464L25.0933 25.8734L26.2663 27.0464C26.6895 27.4699 27.2445 27.6815 27.7992 27.6815C28.3539 27.6815 28.9089 27.4699 29.3321 27.0464C30.1787 26.1998 30.1787 24.8273 29.3321 23.9806L28.1591 22.8076L29.3321 21.6346C30.1787 20.7879 30.1787 19.4152 29.3321 18.5688C28.4854 17.7221 27.1127 17.7221 26.2663 18.5688L25.0933 19.7418L23.9203 18.5688C23.0739 17.7221 21.7011 17.7221 20.8545 18.5688C20.0078 19.4155 20.0078 20.7879 20.8545 21.6346L22.0275 22.8076L20.8545 23.9806C20.0075 24.8273 20.0075 26.2 20.8545 27.0464Z" fill="black"/>
</g>
<defs>
<clipPath id="clip0">
<rect width="148" height="148" fill="white"/>
</clipPath>
</defs>
</svg>
