<svg width="148" height="148" viewBox="0 0 148 148" fill="none" xmlns="http://www.w3.org/2000/svg">
<g opacity="0.5" clip-path="url(#clip0_82_319)">
<path d="M73.826 145.832C81.7106 145.832 88.1022 139.44 88.1022 131.556C88.1022 123.671 81.7106 117.28 73.826 117.28C65.9415 117.28 59.5498 123.671 59.5498 131.556C59.5498 139.44 65.9415 145.832 73.826 145.832Z" fill="#64B9FC"/>
<path d="M88.1013 131.555C88.1013 139.439 81.7125 145.832 73.828 145.832C71.053 145.832 68.461 145.039 66.2716 143.668C72.2575 142.879 76.877 137.756 76.877 131.555C76.877 125.357 72.2578 120.231 66.2676 119.446C68.461 118.075 71.049 117.281 73.828 117.281C81.7122 117.281 88.1013 123.67 88.1013 131.555Z" fill="#31A7FB"/>
<path d="M137.328 123.654C136.62 120.606 135.224 117.91 133.422 115.541C127.124 107.265 123.689 97.1655 123.689 86.7656V62.9119C123.689 39.2047 107.086 19.3776 84.874 14.4187C81.6506 13.699 79.3624 10.8332 79.3624 7.53037C79.3621 4.56892 76.9615 2.16797 73.9997 2.16797C71.038 2.16797 68.6373 4.56892 68.6373 7.53037C68.6373 10.8332 66.3491 13.699 63.1258 14.4187C40.9136 19.3776 24.3105 39.2047 24.3105 62.9119V86.7656C24.3105 97.1655 20.8752 107.265 14.5777 115.541C12.7754 117.91 11.3801 120.606 10.6716 123.654C10.2253 125.574 11.6842 127.411 13.6559 127.411H134.344C136.315 127.411 137.774 125.574 137.328 123.654Z" fill="#EEEEEE"/>
<path d="M134.344 127.41H121.597C123.568 127.41 125.028 125.575 124.58 123.652C123.872 120.606 122.478 117.911 120.675 115.541C114.379 107.265 110.942 97.1655 110.942 86.765V62.9116C110.942 39.2055 94.3382 19.3787 72.1267 14.4184C70.1929 13.9877 68.5972 12.7823 67.626 11.1752C68.2706 10.1027 68.6377 8.85109 68.6377 7.53008C68.6377 6.05008 69.2361 4.70883 70.2073 3.74047C71.1786 2.76922 72.5198 2.16797 73.9998 2.16797C75.4798 2.16797 76.8211 2.76922 77.7923 3.74047C78.7636 4.70883 79.3619 6.05008 79.3619 7.53008C79.3619 10.8341 81.6513 13.6987 84.8743 14.4184C107.086 19.3787 123.69 39.2055 123.69 62.9116V86.765C123.69 97.1655 127.124 107.265 133.422 115.541C135.223 117.911 136.619 120.606 137.328 123.652C137.773 125.575 136.316 127.41 134.344 127.41Z" fill="#BDBDBD"/>
<path d="M52.5255 27.5719C52.5255 31.7691 49.1212 35.1737 44.9238 35.1737C41.2836 35.1737 38.2435 32.6175 37.4966 29.2037C40.5612 25.8821 44.0756 22.9828 47.9453 20.598C50.6397 21.7644 52.5255 24.4463 52.5255 27.5719Z" fill="#BDBDBD"/>
<path d="M113.546 40.5789C117.271 40.5789 120.29 37.5596 120.29 33.835C120.29 30.1105 117.271 27.0912 113.546 27.0912C109.822 27.0912 106.802 30.1105 106.802 33.835C106.802 37.5596 109.822 40.5789 113.546 40.5789Z" fill="#A8E7EF"/>
<path d="M120.29 33.8345C120.29 37.5602 117.27 40.5806 113.547 40.5806C112.299 40.5806 111.128 40.2415 110.126 39.6469C112.773 39.0367 114.745 36.6667 114.745 33.8348C114.745 31.0057 112.776 28.6325 110.129 28.0223C111.13 27.4306 112.299 27.0915 113.546 27.0915C117.269 27.0912 120.29 30.1116 120.29 33.8345Z" fill="#70D9E6"/>
<path d="M44.9229 27.5706C49.1218 27.5706 52.5256 24.1668 52.5256 19.968C52.5256 15.7692 49.1218 12.3654 44.9229 12.3654C40.7241 12.3654 37.3203 15.7692 37.3203 19.968C37.3203 24.1668 40.7241 27.5706 44.9229 27.5706Z" fill="#A8E7EF"/>
<path d="M52.525 19.9664C52.525 24.1668 49.1202 27.5714 44.9233 27.5714C43.5161 27.5714 42.196 27.1892 41.0669 26.5186C44.0512 25.8306 46.2746 23.1591 46.2746 19.9661C46.2746 16.7766 44.0546 14.1016 41.0704 13.4137C42.1994 12.7465 43.5161 12.3644 44.9233 12.3644C49.1202 12.3647 52.525 15.7695 52.525 19.9664Z" fill="#70D9E6"/>
<path d="M118.405 18.5633C122.885 18.5633 126.516 14.932 126.516 10.4525C126.516 5.97302 122.885 2.34169 118.405 2.34169C113.926 2.34169 110.294 5.97302 110.294 10.4525C110.294 14.932 113.926 18.5633 118.405 18.5633Z" fill="#64B9FC"/>
<path d="M126.515 10.4516C126.515 14.9327 122.883 18.5653 118.405 18.5653C116.904 18.5653 115.496 18.1574 114.291 17.4423C117.475 16.7084 119.847 13.8582 119.847 10.4519C119.847 7.04936 117.479 4.19515 114.295 3.46122C115.499 2.74955 116.904 2.34197 118.405 2.34197C122.883 2.34168 126.515 5.97404 126.515 10.4516Z" fill="#31A7FB"/>
<path d="M139.44 123.163C138.709 120.017 137.264 117.011 135.147 114.229C129.157 106.355 125.857 96.6018 125.857 86.7656V79.1511C125.857 77.9538 124.887 76.9831 123.689 76.9831C122.492 76.9831 121.522 77.9538 121.522 79.1511V86.7656C121.522 92.9853 122.727 99.1733 125.006 104.953H22.9943C25.273 99.1733 26.4783 92.9853 26.4783 86.7656V62.9119C26.4783 56.503 27.7343 50.2827 30.2116 44.424C30.6778 43.3212 30.1619 42.0491 29.0591 41.5828C27.9563 41.116 26.6842 41.6325 26.2179 42.7353C23.5134 49.1314 22.1421 55.9197 22.1421 62.9119V86.7656C22.1421 96.6021 18.8428 106.355 12.8522 114.229C10.7351 117.011 9.29098 120.017 8.55994 123.163C8.19659 124.726 8.56081 126.344 9.55952 127.601C10.5579 128.858 12.0512 129.579 13.6558 129.579H57.5017C57.4231 130.234 57.3817 130.894 57.3817 131.556C57.3817 133.458 57.7063 135.327 58.346 137.11C58.6637 137.996 59.4974 138.547 60.3868 138.547C60.6296 138.547 60.8771 138.505 61.119 138.419C62.2458 138.014 62.8317 136.773 62.4273 135.646C61.9567 134.334 61.7177 132.958 61.7177 131.556C61.7177 130.891 61.7778 130.231 61.8847 129.58H85.7671C85.8738 130.231 85.9342 130.891 85.9342 131.556C85.9342 138.233 80.5024 143.665 73.8259 143.665C71.9464 143.665 70.1427 143.244 68.465 142.414C67.392 141.883 66.0915 142.322 65.5605 143.395C65.0295 144.468 65.4688 145.769 66.5421 146.3C68.8228 147.428 71.2735 148.001 73.8259 148.001C82.8932 148.001 90.2701 140.624 90.2701 131.556C90.2701 130.894 90.2285 130.234 90.1501 129.58H134.343C135.948 129.58 137.441 128.859 138.44 127.601C139.439 126.344 139.803 124.726 139.44 123.163ZM135.045 124.904C134.944 125.031 134.72 125.244 134.344 125.244H13.6561C13.2803 125.244 13.0554 125.031 12.9551 124.904C12.8545 124.778 12.6985 124.511 12.7834 124.145C13.3751 121.599 14.5594 119.146 16.3031 116.854C18.1129 114.476 19.6969 111.94 21.0443 109.289H126.956C128.303 111.94 129.887 114.476 131.697 116.854C133.441 119.146 134.625 121.599 135.216 124.145C135.301 124.51 135.145 124.778 135.045 124.904Z" fill="black"/>
<path d="M32.1693 35.999C32.5497 36.2684 32.987 36.3979 33.4203 36.3979C34.0996 36.3979 34.7688 36.0793 35.1914 35.4827C36.8723 33.1092 38.779 30.8837 40.8666 28.8522C42.1032 29.419 43.4765 29.7379 44.9233 29.7379C50.3108 29.7379 54.6939 25.3548 54.6939 19.9673C54.6939 19.8051 54.6896 19.6441 54.6818 19.484C57.5469 18.2078 60.5402 17.2174 63.5985 16.535C67.8419 15.5874 70.8057 11.8848 70.8057 7.53066C70.8054 5.76911 72.2383 4.33594 73.9998 4.33594C75.7614 4.33594 77.1942 5.76911 77.1942 7.53037C77.1942 11.8845 80.158 15.5871 84.4014 16.5347C92.7227 18.3922 100.344 22.4498 106.563 28.307C105.357 29.8275 104.634 31.7477 104.634 33.8351C104.634 38.7491 108.632 42.7468 113.546 42.7468C114.675 42.7468 115.755 42.5335 116.751 42.1482C119.874 48.577 121.521 55.7127 121.521 62.9116V68.448C121.521 69.6453 122.492 70.6159 123.689 70.6159C124.886 70.6159 125.857 69.6453 125.857 68.448V62.9116C125.857 54.8146 123.949 46.7874 120.331 39.6024C121.656 38.0467 122.457 36.0331 122.457 33.8348C122.457 28.9207 118.46 24.923 113.546 24.923C112.303 24.923 111.12 25.1791 110.045 25.6404C103.167 18.9856 94.6597 14.382 85.3458 12.3028C83.0989 11.8013 81.5296 9.83853 81.5296 7.53037C81.5302 3.37827 78.1522 0 73.9998 0C69.8474 0 66.4694 3.37827 66.4694 7.53037C66.4694 9.83853 64.9001 11.8013 62.6535 12.3028C59.5172 13.0029 56.4456 14.0039 53.4917 15.277C51.8293 12.2519 48.612 10.1967 44.9233 10.1967C39.5357 10.1967 35.153 14.5797 35.153 19.9673C35.153 22.3289 35.9956 24.4975 37.3955 26.1885C35.2938 28.2839 33.3654 30.5591 31.653 32.9768C30.9607 33.9539 31.192 35.307 32.1693 35.999ZM118.122 33.8351C118.122 36.3583 116.069 38.4109 113.546 38.4109C111.023 38.4109 108.97 36.358 108.97 33.8351C108.97 31.3121 111.023 29.2592 113.546 29.2592C116.069 29.2592 118.122 31.3121 118.122 33.8351ZM44.9233 14.5326C47.92 14.5326 50.358 16.9706 50.358 19.9673C50.358 22.964 47.92 25.4019 44.9233 25.4019C41.9266 25.4019 39.4889 22.964 39.4889 19.9673C39.4889 16.9706 41.9266 14.5326 44.9233 14.5326Z" fill="black"/>
<path d="M73.6198 71.2317C73.6077 71.2317 73.5959 71.2317 73.5837 71.2317C70.9556 71.2317 68.4792 72.0994 66.6083 73.6774C65.6929 74.4492 65.5767 75.817 66.3488 76.7322C67.1206 77.6477 68.4884 77.7639 69.4036 76.9918C70.478 76.0859 72.0008 75.5673 73.5852 75.5673H73.6071C75.199 75.5719 76.7278 76.1003 77.8017 77.0169C78.2102 77.3656 78.7102 77.5361 79.2083 77.5361C79.8208 77.5361 80.4296 77.278 80.8583 76.7756C81.6355 75.865 81.5274 74.4966 80.6169 73.719C78.7464 72.1228 76.2616 71.2395 73.6198 71.2317Z" fill="black"/>
<path d="M61.2375 62.6135C61.2334 62.6135 61.2299 62.6135 61.2259 62.6135C60.0341 62.6135 59.0782 63.577 59.0718 64.7702C59.0657 65.9675 60.0448 66.9434 61.2421 66.9495H61.2536C62.4457 66.9495 63.4153 65.986 63.4213 64.7928C63.4274 63.5955 62.4619 62.6196 61.2646 62.6135H61.2375Z" fill="black"/>
<path d="M86.6084 62.6135H86.6026C86.6017 62.6135 86.6012 62.6135 86.6003 62.6135H86.5812H86.5728C86.5717 62.6135 86.5708 62.6135 86.5697 62.6135C85.3778 62.6135 84.4219 63.577 84.4156 64.7702C84.4098 65.897 85.2764 66.8266 86.3763 66.9379C86.3904 66.9394 86.4052 66.9391 86.4196 66.9402C86.4745 66.9446 86.5298 66.9492 86.5858 66.9495H86.5974H86.6003C86.6283 66.9495 86.6555 66.9463 86.6833 66.9451C86.7284 66.9434 86.7737 66.9428 86.818 66.9385C87.9129 66.8292 88.768 65.9054 88.768 64.7815C88.768 63.6039 87.8285 62.6476 86.6584 62.6164C86.6419 62.6159 86.6254 62.6138 86.6084 62.6135Z" fill="black"/>
<path d="M127.587 27.5737L129.533 29.5205L127.587 31.4673C126.74 32.314 126.74 33.6868 127.587 34.5331C128.01 34.9563 128.565 35.1682 129.12 35.1682C129.674 35.1682 130.229 34.9566 130.652 34.5331L132.599 32.5863L134.546 34.5331C134.969 34.9563 135.524 35.1682 136.079 35.1682C136.634 35.1682 137.189 34.9566 137.612 34.5331C138.459 33.6865 138.459 32.3137 137.612 31.4673L135.665 29.5205L137.612 27.5737C138.459 26.727 138.459 25.3542 137.612 24.5079C136.765 23.6612 135.393 23.6612 134.546 24.5079L132.599 26.4547L130.652 24.5079C129.806 23.6612 128.433 23.6612 127.587 24.5079C126.74 25.3542 126.74 26.727 127.587 27.5737Z" fill="black"/>
<path d="M118.405 20.7316C124.073 20.7316 128.684 16.1204 128.684 10.4525C128.684 4.78455 124.073 0.173717 118.405 0.173717C112.737 0.173717 108.126 4.78484 108.126 10.4525C108.126 16.1201 112.737 20.7316 118.405 20.7316ZM118.405 4.50965C121.682 4.50965 124.348 7.17568 124.348 10.4525C124.348 13.7293 121.682 16.3956 118.405 16.3956C115.128 16.3956 112.462 13.7296 112.462 10.4525C112.462 7.17539 115.128 4.50965 118.405 4.50965Z" fill="black"/>
<path d="M18.6174 17.7181C19.0406 18.1413 19.5956 18.3532 20.1503 18.3532C20.705 18.3532 21.26 18.1416 21.6832 17.7181L23.0161 16.3852L24.349 17.7181C24.7721 18.1413 25.3271 18.3532 25.8819 18.3532C26.4366 18.3532 26.9916 18.1416 27.4147 17.7181C28.2614 16.8714 28.2614 15.4987 27.4147 14.6523L26.0819 13.3194L27.4147 11.9866C28.2614 11.1399 28.2614 9.76714 27.4147 8.92076C26.5681 8.0741 25.1953 8.0741 24.349 8.92076L23.0161 10.2536L21.6832 8.92076C20.8366 8.0741 19.4638 8.0741 18.6174 8.92076C17.7708 9.76742 17.7708 11.1402 18.6174 11.9866L19.9503 13.3194L18.6174 14.6523C17.7708 15.4987 17.7708 16.8714 18.6174 17.7181Z" fill="black"/>
</g>
<defs>
<clipPath id="clip0_82_319">
<rect width="148" height="148" fill="white"/>
</clipPath>
</defs>
</svg>
