<svg xmlns="http://www.w3.org/2000/svg" viewBox="0 0 637 637.22"><defs><style>.cls-1{fill:#ef9105;}</style></defs><g id="Layer_2" data-name="Layer 2"><g id="Layer_1-2" data-name="Layer 1"><path class="cls-1" d="M505.37,216.61v7.69q0,99.87,0,199.74c0,17.62-6.84,24.4-24.56,24.4H158.31c-17.34,0-24.21-6.81-24.22-24V217.06c1.95,1.43,3.33,2.26,4.5,3.32q82,74.58,163.89,149.19c13.08,11.91,21.22,12,34.38.05q81-73.67,161.93-147.4C500.52,220.64,502.36,219.17,505.37,216.61Z"/><path class="cls-1" d="M476.3,87.24c2.53,11.33,4.91,21.56,7.08,31.84,2.47,11.72-3.35,21.85-13.76,24.27-10.91,2.55-20.78-4-23.56-15.88q-8.65-37.11-17-74.28c-3.09-13.78,2.65-22.86,16.45-26q37.44-8.68,74.95-17.07c11-2.46,21.28,3.75,23.65,14,2.42,10.47-3.61,20.42-14.58,23.27-10.19,2.65-20.5,4.82-30.77,7.21,12.77,10.65,25.8,20.27,37.4,31.37,69.34,66.32,103.21,147.77,100.76,243.58C633,480.13,518.58,609.68,369.6,633.09c-28.32,4.45-56.77,5.6-85.29,2-12-1.53-19.1-10.18-17.83-21.25s10.21-17.62,22.26-16.66C397.06,605.75,484.39,566.72,548,478.88c88.85-122.66,58-300.61-65.74-387.83C480.68,89.92,479,89,476.3,87.24Z"/><path class="cls-1" d="M157.75,546.74c-2.45-10.72-4.82-21-7.15-31.33-2.85-12.65,2.74-23,13.67-25.46,11.36-2.52,20.74,3.85,23.67,16.49q8.72,37.44,17.08,75c2.63,11.74-3.17,21.37-14.85,24.12q-38.7,9.09-77.54,17.63c-11,2.41-20.56-4-23-14.72-2.24-10,4.11-20,14.64-22.59,9.63-2.36,19.34-4.42,30.09-6.86-6.94-5.51-13.19-10.2-19.14-15.25C47,505.85,8.52,432.39,1.07,343.13-11.5,192.31,87.58,50.88,232.74,11.53a328.62,328.62,0,0,1,119-9.92c12.21,1.19,19.88,9.75,19,21.11-.88,10.83-9.68,18.19-21.88,17.15-25.91-2.2-51.63-2-77.35,2.43a274.37,274.37,0,0,0-132,60.93c-53.94,45.1-87.84,102.45-97.35,172-15.16,110.86,22.84,201,111.41,269.6.87.67,1.81,1.25,2.75,1.84C156.38,546.82,156.65,546.74,157.75,546.74Z"/><path class="cls-1" d="M161.08,188.9H478.35L319.72,333.31Z"/></g></g></svg>