<svg id="SvgjsSvg1016" width="288" height="288" xmlns="http://www.w3.org/2000/svg" version="1.1" xmlns:xlink="http://www.w3.org/1999/xlink" xmlns:svgjs="http://svgjs.com/svgjs"><defs id="SvgjsDefs1017"></defs><g id="SvgjsG1018"><svg xmlns="http://www.w3.org/2000/svg" fill="none" viewBox="0 0 48 48" width="288" height="288"><path fill="#ef9105" d="M47.9936 27.0524C47.9592 26.6934 47.8259 26.3482 47.6059 26.0306L37.7903 11.8487C37.3834 11.2607 36.7124 10.9091 35.9967 10.9091H29.453C28.8502 10.9091 28.3624 11.397 28.3624 12V14.1818C28.3624 14.7848 28.8502 15.2727 29.453 15.2727H34.8529L42.404 26.1819H37.0875C34.6825 26.1819 32.725 28.1388 32.725 30.5455C32.725 31.7482 31.7473 32.7273 30.5437 32.7273H17.4563C16.2528 32.7273 15.275 31.7482 15.275 30.5455C15.275 28.1389 13.3174 26.1819 10.9126 26.1819H5.59604L13.147 15.2727H18.5469C19.1497 15.2727 19.6376 14.7848 19.6376 14.1818V12C19.6376 11.397 19.1497 10.9091 18.5469 10.9091H12.0032C11.2875 10.9091 10.6165 11.2607 10.2097 11.8487L0.394034 26.0306C0.174045 26.3481 0.0406818 26.713 0.00631818 27.0719C-0.00789773 27.1423 0.00631818 43.6364 0.00631818 43.6364C0.00631818 46.043 1.96392 48.0001 4.36876 48.0001H43.6312C46.0361 48.0001 47.9936 46.0431 47.9936 43.6364C47.9936 43.6364 48.0079 27.1227 47.9936 27.0524Z" class="colorfff svgShape"></path><path fill="#ef9105" d="M16.6853 18.4134L15.1433 19.9559C14.7172 20.3818 14.7172 21.0726 15.1433 21.4986L22.4579 28.8154C22.884 29.2416 23.442 29.4546 24.0001 29.4546C24.5582 29.4546 25.1163 29.2416 25.5423 28.8154L32.8569 21.4986C33.283 21.0727 33.283 20.3819 32.8569 19.9559L31.315 18.4134C30.8889 17.9874 30.1986 17.9874 29.7725 18.4134L26.1813 22.0057V1.09094C26.1814 0.488352 25.6931 0 25.0908 0H22.9096C22.3073 0 21.8189 0.488352 21.8189 1.09094V22.0057L18.2277 18.4134C17.8017 17.9873 17.1112 17.9873 16.6853 18.4134Z" class="colorfff svgShape"></path></svg></g></svg>