<svg width="16" height="16" viewBox="0 0 16 16" fill="none" xmlns="http://www.w3.org/2000/svg">
<path d="M6.3994 3.95319e-08C5.38091 0.000145857 4.37717 0.243368 3.47159 0.709452C2.56601 1.17554 1.78475 1.85102 1.19273 2.67977C0.600709 3.50852 0.215034 4.46659 0.0677554 5.47437C-0.0795231 6.48215 0.0158485 7.51053 0.345944 8.47403C0.67604 9.43754 1.23133 10.3084 1.96565 11.0141C2.69998 11.7198 3.59214 12.2401 4.56799 12.5317C5.54384 12.8233 6.57519 12.8778 7.57633 12.6907C8.57747 12.5035 9.51948 12.0801 10.3241 11.4557L14.6328 15.766C14.783 15.916 14.9866 16.0002 15.1989 16C15.4112 15.9999 15.6147 15.9154 15.7647 15.7652C15.9147 15.6149 15.9989 15.4113 15.9988 15.199C15.9986 14.9867 15.9142 14.7832 15.7639 14.6332L11.4553 10.3245C12.1897 9.3785 12.644 8.24539 12.7664 7.05402C12.8888 5.86264 12.6745 4.66082 12.1478 3.58522C11.6211 2.50961 10.8031 1.60339 9.7869 0.969593C8.7707 0.335798 7.59704 -0.000133053 6.3994 3.95319e-08ZM1.59953 6.39982C1.59953 5.12682 2.10523 3.90595 3.00538 3.0058C3.90553 2.10565 5.12639 1.59996 6.3994 1.59996C7.6724 1.59996 8.89326 2.10565 9.79341 3.0058C10.6936 3.90595 11.1993 5.12682 11.1993 6.39982C11.1993 7.67283 10.6936 8.89369 9.79341 9.79384C8.89326 10.694 7.6724 11.1997 6.3994 11.1997C5.12639 11.1997 3.90553 10.694 3.00538 9.79384C2.10523 8.89369 1.59953 7.67283 1.59953 6.39982Z" fill="black"/>
</svg>
