<svg width="46" height="48" viewBox="0 0 46 48" fill="none" xmlns="http://www.w3.org/2000/svg">
<g clip-path="url(#clip0)">
<path d="M45.1704 28.2845C45.1381 27.9467 45.0125 27.6218 44.8055 27.3228L35.5673 13.9752C35.1844 13.4218 34.5528 13.0908 33.8792 13.0908H27.7204C27.1531 13.0908 26.694 13.5501 26.694 14.1176V16.171C26.694 16.7386 27.1531 17.1978 27.7204 17.1978H32.8027L39.9096 27.4652H34.9058C32.6423 27.4652 30.8 29.3071 30.8 31.5722C30.8 32.7042 29.8798 33.6256 28.747 33.6256H16.4294C15.2967 33.6256 14.3765 32.7042 14.3765 31.5722C14.3765 29.3072 12.534 27.4652 10.2707 27.4652H5.26685L12.3737 17.1978H17.4559C18.0233 17.1978 18.4824 16.7386 18.4824 16.171V14.1176C18.4824 13.5501 18.0233 13.0908 17.4559 13.0908H11.2971C10.6235 13.0908 9.99199 13.4218 9.60908 13.9752L0.370855 27.3228C0.163807 27.6217 0.0382887 27.9651 0.00594652 28.3029C-0.00743315 28.3691 0.00594652 43.893 0.00594652 43.893C0.00594652 46.158 1.84839 48 4.11177 48H41.0646C43.3281 48 45.1704 46.1581 45.1704 43.893C45.1704 43.893 45.1839 28.3507 45.1704 28.2845Z" fill="white"/>
<path d="M15.7037 10.3917L14.2524 8.93997C13.8514 8.53906 13.8514 7.88894 14.2524 7.48794L21.1368 0.601557C21.5378 0.200457 22.063 -4.57764e-05 22.5882 -4.57764e-05C23.1135 -4.57764e-05 23.6388 0.200457 24.0397 0.601557L30.9241 7.48794C31.3251 7.88885 31.3251 8.53897 30.9241 8.93997L29.4728 10.3917C29.0718 10.7926 28.4221 10.7926 28.0211 10.3917L24.6411 7.0107V26.6952C24.6412 27.2623 24.1817 27.7219 23.6148 27.7219H21.5619C20.995 27.7219 20.5354 27.2623 20.5354 26.6952V7.0107L17.1554 10.3917C16.7544 10.7927 16.1046 10.7927 15.7037 10.3917Z" fill="white"/>
</g>
<defs>
<clipPath id="clip0">
<rect width="45.1764" height="48" fill="white"/>
</clipPath>
</defs>
</svg>
