<!-- <svg width="42" height="42" viewBox="0 0 16 16" fill="none" xmlns="http://www.w3.org/2000/svg">
<path d="M7.99991 0.380981C3.78657 0.380981 0.380859 3.7867 0.380859 8.00003C0.380859 12.2134 3.78657 15.6191 7.99991 15.6191C12.2132 15.6191 15.619 12.2134 15.619 8.00003C15.619 3.7867 12.2132 0.380981 7.99991 0.380981Z" fill="#EF9105"/>
<mask id="path-2-inside-1_1049_1241" fill="white" >
<path d="M5.66662 4.44464H7.20614C7.29059 4.44467 7.37189 4.47675 7.4336 4.5344C7.49531 4.59206 7.53283 4.67099 7.53859 4.75525C7.54434 4.8395 7.5179 4.9228 7.46461 4.98831C7.41131 5.05383 7.33514 5.09667 7.25147 5.10818L7.20614 5.11129H5.66662C5.41324 5.11126 5.16929 5.20742 4.98408 5.38034C4.79887 5.55325 4.68621 5.79003 4.66887 6.04282L4.66665 6.11126V10.3334C4.66662 10.5868 4.76278 10.8307 4.9357 11.0159C5.10861 11.2011 5.34539 11.3138 5.59818 11.3311L5.66662 11.3334H9.88874C10.1421 11.3334 10.3861 11.2372 10.5713 11.0643C10.7565 10.8914 10.8691 10.6546 10.8865 10.4018L10.8887 10.3334V10.112C10.888 10.027 10.9197 9.94496 10.9775 9.8826C11.0353 9.82024 11.1147 9.78231 11.1995 9.77657C11.2844 9.77084 11.3682 9.79773 11.4338 9.85175C11.4995 9.90577 11.542 9.98282 11.5527 10.0672L11.5554 10.112V10.3334C11.5554 10.76 11.3918 11.1705 11.0983 11.4801C10.8048 11.7897 10.4037 11.975 9.97762 11.9978L9.88874 12H5.66662C5.23997 12 4.82955 11.8364 4.5199 11.5429C4.21026 11.2494 4.02498 10.8483 4.00222 10.4223L4 10.3334V6.11126C3.99996 5.68461 4.16355 5.27419 4.45707 4.96454C4.75059 4.6549 5.15169 4.46962 5.57774 4.44686L5.66662 4.44464H7.20614H5.66662ZM9.11231 5.57528V4.33353C9.11227 4.27222 9.12915 4.21209 9.16108 4.15974C9.193 4.1074 9.23875 4.06488 9.29328 4.03686C9.34781 4.00883 9.40902 3.99639 9.47016 4.0009C9.53131 4.00542 9.59003 4.0267 9.63985 4.06243L9.6763 4.09309L12.3402 6.64858C12.4647 6.76769 12.4762 6.95969 12.3745 7.09168L12.3402 7.12946L9.6763 9.68584C9.63209 9.72832 9.57702 9.75778 9.51715 9.77099C9.45728 9.78419 9.39493 9.78063 9.33695 9.76069C9.27898 9.74075 9.22762 9.70521 9.18854 9.65798C9.14945 9.61074 9.12415 9.55364 9.11542 9.49295L9.11231 9.4454V8.2001L8.96965 8.19743C7.78835 8.19388 6.77859 8.67875 5.91862 9.66451C5.69818 9.91694 5.2853 9.72317 5.33819 9.39251C5.70573 7.10813 6.93815 5.81705 8.97809 5.58861L9.11231 5.57528V4.33353V5.57528V5.57528Z"/>
</mask>
<path d="M5.66662 4.44464H7.20614C7.29059 4.44467 7.37189 4.47675 7.4336 4.5344C7.49531 4.59206 7.53283 4.67099 7.53859 4.75525C7.54434 4.8395 7.5179 4.9228 7.46461 4.98831C7.41131 5.05383 7.33514 5.09667 7.25147 5.10818L7.20614 5.11129H5.66662C5.41324 5.11126 5.16929 5.20742 4.98408 5.38034C4.79887 5.55325 4.68621 5.79003 4.66887 6.04282L4.66665 6.11126V10.3334C4.66662 10.5868 4.76278 10.8307 4.9357 11.0159C5.10861 11.2011 5.34539 11.3138 5.59818 11.3311L5.66662 11.3334H9.88874C10.1421 11.3334 10.3861 11.2372 10.5713 11.0643C10.7565 10.8914 10.8691 10.6546 10.8865 10.4018L10.8887 10.3334V10.112C10.888 10.027 10.9197 9.94496 10.9775 9.8826C11.0353 9.82024 11.1147 9.78231 11.1995 9.77657C11.2844 9.77084 11.3682 9.79773 11.4338 9.85175C11.4995 9.90577 11.542 9.98282 11.5527 10.0672L11.5554 10.112V10.3334C11.5554 10.76 11.3918 11.1705 11.0983 11.4801C10.8048 11.7897 10.4037 11.975 9.97762 11.9978L9.88874 12H5.66662C5.23997 12 4.82955 11.8364 4.5199 11.5429C4.21026 11.2494 4.02498 10.8483 4.00222 10.4223L4 10.3334V6.11126C3.99996 5.68461 4.16355 5.27419 4.45707 4.96454C4.75059 4.6549 5.15169 4.46962 5.57774 4.44686L5.66662 4.44464H7.20614H5.66662ZM9.11231 5.57528V4.33353C9.11227 4.27222 9.12915 4.21209 9.16108 4.15974C9.193 4.1074 9.23875 4.06488 9.29328 4.03686C9.34781 4.00883 9.40902 3.99639 9.47016 4.0009C9.53131 4.00542 9.59003 4.0267 9.63985 4.06243L9.6763 4.09309L12.3402 6.64858C12.4647 6.76769 12.4762 6.95969 12.3745 7.09168L12.3402 7.12946L9.6763 9.68584C9.63209 9.72832 9.57702 9.75778 9.51715 9.77099C9.45728 9.78419 9.39493 9.78063 9.33695 9.76069C9.27898 9.74075 9.22762 9.70521 9.18854 9.65798C9.14945 9.61074 9.12415 9.55364 9.11542 9.49295L9.11231 9.4454V8.2001L8.96965 8.19743C7.78835 8.19388 6.77859 8.67875 5.91862 9.66451C5.69818 9.91694 5.2853 9.72317 5.33819 9.39251C5.70573 7.10813 6.93815 5.81705 8.97809 5.58861L9.11231 5.57528V4.33353V5.57528V5.57528Z" fill="white"/>
<path d="M5.66662 4.44464V0.44464H5.61663L5.56665 0.44589L5.66662 4.44464ZM7.20614 4.44464L7.20737 0.44464H7.20614V4.44464ZM7.25147 5.10818L7.52534 9.09879L7.66149 9.08945L7.7967 9.07085L7.25147 5.10818ZM7.20614 5.11129V9.11129H7.34323L7.48001 9.1019L7.20614 5.11129ZM5.66662 5.11129L5.66613 9.11129H5.66662V5.11129ZM4.66887 6.04282L0.678252 5.76904L0.673317 5.84097L0.670978 5.91303L4.66887 6.04282ZM4.66665 6.11126L0.668756 5.98147L0.66665 6.04635V6.11126H4.66665ZM4.66665 10.3334L8.66665 10.3339V10.3334H4.66665ZM5.59818 11.3311L5.3244 15.3217L5.39634 15.3267L5.4684 15.329L5.59818 11.3311ZM5.66662 11.3334L5.53684 15.3312L5.60172 15.3334H5.66662V11.3334ZM9.88874 11.3334L9.88923 7.33335H9.88874V11.3334ZM10.8865 10.4018L14.8771 10.6756L14.882 10.6037L14.8844 10.5316L10.8865 10.4018ZM10.8887 10.3334L14.8866 10.4632L14.8887 10.3983V10.3334H10.8887ZM10.8887 10.112H14.8887V10.0946L14.8886 10.0771L10.8887 10.112ZM11.5527 10.0672L15.5457 9.82994L15.5377 9.69626L15.5208 9.56341L11.5527 10.0672ZM11.5554 10.112H15.5554V9.99333L15.5483 9.87483L11.5554 10.112ZM11.5554 10.3334L7.55536 10.3334L7.55536 10.3337L11.5554 10.3334ZM9.97762 11.9978L10.0776 15.9965L10.1343 15.9951L10.191 15.9921L9.97762 11.9978ZM9.88874 12V16H9.93872L9.98869 15.9988L9.88874 12ZM5.66662 12L5.66662 8L5.66626 8L5.66662 12ZM4.00222 10.4223L0.00347168 10.5222L0.00488953 10.5789L0.00791516 10.6356L4.00222 10.4223ZM4 10.3334H6.74358e-09V10.3834L0.00124947 10.4333L4 10.3334ZM4 6.11126L8 6.11126L8 6.1109L4 6.11126ZM5.57774 4.44686L5.47777 0.448112L5.42105 0.44953L5.3644 0.452556L5.57774 4.44686ZM9.11231 4.33353L13.1123 4.33353L13.1123 4.33104L9.11231 4.33353ZM9.63985 4.06243L12.2153 1.00182L12.0966 0.901957L11.9705 0.811584L9.63985 4.06243ZM9.6763 4.09309L12.4454 1.20652L12.3514 1.11635L12.2517 1.03248L9.6763 4.09309ZM12.3402 6.64858L9.57116 9.53515L9.5744 9.53825L12.3402 6.64858ZM12.3745 7.09168L15.3389 9.77716L15.4454 9.65967L15.5422 9.53413L12.3745 7.09168ZM12.3402 7.12946L15.1098 10.0155L15.2108 9.91865L15.3047 9.81493L12.3402 7.12946ZM9.6763 9.68584L6.90673 6.79975L6.90486 6.80154L9.6763 9.68584ZM9.11542 9.49295L5.12396 9.75408L5.13409 9.90895L5.15619 10.0626L9.11542 9.49295ZM9.11231 9.4454H5.11231V9.5761L5.12084 9.70652L9.11231 9.4454ZM9.11231 8.2001H13.1123V4.27416L9.18706 4.2008L9.11231 8.2001ZM8.96965 8.19743L9.0444 4.19813L9.01305 4.19754L8.98169 4.19745L8.96965 8.19743ZM5.91862 9.66451L8.93155 12.2955L8.93279 12.2941L5.91862 9.66451ZM5.33819 9.39251L1.38898 8.7571L1.38839 8.76076L5.33819 9.39251ZM8.97809 5.58861L8.58269 1.6082L8.5578 1.61067L8.53295 1.61346L8.97809 5.58861ZM9.11231 5.57528L9.50771 9.55569L13.1123 9.19762V5.57528H9.11231ZM5.66662 8.44464H7.20614V0.44464H5.66662V8.44464ZM7.20491 8.44464C6.27591 8.44436 5.38164 8.09144 4.70282 7.45722L10.1644 1.61159C9.36213 0.862052 8.30528 0.444977 7.20737 0.444641L7.20491 8.44464ZM4.70282 7.45722C4.02399 6.82299 3.61121 5.95473 3.54789 5.02789L11.5293 4.48261C11.4545 3.38724 10.9666 2.36113 10.1644 1.61159L4.70282 7.45722ZM3.54789 5.02789C3.48457 4.10103 3.77543 3.1847 4.36169 2.46405L10.5675 7.51258C11.2604 6.6609 11.6041 5.57797 11.5293 4.48261L3.54789 5.02789ZM4.36169 2.46405C4.94795 1.74339 5.78591 1.27214 6.70625 1.14551L7.7967 9.07085C8.88436 8.92119 9.87467 8.36426 10.5675 7.51258L4.36169 2.46405ZM6.97761 1.11757L6.93227 1.12068L7.48001 9.1019L7.52534 9.09879L6.97761 1.11757ZM7.20614 1.11129H5.66662V9.11129H7.20614V1.11129ZM5.66712 1.11129C4.40018 1.11113 3.18042 1.59194 2.25435 2.45655L7.71382 8.30412C7.15817 8.82289 6.42631 9.11138 5.66613 9.11129L5.66712 1.11129ZM2.25435 2.45655C1.32828 3.32115 0.764967 4.50507 0.678252 5.76904L8.65949 6.3166C8.60746 7.07499 8.26947 7.78535 7.71382 8.30412L2.25435 2.45655ZM0.670978 5.91303L0.668756 5.98147L8.66454 6.24106L8.66677 6.17261L0.670978 5.91303ZM0.66665 6.11126V10.3334H8.66665V6.11126H0.66665ZM0.66665 10.3329C0.666494 11.5998 1.1473 12.8196 2.01191 13.7457L7.85948 8.28618C8.37825 8.84183 8.66674 9.57369 8.66665 10.3339L0.66665 10.3329ZM2.01191 13.7457C2.87651 14.6717 4.06043 15.235 5.3244 15.3217L5.87196 7.34051C6.63036 7.39254 7.34072 7.73053 7.85948 8.28618L2.01191 13.7457ZM5.4684 15.329L5.53684 15.3312L5.7964 7.33546L5.72796 7.33323L5.4684 15.329ZM5.66662 15.3334H9.88874V7.33335H5.66662V15.3334ZM9.88825 15.3334C11.1552 15.3335 12.3749 14.8527 13.301 13.9881L7.84154 8.14052C8.39719 7.62175 9.12905 7.33326 9.88923 7.33335L9.88825 15.3334ZM13.301 13.9881C14.2271 13.1235 14.7904 11.9396 14.8771 10.6756L6.89587 10.128C6.9479 9.36964 7.28589 8.65928 7.84154 8.14052L13.301 13.9881ZM14.8844 10.5316L14.8866 10.4632L6.89082 10.2036L6.88859 10.272L14.8844 10.5316ZM14.8887 10.3334V10.112H6.88871V10.3334H14.8887ZM14.8886 10.0771C14.8967 11.0123 14.5473 11.9152 13.9117 12.6012L8.04336 7.164C7.29221 7.97472 6.87922 9.0418 6.88886 10.147L14.8886 10.0771ZM13.9117 12.6012C13.2761 13.2872 12.4024 13.7044 11.4693 13.7675L10.9297 5.78568C9.82705 5.86023 8.79452 6.35329 8.04336 7.164L13.9117 12.6012ZM11.4693 13.7675C10.5363 13.8305 9.6144 13.5347 8.89226 12.9405L13.9754 6.76298C13.1219 6.06074 12.0324 5.71114 10.9297 5.78568L11.4693 13.7675ZM8.89226 12.9405C8.17012 12.3463 7.70232 11.4986 7.58454 10.5709L15.5208 9.56341C15.3817 8.467 14.8288 7.46521 13.9754 6.76298L8.89226 12.9405ZM7.55973 10.3044L7.5624 10.3493L15.5483 9.87483L15.5457 9.82994L7.55973 10.3044ZM7.55536 10.112V10.3334H15.5554V10.112H7.55536ZM7.55536 10.3337C7.55531 9.7364 7.78434 9.16178 8.19529 8.72826L14.0013 14.2319C14.9993 13.1791 15.5555 11.7837 15.5554 10.333L7.55536 10.3337ZM8.19529 8.72826C8.60624 8.29474 9.16779 8.03533 9.76429 8.00347L10.191 15.9921C11.6395 15.9147 13.0033 15.2847 14.0013 14.2319L8.19529 8.72826ZM9.87767 7.99903L9.78878 8.00125L9.98869 15.9988L10.0776 15.9965L9.87767 7.99903ZM9.88874 8H5.66662V16H9.88874V8ZM5.66626 8C6.2636 7.99995 6.83822 8.22898 7.27174 8.63993L1.76807 14.4459C2.82088 15.4439 4.21634 16.0001 5.66698 16L5.66626 8ZM7.27174 8.63993C7.70526 9.05088 7.96467 9.61244 7.99653 10.2089L0.00791516 10.6356C0.0852832 12.0842 0.715257 13.4479 1.76807 14.4459L7.27174 8.63993ZM8.00097 10.3223L7.99875 10.2334L0.00124947 10.4333L0.00347168 10.5222L8.00097 10.3223ZM8 10.3334V6.11126H6.74358e-09V10.3334H8ZM8 6.1109C8.00005 6.70825 7.77102 7.28286 7.36007 7.71638L1.55408 2.21271C0.556088 3.26551 -0.000130393 4.66097 2.29081e-08 6.11162L8 6.1109ZM7.36007 7.71638C6.94912 8.1499 6.38756 8.40931 5.79107 8.44117L5.3644 0.452556C3.91582 0.529924 2.55207 1.1599 1.55408 2.21271L7.36007 7.71638ZM5.67771 8.44561L5.76659 8.44339L5.56665 0.44589L5.47777 0.448112L5.67771 8.44561ZM5.66662 8.44464H7.20614V0.44464H5.66662V8.44464ZM7.20614 0.44464H5.66662V8.44464H7.20614V0.44464ZM13.1123 5.57528V4.33353H5.11231V5.57528H13.1123ZM13.1123 4.33104C13.1127 5.0055 12.9271 5.66699 12.5759 6.24276L5.74625 2.07673C5.33118 2.75718 5.11182 3.53894 5.11231 4.33602L13.1123 4.33104ZM12.5759 6.24276C12.2247 6.81854 11.7215 7.28629 11.1216 7.59457L7.46497 0.479148C6.75604 0.843471 6.16132 1.39627 5.74625 2.07673L12.5759 6.24276ZM11.1216 7.59457C10.5217 7.90284 9.84845 8.03969 9.17583 7.99006L9.7645 0.0117475C8.96959 -0.0469035 8.17391 0.114827 7.46497 0.479148L11.1216 7.59457ZM9.17583 7.99006C8.50322 7.94043 7.85732 7.70625 7.30919 7.31327L11.9705 0.811584C11.3227 0.347156 10.5594 0.0703983 9.7645 0.0117475L9.17583 7.99006ZM7.06446 7.12304L7.1009 7.1537L12.2517 1.03248L12.2153 1.00182L7.06446 7.12304ZM6.90723 6.97966L9.57116 9.53515L15.1093 3.76201L12.4454 1.20652L6.90723 6.97966ZM9.5744 9.53825C8.20507 8.22761 8.07461 6.11754 9.20673 4.64923L15.5422 9.53413C16.8778 7.80184 16.7243 5.30777 15.1061 3.75891L9.5744 9.53825ZM9.40995 4.40621L9.37573 4.44399L15.3047 9.81493L15.3389 9.77716L9.40995 4.40621ZM9.57066 4.24337L6.90673 6.79975L12.4459 12.5719L15.1098 10.0155L9.57066 4.24337ZM6.90486 6.80154C7.39118 6.33426 7.99694 6.01016 8.65552 5.86489L10.3788 13.6771C11.1571 13.5054 11.873 13.1224 12.4477 12.5701L6.90486 6.80154ZM8.65552 5.86489C9.3141 5.71962 10 5.75879 10.6378 5.97812L8.03613 13.5433C8.78986 13.8025 9.60046 13.8488 10.3788 13.6771L8.65552 5.86489ZM10.6378 5.97812C11.2755 6.19745 11.8405 6.58843 12.2704 7.10803L6.10669 12.2079C6.61478 12.822 7.2824 13.2841 8.03613 13.5433L10.6378 5.97812ZM12.2704 7.10803C12.7003 7.62764 12.9786 8.25577 13.0747 8.92333L5.15619 10.0626C5.2697 10.8515 5.59859 11.5938 6.10669 12.2079L12.2704 7.10803ZM13.1069 9.23183L13.1038 9.18428L5.12084 9.70652L5.12396 9.75408L13.1069 9.23183ZM13.1123 9.4454V8.2001H5.11231V9.4454H13.1123ZM9.18706 4.2008L9.0444 4.19813L8.8949 12.1967L9.03756 12.1994L9.18706 4.2008ZM8.98169 4.19745C6.51002 4.19001 4.4365 5.27879 2.90444 7.03492L8.93279 12.2941C8.99977 12.2173 9.04497 12.1786 9.06432 12.1634C9.08253 12.1491 9.07987 12.1539 9.05656 12.1651C9.03245 12.1767 9.00336 12.1869 8.97536 12.193C8.94815 12.199 8.93958 12.1974 8.95761 12.1974L8.98169 4.19745ZM2.90568 7.03349C5.33084 4.2563 9.86886 6.39258 9.28798 10.0243L1.38839 8.76076C0.701741 13.0538 6.06552 15.5776 8.93155 12.2955L2.90568 7.03349ZM9.2874 10.0279C9.38143 9.44347 9.5221 9.37933 9.42188 9.48413C9.37394 9.53426 9.31779 9.57091 9.28019 9.58831C9.24927 9.60262 9.28378 9.57938 9.42324 9.56376L8.53295 1.61346C6.73436 1.81487 4.99647 2.53667 3.6401 3.95503C2.3218 5.33358 1.66249 7.05717 1.38898 8.7571L9.2874 10.0279ZM9.37349 9.56902L9.50771 9.55569L8.71691 1.59487L8.58269 1.6082L9.37349 9.56902ZM13.1123 5.57528V4.33353H5.11231V5.57528H13.1123ZM5.11231 4.33353V5.57528H13.1123V4.33353H5.11231Z" fill="white" mask="url(#path-2-inside-1_1049_1241)"/>
</svg>
 -->
 <!-- <svg xmlns="http://www.w3.org/2000/svg" width="600" height="600" viewBox="0 0 512 512" id="share"><path fill="white" d="M352 377.9H102.4V198.2h57.5s14.1-19.7 42.7-38.2H83.2c-10.6 0-19.2 8.5-19.2 19.1V397c0 10.5 8.6 19.1 19.2 19.1h288c10.6 0 19.2-8.5 19.2-19.1V288L352 319.4v58.5zM320 224v63.9l128-95.5L320 96v59.7C165.2 155.7 160 320 160 320c43.8-71.5 76-96 160-96z"/></svg> -->
<svg xmlns="http://www.w3.org/2000/svg" viewBox="0 0 64 64" id="share"><path fill="white" stroke="white" stroke-width="3" d="M6.54 55.08a1.91 1.91 0 0 1-.62-.1 2 2 0 0 1-1.38-2c0-.3 2.06-29.34 31.18-31.62V10.92a2 2 0 0 1 3.43-1.4l19.74 20.16a2 2 0 0 1 0 2.8L39.15 52.64a2 2 0 0 1-3.43-1.4V41c-19.44.74-27.41 13-27.49 13.15a2 2 0 0 1-1.69.93Zm33.18-39.26v7.41a2 2 0 0 1-1.93 2c-18.84.69-25.58 13.24-28 21.31 5-4.32 13.91-9.6 27.81-9.6h.09a2 2 0 0 1 2 2v7.41l15-15.26Z" data-name="Arrow"/></svg>
