<svg width="24" height="24" viewBox="0 0 24 24" fill="none" xmlns="http://www.w3.org/2000/svg">
<path d="M6.74695 3.99998H10.2109C10.401 4.00004 10.5839 4.07222 10.7227 4.20195C10.8616 4.33168 10.946 4.50928 10.959 4.69886C10.9719 4.88844 10.9124 5.07587 10.7925 5.22328C10.6726 5.37068 10.5012 5.46708 10.3129 5.49298L10.2109 5.49998H6.74695C6.17682 5.49991 5.62793 5.71627 5.21119 6.10535C4.79446 6.49442 4.54097 7.02719 4.50195 7.59598L4.49695 7.74998V17.25C4.49688 17.8201 4.71324 18.369 5.10232 18.7857C5.49139 19.2025 6.02416 19.456 6.59295 19.495L6.74695 19.5H16.2469C16.8171 19.5 17.366 19.2837 17.7827 18.8946C18.1994 18.5055 18.4529 17.9728 18.4919 17.404L18.4969 17.25V16.752C18.4953 16.5607 18.5668 16.376 18.6968 16.2357C18.8268 16.0954 19.0055 16.01 19.1963 15.9971C19.3872 15.9842 19.5758 16.0447 19.7235 16.1663C19.8712 16.2878 19.9669 16.4612 19.9909 16.651L19.9969 16.752V17.25C19.997 18.21 19.6289 19.1334 18.9685 19.8302C18.3081 20.5269 17.4056 20.9438 16.4469 20.995L16.2469 21H6.74695C5.78695 21.0001 4.86348 20.632 4.16676 19.9715C3.47005 19.3111 3.05315 18.4086 3.00195 17.45L2.99695 17.25V7.74998C2.99686 6.78998 3.36495 5.86651 4.02539 5.16979C4.68583 4.47308 5.58832 4.05618 6.54695 4.00498L6.74695 3.99998H10.2109H6.74695ZM14.4999 6.54398V3.74998C14.4999 3.61202 14.5378 3.47672 14.6097 3.35895C14.6815 3.24117 14.7844 3.1455 14.9071 3.08244C15.0298 3.01939 15.1676 2.99139 15.3051 3.00155C15.4427 3.0117 15.5748 3.0596 15.6869 3.13998L15.7689 3.20898L21.7629 8.95898C22.0429 9.22698 22.0689 9.65898 21.8399 9.95598L21.7629 10.041L15.7689 15.793C15.6695 15.8886 15.5456 15.9549 15.4109 15.9846C15.2761 16.0143 15.1359 16.0063 15.0054 15.9614C14.8749 15.9165 14.7594 15.8366 14.6715 15.7303C14.5835 15.624 14.5266 15.4955 14.5069 15.359L14.4999 15.252V12.45L14.1789 12.444C11.5209 12.436 9.24895 13.527 7.31395 15.745C6.81795 16.313 5.88895 15.877 6.00795 15.133C6.83495 9.99298 9.60795 7.08798 14.1979 6.57398L14.4999 6.54398V3.74998V6.54398Z" fill="black"/>
</svg>
