<svg width="28" height="28" viewBox="0 0 28 28" fill="none" xmlns="http://www.w3.org/2000/svg">
<path d="M3.99655 2.324L14.4545 0L24.9125 2.324C25.1952 2.38683 25.4479 2.54414 25.6291 2.76997C25.8103 2.9958 25.909 3.27666 25.9091 3.56618V16.2769C25.909 17.534 25.5986 18.7717 25.0053 19.88C24.4121 20.9883 23.5544 21.9331 22.5084 22.6304L14.4545 28L6.40073 22.6304C5.35489 21.9332 4.49731 20.9887 3.90408 19.8806C3.31085 18.7725 3.0003 17.5351 3 16.2782V3.56618C3.00005 3.27666 3.09881 2.9958 3.27999 2.76997C3.46116 2.54414 3.71392 2.38683 3.99655 2.324ZM5.54545 4.58691V16.2769C5.54547 17.1149 5.75237 17.94 6.14779 18.6789C6.54321 19.4178 7.11492 20.0476 7.81218 20.5125L14.4545 24.9416L21.0969 20.5125C21.794 20.0478 22.3656 19.4181 22.761 18.6795C23.1564 17.9408 23.3634 17.116 23.3636 16.2782V4.58691L14.4545 2.60909L5.54545 4.58691ZM14.4545 12.7273C13.6107 12.7273 12.8014 12.392 12.2047 11.7953C11.608 11.1986 11.2727 10.3893 11.2727 9.54545C11.2727 8.70158 11.608 7.89228 12.2047 7.29557C12.8014 6.69886 13.6107 6.36364 14.4545 6.36364C15.2984 6.36364 16.1077 6.69886 16.7044 7.29557C17.3011 7.89228 17.6364 8.70158 17.6364 9.54545C17.6364 10.3893 17.3011 11.1986 16.7044 11.7953C16.1077 12.392 15.2984 12.7273 14.4545 12.7273ZM8.76164 19.0909C8.91592 17.6889 9.58214 16.3931 10.6326 15.4518C11.6832 14.5106 13.044 13.9901 14.4545 13.9901C15.865 13.9901 17.2259 14.5106 18.2764 15.4518C19.3269 16.3931 19.9932 17.6889 20.1475 19.0909L20.3659 21L14.4545 24.9416L8.54322 21L8.76164 19.0909Z" fill="white"/>
</svg>
