<svg width="92" height="92" viewBox="0 0 92 92" fill="none" xmlns="http://www.w3.org/2000/svg">
<path d="M35.2397 35.4507C35.7501 34.8845 36.4645 34.5443 37.2258 34.5048C37.987 34.4652 38.7328 34.7296 39.2992 35.2398L48.8825 43.8648C49.1815 44.1344 49.4205 44.4638 49.5841 44.8316C49.7477 45.1994 49.8322 45.5974 49.8322 46C49.8322 46.4025 49.7477 46.8006 49.5841 47.1684C49.4205 47.5362 49.1815 47.8656 48.8825 48.1352L39.2992 56.7602C39.0204 57.0222 38.6921 57.226 38.3335 57.3595C37.975 57.4931 37.5934 57.5537 37.2111 57.5379C36.8288 57.522 36.4535 57.43 36.1072 57.2673C35.7609 57.1045 35.4506 56.8743 35.1945 56.5901C34.9383 56.3059 34.7414 55.9734 34.6154 55.6121C34.4894 55.2508 34.4368 54.868 34.4607 54.4861C34.4845 54.1043 34.5844 53.731 34.7543 53.3882C34.9243 53.0454 35.161 52.74 35.4505 52.4898L39.4678 48.875H25.8748C25.1123 48.875 24.3811 48.5721 23.8419 48.0329C23.3027 47.4938 22.9998 46.7625 22.9998 46C22.9998 45.2375 23.3027 44.5062 23.8419 43.9671C24.3811 43.4279 25.1123 43.125 25.8748 43.125H39.4678L35.4505 39.5102C34.8844 38.9997 34.5441 38.2853 34.5046 37.5241C34.4651 36.7628 34.7295 36.017 35.2397 35.4507ZM84.3332 66.125C84.3332 67.5093 84.0605 68.8801 83.5307 70.1591C83.001 71.4381 82.2245 72.6002 81.2456 73.5791C80.2667 74.558 79.1046 75.3344 77.8256 75.8642C76.5467 76.394 75.1759 76.6666 73.7915 76.6666H18.2082C16.8238 76.6666 15.453 76.394 14.174 75.8642C12.8951 75.3344 11.733 74.558 10.7541 73.5791C9.7752 72.6002 8.99871 71.4381 8.46894 70.1591C7.93917 68.8801 7.6665 67.5093 7.6665 66.125V25.875C7.6665 23.0792 8.77714 20.3979 10.7541 18.4209C12.731 16.444 15.4123 15.3333 18.2082 15.3333H73.7915C76.5873 15.3333 79.2686 16.444 81.2456 18.4209C83.2225 20.3979 84.3332 23.0792 84.3332 25.875V66.125ZM57.5075 70.9166V21.0833H18.2082C15.5632 21.0833 13.4165 23.23 13.4165 25.875V66.125C13.4165 68.77 15.5632 70.9166 18.2082 70.9166H57.5075Z" fill="white"/>
</svg>
