<svg width="11" height="14" viewBox="0 0 11 14" fill="none" xmlns="http://www.w3.org/2000/svg">
<path d="M7 6.125V3.5C7 2.5375 6.2125 1.75 5.25 1.75C4.2875 1.75 3.5 2.5375 3.5 3.5H1.75C1.75 1.56625 3.31625 0 5.25 0C7.18375 0 8.75 1.56625 8.75 3.5V6.125H9.625C10.1062 6.125 10.5 6.51875 10.5 7V13.125C10.5 13.6062 10.1062 14 9.625 14H0.875C0.39375 14 0 13.6062 0 13.125V7C0 6.51875 0.39375 6.125 0.875 6.125H7ZM6.125 12.25L5.81 10.3688C6.25625 10.1588 6.5625 9.7125 6.5625 9.1875C6.5625 8.46125 5.97625 7.875 5.25 7.875C4.52375 7.875 3.9375 8.46125 3.9375 9.1875C3.9375 9.7125 4.24375 10.1588 4.69 10.3688L4.375 12.25H6.125Z" fill="white"/>
</svg>
