<svg xmlns="http://www.w3.org/2000/svg" width="256" height="256"><path fill-opacity=".016" d="M0 128.004v128.004l128.25-.254 128.25-.254.254-127.75L257.008 0H0v128.004m.485.496c0 70.4.119 99.053.265 63.672.146-35.38.146-92.98 0-128C.604 29.153.485 58.1.485 128.5" fill="#1976D2" fill-rule="evenodd"/><path fill-opacity=".195" d="M111.107 29.904c-12.497 3.167-23.448 9.404-32.62 18.58-9.159 9.162-14.403 17.545-18.154 29.016-2.262 6.916-2.631 9.829-2.724 21.5l-.109 13.5h21l.622-12.5c.342-6.875 1.067-13.854 1.611-15.509C85.708 69.356 97.955 57.017 113 51.979c5.432-1.819 8.225-2.117 17-1.815 9.658.333 11.123.659 18.266 4.057 8.62 4.102 17.452 11.735 21.428 18.52 5.154 8.794 6.566 14.141 7.201 27.259l.605 12.5h21l.32-8.5c1.279-33.938-18.116-62.527-49.299-72.666-10.891-3.541-27.627-4.164-38.414-1.43m-7.357 80.785L81 124.183v56.409l22.645 13.454c12.455 7.4 23.143 13.554 23.75 13.677.608.123 11.455-5.963 24.105-13.525l23-13.75.246-27.974.245-27.974-23.44-13.75c-12.893-7.562-23.803-13.706-24.246-13.652-.443.054-11.042 6.17-23.555 13.591m7.568 12.622L96.137 132.5l-.319 19.769-.318 19.768 15.746 8.982c8.661 4.939 16.151 8.981 16.646 8.981.494 0 7.809-3.958 16.253-8.794l15.355-8.795v-39.719l-15.331-9.346c-8.431-5.14-15.856-9.318-16.5-9.285-.643.034-8.001 4.196-16.351 9.25M57 158.703v34.866l28.75 17.116c15.813 9.413 29.088 16.909 29.5 16.656.967-.592.953-17.505-.015-18.895-.404-.58-9.623-6.418-20.485-12.973L75 183.555v-48.58l-5.25-3.304a698.895 698.895 0 00-9-5.569L57 123.837v34.866m132.5-29.63l-8 4.91-.5 24.735-.5 24.735-20 12.107-20 12.108-.286 10.261c-.162 5.799.105 10.111.614 9.916.495-.19 13.783-7.995 29.529-17.345l28.629-17 .007-34.75c.004-19.113-.331-34.713-.743-34.669-.412.045-4.35 2.291-8.75 4.992m-92.274 23.494l.274 17.798 14.177 8.224c7.798 4.523 14.435 7.965 14.75 7.65.315-.315.573-7.889.573-16.832v-16.26l-13.694-8.679c-7.532-4.774-14.292-8.909-15.023-9.19-1.082-.415-1.279 2.809-1.057 17.289m45.546-8.748l-13.729 8.681-.021 17.335-.022 17.336 4.25-2.4a2987.07 2987.07 0 0014.5-8.299l10.25-5.898v-17.787c0-9.783-.338-17.756-.75-17.718-.412.038-6.928 3.975-14.478 8.75" fill="#1976D2" fill-rule="evenodd"/><path fill-opacity=".252" d="M118.477 28.927C94.586 32.73 74.986 46.858 64.966 67.5c-4.929 10.154-6.751 18.013-7.594 32.75L56.7 112h21.025l.519-11.75c.389-8.81 1.084-13.251 2.779-17.75 13.095-34.753 55.447-44.621 81.543-19 10.531 10.34 15.408 23.379 15.426 41.25L178 112h20.252l-.515-14.25c-.436-12.068-.93-15.44-3.223-22.021-7.484-21.471-27.183-39.609-49.014-45.13-7.572-1.915-20.482-2.714-27.023-1.672m-14.227 81.892L81 124.446l.035 28.027.035 28.027 22.85 13.445c12.567 7.395 23.178 13.446 23.58 13.446.402 0 11.013-6.051 23.58-13.446l22.85-13.445.035-28.018.035-28.019-22.151-12.981a23154.796 23154.796 0 01-23.25-13.636c-.604-.36-11.562 5.478-24.349 12.973m7.25 12.154l-16 9.842v39.433l16.295 9.346 16.295 9.346 16.205-9.368 16.205-9.368V132.815l-16.253-9.907c-8.939-5.45-16.364-9.879-16.5-9.843-.136.036-7.447 4.494-16.247 9.908m-54.263 36.141l.263 34.29 28.309 16.798c15.57 9.239 28.507 16.798 28.75 16.798.243 0 .441-4.209.441-9.354v-9.354l-20.494-12.396L74.012 183.5l-.018-24.5-.019-24.5-7.687-4.5c-4.228-2.475-8.054-4.652-8.501-4.838-.447-.186-.695 15.093-.55 33.952m131.536-29.277l-7.727 4.663-.029 24.5-.029 24.5-20.494 12.396L140 208.292v19.938l2.25-1.419c1.238-.781 14.287-8.54 29-17.243L198 193.745v-34.373c0-18.904-.338-34.333-.75-34.285-.412.048-4.227 2.185-8.477 4.75M143.5 143.891l-14 8.835-.274 16.637c-.151 9.15.053 16.637.452 16.637 1.5 0 27.481-15.25 27.917-16.387.25-.652.331-8.695.18-17.872l-.275-16.685-14 8.835m-45.274 9.359l.274 17.25 13.5 7.755 13.5 7.754.276-16.193c.206-12.145-.044-16.484-1-17.355C123.118 150.952 99.274 136 98.525 136c-.315 0-.449 7.762-.299 17.25" fill="#1976D2" fill-rule="evenodd"/><path fill-opacity=".457" d="M104 111.333l-22.5 13.251-.266 27.628-.265 27.628 22.043 13.122c12.124 7.217 22.706 13.376 23.516 13.687 1.22.468 1.472-.801 1.472-7.427v-7.993l-16.495-9.364-16.494-9.365.019-20 .02-20 16.475-9.905L128 112.691v-7.346c0-4.04-.338-7.326-.75-7.303-.412.023-10.875 6.004-23.25 13.291m85.286 18.749l-8.214 5.019.043 24.2.042 24.199-20.078 12.328L141 208.155V227.04l4.795-2.77c2.637-1.523 15.451-9.07 28.475-16.77l23.681-14 .025-34.25c.013-18.838-.089-34.236-.226-34.219-.137.017-3.946 2.29-8.464 5.051m-45.993 14.185l-13.208 8.233-.042 16.865L130 186.23l2.25-1.463c1.238-.804 7.537-4.493 14-8.198l11.75-6.736v-16.916c0-9.305-.338-16.91-.75-16.9-.412.009-6.693 3.721-13.957 8.25" fill="#1976D2" fill-rule="evenodd"/></svg>